<svg width="18" height="18" viewBox="0 0 18 18" fill="none" xmlns="http://www.w3.org/2000/svg">
<path fill-rule="evenodd" clip-rule="evenodd" d="M7.50712 15.7301C7.50675 15.7373 7.50487 15.7436 7.50487 15.7511C7.50487 16.5788 8.17425 17.25 9 17.25C9.82575 17.25 10.4951 16.5788 10.4951 15.7511C10.4951 15.744 10.4932 15.7376 10.4932 15.7301C15.2749 15.5989 16.5 14.82 16.5 13.8761C16.5 13.5806 16.371 13.3024 16.0571 13.0534C13.7966 10.5353 13.125 11.2324 13.125 7.50225C13.125 5.01525 13.0234 2.73525 10.0282 2.32463C10.0875 2.18738 10.1212 2.03663 10.1212 1.878C10.1212 1.257 9.61912 0.753754 9 0.753754C8.38087 0.753754 7.87875 1.257 7.87875 1.878C7.87875 2.03663 7.9125 2.18738 7.97175 2.32463C4.97662 2.73525 4.875 5.01525 4.875 7.50225C4.875 11.2436 4.2 10.5296 1.923 13.0748C1.62525 13.3185 1.5 13.5889 1.5 13.8761C1.5 14.8193 2.75737 15.5981 7.50712 15.7301ZM9 16.5011C8.58675 16.5011 8.25225 16.1655 8.25225 15.7519C8.25225 15.7496 8.253 15.7474 8.253 15.7451C8.49712 15.7485 8.739 15.7523 9 15.7523C9.261 15.7523 9.5025 15.7485 9.747 15.7451C9.747 15.7474 9.74775 15.7496 9.74775 15.7519C9.74775 16.1655 9.41325 16.5011 9 16.5011ZM9 1.50263C9.20662 1.50263 9.3735 1.67025 9.3735 1.87725C9.3735 2.08425 9.20662 2.25225 9 2.25225C8.79337 2.25225 8.62612 2.08425 8.62612 1.87725C8.62612 1.67025 8.79337 1.50263 9 1.50263ZM2.39812 13.6553C2.39812 13.6553 2.96887 13.0125 3.90487 12.1613C5.18287 10.9969 5.625 10.4449 5.625 7.50225C5.625 4.62825 5.78175 3.00225 9 3.00225C12.2182 3.00225 12.375 4.62825 12.375 7.50225C12.375 10.4453 12.8175 10.9976 14.0962 12.1624C15.0139 12.9983 15.591 13.6406 15.591 13.6406C15.75 13.767 15.75 13.8405 15.75 13.8761C15.75 13.9223 15.6731 15.0023 9 15.0023C2.32687 15.0023 2.25 13.9223 2.25 13.8761C2.25 13.8461 2.25 13.776 2.39812 13.6553Z" fill="#222222"/>
</svg>
