<svg width="32" height="32" viewBox="0 0 32 32" fill="none" xmlns="http://www.w3.org/2000/svg">
<path d="M29.1796 6.18393C29.1921 5.43656 28.9214 4.74744 28.4176 4.24358C28.1442 3.97023 27.701 3.97023 27.4276 4.24362C27.1543 4.517 27.1542 4.96021 27.4276 5.23356C27.6608 5.46673 27.7859 5.79591 27.7798 6.1605C27.774 6.50832 27.6424 6.84417 27.4276 7.05893C26.9823 7.50427 22.5427 11.4019 19.0754 14.4346L18.2256 13.5848C20.7568 10.6887 23.898 7.10763 25.1266 5.74786L25.4061 6.02742C25.6795 6.30083 26.1228 6.30083 26.3961 6.0275C26.6695 5.75416 26.6695 5.31094 26.3962 5.03756L25.6023 4.24365C25.4711 4.11237 25.293 4.03859 25.1074 4.03859H25.1073C24.9216 4.03859 24.7437 4.11233 24.6124 4.24358C24.1864 4.66953 21.5807 7.62895 19.2296 10.3119C18.5974 9.35489 17.7528 8.53165 16.7483 7.89966C15.2801 6.976 13.5684 6.50766 11.6606 6.50766C11.2409 6.50766 10.8257 6.53411 10.4266 6.58639C10.0433 6.63657 9.77323 6.98797 9.82338 7.37131C9.87355 7.75465 10.2249 8.02471 10.6083 7.97453C10.9474 7.93017 11.3015 7.90766 11.6606 7.90766C14.5654 7.90766 17.002 9.20995 18.2656 11.4128C17.0865 12.7601 16.0735 13.9205 15.5849 14.4805C14.7128 14.5993 14.0621 14.9562 13.6032 15.5682C13.1766 16.1372 12.9896 16.8167 12.7916 17.5362C12.5529 18.4037 12.3061 19.3008 11.6022 20.0046C11.402 20.2048 11.3421 20.5059 11.4505 20.7675C11.5588 21.0291 11.8141 21.1996 12.0972 21.1996C13.9811 21.1996 15.4742 20.7981 16.5352 20.0062C17.4912 19.2925 18.0612 18.2792 18.1959 17.0625C19.9996 15.4873 27.7707 8.69571 28.4176 8.04884C28.8899 7.57652 29.1677 6.89675 29.1796 6.18393ZM18.019 15.3582C17.8087 15.542 17.6048 15.7201 17.4087 15.8913L16.7695 15.2522C16.9406 15.0562 17.1187 14.8521 17.3025 14.6417L18.019 15.3582ZM15.6977 18.8842C15.1471 19.2953 14.4143 19.5692 13.5099 19.7033C13.8176 19.0845 13.9903 18.4571 14.1415 17.9076C14.4659 16.7285 14.6635 16.1367 15.463 15.9256L16.7555 17.218C16.6132 17.9061 16.2591 18.4652 15.6977 18.8842Z" fill="#222222"/>
<path d="M8.24086 8.64824C8.3428 8.64824 8.44637 8.62584 8.54433 8.57865C8.60715 8.54833 8.67169 8.51856 8.73609 8.49015C9.08978 8.33402 9.24993 7.92076 9.09379 7.56708C8.93766 7.21343 8.5244 7.05328 8.17071 7.20938C8.09206 7.24408 8.01321 7.28048 7.93632 7.31755C7.58809 7.48547 7.4419 7.90389 7.60975 8.25208C7.73045 8.50235 7.98046 8.64824 8.24086 8.64824Z" fill="#222222"/>
<path d="M13.2994 21.9773C12.9131 21.9735 12.5959 22.2828 12.5916 22.6693C12.5613 25.3604 12.1551 26.5609 9.8278 26.5609C8.52315 26.5609 7.15395 25.6065 6.07131 23.9424C4.87757 22.1075 4.22013 19.7251 4.22013 17.2342C4.22013 14.0005 5.19663 11.3098 6.96978 9.65796C7.25265 9.39443 7.26831 8.95148 7.00482 8.6686C6.74128 8.38573 6.29833 8.37003 6.01546 8.63356C4.97102 9.6066 4.16291 10.8709 3.61351 12.3913C3.08704 13.8482 2.82013 15.4776 2.82013 17.2342C2.82013 19.9929 3.55804 22.6465 4.89784 24.7059C6.24362 26.7745 8.04056 27.9609 9.8278 27.9609C11.5372 27.9609 12.7287 27.3594 13.3689 26.1731C13.9186 25.1544 13.9785 23.8385 13.9914 22.685C13.9958 22.2985 13.6859 21.9815 13.2994 21.9773Z" fill="#222222"/>
<path d="M16.744 11.6111C16.744 10.3252 15.6978 9.27899 14.4119 9.27899C13.126 9.27899 12.0798 10.3252 12.0798 11.6111C12.0798 12.897 13.126 13.9432 14.4119 13.9432C15.6978 13.9432 16.744 12.897 16.744 11.6111ZM13.4798 11.6111C13.4798 11.0971 13.8979 10.679 14.4119 10.679C14.9259 10.679 15.344 11.0971 15.344 11.6111C15.344 12.1251 14.9259 12.5432 14.4119 12.5432C13.8979 12.5432 13.4798 12.125 13.4798 11.6111Z" fill="#222222"/>
<path d="M8.85393 14.7812C10.1399 14.7812 11.186 13.735 11.186 12.4491C11.186 11.1631 10.1399 10.1169 8.85393 10.1169C7.56799 10.1169 6.52179 11.1631 6.52179 12.4491C6.52179 13.735 7.56799 14.7812 8.85393 14.7812ZM8.85393 11.5169C9.36792 11.5169 9.78604 11.9351 9.78604 12.4491C9.78604 12.9631 9.36792 13.3812 8.85393 13.3812C8.33995 13.3812 7.92179 12.9631 7.92179 12.4491C7.92179 11.9351 8.33998 11.5169 8.85393 11.5169Z" fill="#222222"/>
<path d="M9.39967 17.8072C9.39967 16.5213 8.35346 15.4751 7.06753 15.4751C5.78159 15.4751 4.73541 16.5213 4.73541 17.8072C4.73541 19.0931 5.78159 20.1393 7.06753 20.1393C8.35346 20.1393 9.39967 19.0931 9.39967 17.8072ZM7.06753 18.7393C6.55354 18.7393 6.13542 18.3212 6.13542 17.8072C6.13542 17.2933 6.55354 16.8751 7.06753 16.8751C7.58151 16.8751 7.99967 17.2933 7.99967 17.8072C7.99967 18.3212 7.58151 18.7393 7.06753 18.7393Z" fill="#222222"/>
<path d="M9.51771 25.5958C10.8036 25.5958 11.8499 24.5496 11.8499 23.2637C11.8499 21.9778 10.8036 20.9316 9.51771 20.9316C8.23178 20.9316 7.18561 21.9778 7.18561 23.2637C7.18561 24.5496 8.23178 25.5958 9.51771 25.5958ZM9.51771 22.3316C10.0317 22.3316 10.4499 22.7497 10.4499 23.2637C10.4499 23.7777 10.0317 24.1958 9.51771 24.1958C9.00377 24.1958 8.58561 23.7777 8.58561 23.2637C8.58561 22.7497 9.00377 22.3316 9.51771 22.3316Z" fill="#222222"/>
</svg>
