<svg width="21" height="21" viewBox="0 0 21 21" fill="none" xmlns="http://www.w3.org/2000/svg">
<g clip-path="url(#clip0_63:567)">
<path d="M10.5737 4.92207C14.5726 4.95324 18.7641 6.51922 20.783 9.9414C20.879 10.1041 21.0001 10.3481 21.0001 10.3481C21.1213 10.6723 20.7976 11.0323 20.5533 11.3988C18.4312 14.5814 14.3802 16.0782 10.4623 16.0782C6.48071 16.0782 2.24905 14.5286 0.282269 11.0596C0.181371 10.8816 0.0560267 10.6132 0.0560267 10.6132C-0.0292857 10.3681 0.174316 10.0981 0.332308 9.83345C2.26956 6.58763 6.32321 4.95373 10.3854 4.92207C10.4482 4.92191 10.5109 4.92191 10.5737 4.92207V4.92207ZM10.3888 5.57832C6.84083 5.60605 3.21243 6.85735 1.19314 9.71401C1.01973 9.95928 0.859441 10.2147 0.722449 10.4821C0.722449 10.4821 1.22793 11.4061 1.83266 12.077C4.02732 14.5107 7.51513 15.487 10.8238 15.4181C14.5693 15.3402 18.5111 13.8677 20.3125 10.5296C20.3125 10.5296 20.3199 10.4551 20.2849 10.3919C18.5055 7.21862 14.4837 5.60884 10.5703 5.57832C10.5098 5.57816 10.4494 5.57816 10.3888 5.57832ZM10.5575 8.03926C12.1825 8.0701 13.5067 9.98438 12.7436 11.5669C12.0774 12.949 9.97869 13.3783 8.82812 12.2811C7.47674 10.9924 8.24389 8.08191 10.494 8.03926C10.5257 8.03909 10.5257 8.03909 10.5575 8.03926V8.03926ZM10.5024 8.69551C9.31227 8.71798 8.34053 10.1235 8.899 11.2818C9.38807 12.2965 10.9265 12.611 11.7704 11.8061C12.3381 11.2651 12.491 10.3365 12.1127 9.64051C11.7975 9.06038 11.2106 8.69091 10.5024 8.69551V8.69551Z" fill="#222222"/>
</g>
<defs>
<clipPath id="clip0_63:567">
<rect width="21" height="21" fill="white"/>
</clipPath>
</defs>
</svg>
