<svg width="22" height="28" viewBox="0 0 22 28" fill="none" xmlns="http://www.w3.org/2000/svg">
<path fill-rule="evenodd" clip-rule="evenodd" d="M17.875 22C17.622 22 17.4167 22.2053 17.4167 22.4583V23.375C17.4167 23.628 17.622 23.8333 17.875 23.8333C18.128 23.8333 18.3333 23.628 18.3333 23.375V22.4583C18.3333 22.2053 18.128 22 17.875 22ZM18.3333 16.9583C18.3333 16.7053 18.128 16.5 17.875 16.5C17.622 16.5 17.4167 16.7053 17.4167 16.9583V20.625C17.4167 20.878 17.622 21.0833 17.875 21.0833C18.128 21.0833 18.3333 20.878 18.3333 20.625V16.9583ZM21.0833 11.9167H0.916667C0.411125 11.9167 0 12.3278 0 12.8333V14.6667C0 15.1722 0.411125 15.5833 0.916667 15.5833V25.2083C0.916667 26.472 1.94471 27.5 3.20833 27.5H18.7917C20.0553 27.5 21.0833 26.472 21.0833 25.2083V16.9583C21.0833 16.7053 20.878 16.5 20.625 16.5C20.372 16.5 20.1667 16.7053 20.1667 16.9583V25.2083C20.1667 25.9664 19.5498 26.5833 18.7917 26.5833H3.20833C2.45025 26.5833 1.83333 25.9664 1.83333 25.2083V15.125C1.83333 14.872 1.628 14.6667 1.375 14.6667H0.916667V12.8333H21.0833V14.6667H3.20833C2.95533 14.6667 2.75 14.872 2.75 15.125C2.75 15.378 2.95533 15.5833 3.20833 15.5833H21.0833C21.5889 15.5833 22 15.1722 22 14.6667V12.8333C22 12.3278 21.5889 11.9167 21.0833 11.9167ZM10.0833 7.54692V10.5417C10.0833 10.7947 10.2887 11 10.5417 11C10.7947 11 11 10.7947 11 10.5417V7.33333C11 7.18942 10.9313 7.05283 10.8162 6.96621C10.3505 6.61604 10.0833 6.08162 10.0833 5.5C10.0833 4.34683 11.193 2.39067 11.9167 1.27554C12.6404 2.39067 13.75 4.34683 13.75 5.5C13.75 6.37129 13.1313 7.12708 12.2792 7.29758C12.0308 7.34708 11.8695 7.58862 11.9194 7.83658C11.9689 8.085 12.2105 8.2445 12.4584 8.19637C13.7381 7.94108 14.6667 6.80717 14.6667 5.5C14.6667 3.54246 12.3865 0.327708 12.2898 0.192042C12.1174 -0.0490417 11.7159 -0.0490417 11.5436 0.192042C11.4469 0.327708 9.16667 3.54246 9.16667 5.5C9.16667 6.28558 9.49162 7.01433 10.0833 7.54692ZM1.375 11H2.29167C2.54467 11 2.75 10.7947 2.75 10.5417C2.75 10.2887 2.54467 10.0833 2.29167 10.0833H1.83333V9.16667H4.125C4.378 9.16667 4.58333 8.96133 4.58333 8.70833C4.58333 8.45533 4.378 8.25 4.125 8.25H1.83333V7.33333H2.29167C2.54467 7.33333 2.75 7.128 2.75 6.875C2.75 6.622 2.54467 6.41667 2.29167 6.41667H1.83333V5.5H2.29167C2.54467 5.5 2.75 5.29467 2.75 5.04167C2.75 4.78867 2.54467 4.58333 2.29167 4.58333H1.83333V3.66667H4.125C4.378 3.66667 4.58333 3.46133 4.58333 3.20833C4.58333 2.95533 4.378 2.75 4.125 2.75H1.83333V0.916667H7.33333V10.5417C7.33333 10.7947 7.53867 11 7.79167 11C8.04467 11 8.25 10.7947 8.25 10.5417V0.458333C8.25 0.205333 8.04467 0 7.79167 0H1.375C1.122 0 0.916667 0.205333 0.916667 0.458333V10.5417C0.916667 10.7947 1.122 11 1.375 11ZM17.875 5.95833V10.5417C17.875 10.7947 18.0803 11 18.3333 11C18.5863 11 18.7917 10.7947 18.7917 10.5417V5.95833C18.7917 5.70533 18.5863 5.5 18.3333 5.5C18.0803 5.5 17.875 5.70533 17.875 5.95833ZM20.625 5.5C20.372 5.5 20.1667 5.70533 20.1667 5.95833V10.5417C20.1667 10.7947 20.372 11 20.625 11C20.878 11 21.0833 10.7947 21.0833 10.5417V5.95833C21.0833 5.70533 20.878 5.5 20.625 5.5ZM16.0417 11C16.2947 11 16.5 10.7947 16.5 10.5417V4.25654L18.3333 1.32321L19.7982 3.66667H17.875C17.622 3.66667 17.4167 3.872 17.4167 4.125C17.4167 4.378 17.622 4.58333 17.875 4.58333H20.625C20.7918 4.58333 20.9449 4.49304 21.026 4.34729C21.1067 4.20154 21.1021 4.02325 21.0137 3.88208L18.722 0.215417C18.5543 -0.0527083 18.1124 -0.0527083 17.9447 0.215417L15.653 3.88208C15.6076 3.95496 15.5833 4.03883 15.5833 4.125V10.5417C15.5833 10.7947 15.7887 11 16.0417 11ZM13.75 9.16667V10.5417C13.75 10.7947 13.5447 11 13.2917 11C13.0387 11 12.8333 10.7947 12.8333 10.5417V9.16667C12.8333 8.91367 13.0387 8.70833 13.2917 8.70833C13.5447 8.70833 13.75 8.91367 13.75 9.16667Z" fill="#222222"/>
</svg>
