<svg width="168" height="192" viewBox="0 0 168 192" fill="none" xmlns="http://www.w3.org/2000/svg">
<path d="M48.0014 131.52V150H36.0014C34.4101 150 32.884 150.632 31.7587 151.757C30.6335 152.883 30.0014 154.409 30.0014 156C30.0014 157.591 30.6335 159.117 31.7587 160.243C32.884 161.368 34.4101 162 36.0014 162H48.0014V174C48.0014 175.591 48.6335 177.117 49.7587 178.243C50.884 179.368 52.4101 180 54.0014 180C55.5927 180 57.1188 179.368 58.244 178.243C59.3692 177.117 60.0014 175.591 60.0014 174V162H72.0014C73.5927 162 75.1188 161.368 76.244 160.243C77.3692 159.117 78.0014 157.591 78.0014 156C78.0014 154.409 77.3692 152.883 76.244 151.757C75.1188 150.632 73.5927 150 72.0014 150H60.0014V131.52C66.4705 130.593 72.6339 128.168 78.0014 124.44C86.1845 130.059 96.0935 132.598 105.971 131.607C115.848 130.616 125.054 126.158 131.957 119.025C138.861 111.891 143.014 102.543 143.681 92.6392C144.348 82.7349 141.486 72.9146 135.601 64.92L168.001 32.46V54C168.001 55.5913 168.634 57.1174 169.759 58.2426C170.884 59.3679 172.41 60 174.001 60C175.593 60 177.119 59.3679 178.244 58.2426C179.369 57.1174 180.001 55.5913 180.001 54V18C180.001 16.4087 179.369 14.8826 178.244 13.7574C177.119 12.6321 175.593 12 174.001 12H138.001C136.41 12 134.884 12.6321 133.759 13.7574C132.634 14.8826 132.001 16.4087 132.001 18C132.001 19.5913 132.634 21.1174 133.759 22.2426C134.884 23.3679 136.41 24 138.001 24H159.541L127.141 56.4C120.076 51.117 111.527 48.1927 102.707 48.042C93.8866 47.8912 85.2427 50.5216 78.0014 55.56C72.8038 51.91 66.8462 49.4862 60.5766 48.4711C54.3071 47.456 47.889 47.876 41.8052 49.6994C35.7215 51.5229 30.1305 54.7024 25.4529 58.9986C20.7753 63.2949 17.133 68.596 14.8 74.5031C12.467 80.4103 11.5041 86.7696 11.9837 93.1027C12.4633 99.4357 14.3729 105.577 17.5689 111.066C20.7648 116.554 25.1639 121.247 30.4351 124.789C35.7063 128.332 41.7124 130.633 48.0014 131.52V131.52ZM78.0014 72C81.9812 77.1564 84.1399 83.4864 84.1399 90C84.1399 96.5136 81.9812 102.844 78.0014 108C74.0216 102.844 71.8629 96.5136 71.8629 90C71.8629 83.4864 74.0216 77.1564 78.0014 72V72ZM123.181 68.58C128.081 73.7584 130.976 80.5122 131.348 87.6311C131.72 94.7501 129.545 101.769 125.213 107.43C120.88 113.091 114.673 117.024 107.704 118.525C100.736 120.026 93.46 118.996 87.1814 115.62C92.9519 108.235 96.0867 99.1322 96.0867 89.76C96.0867 80.3878 92.9519 71.285 87.1814 63.9C92.8425 60.5612 99.4544 59.203 105.973 60.0396C112.492 60.8761 118.547 63.86 123.181 68.52V68.58ZM54.0014 60C59.2605 60.0301 64.4169 61.459 68.9414 64.14C63.1708 71.525 60.0361 80.6278 60.0361 90C60.0361 99.3722 63.1708 108.475 68.9414 115.86C64.4169 118.541 59.2605 119.97 54.0014 120C46.0449 120 38.4143 116.839 32.7882 111.213C27.1621 105.587 24.0014 97.9565 24.0014 90C24.0014 82.0435 27.1621 74.4129 32.7882 68.7868C38.4143 63.1607 46.0449 60 54.0014 60V60Z" fill="#222222"/>
</svg>
