<svg width="20" height="20" viewBox="0 0 20 20" fill="none" xmlns="http://www.w3.org/2000/svg">
<path d="M10.3118 5.72625C8.60246 5.72625 6.89371 5.52937 5.23496 5.14062C5.06684 5.10125 4.96246 4.93375 5.00184 4.765C5.04121 4.5975 5.20496 4.49312 5.37809 4.53187C8.99871 5.38062 12.8468 5.27375 16.4268 4.22062C16.5956 4.17312 16.7668 4.26625 16.815 4.43187C16.8637 4.59812 16.7693 4.77125 16.6037 4.82C14.5593 5.42125 12.4425 5.72625 10.3118 5.72625Z" fill="#222222"/>
<path d="M16.515 16.4762C16.4856 16.4762 16.4562 16.4719 16.4262 16.4631C12.4518 15.2937 8.17184 15.2937 4.19747 16.4631C4.02934 16.51 3.85747 16.4175 3.80934 16.2519C3.76059 16.0856 3.85497 15.9125 4.02059 15.8637C8.11122 14.66 12.5131 14.66 16.6037 15.8637C16.7693 15.9125 16.8637 16.0856 16.815 16.2519C16.775 16.3887 16.65 16.4762 16.515 16.4762Z" fill="#222222"/>
<path d="M9.92996 19.1494C9.86871 19.1494 9.80808 19.1319 9.75371 19.095C6.83683 17.1044 5.09558 13.8312 5.09558 10.3394C5.09558 7.51 6.20871 4.84687 8.23121 2.84062C8.35433 2.7175 8.55246 2.72 8.67308 2.84187C8.79496 2.96437 8.79371 3.1625 8.67183 3.28375C6.76871 5.17187 5.72058 7.6775 5.72058 10.3394C5.72058 13.6244 7.35996 16.705 10.1068 18.5787C10.2493 18.6756 10.2856 18.8706 10.1887 19.0131C10.1275 19.1019 10.0293 19.1494 9.92996 19.1494Z" fill="#222222"/>
<path d="M10.7207 19.1494C10.6213 19.1494 10.5232 19.1019 10.4626 19.0131C10.3657 18.87 10.4019 18.6756 10.5444 18.5788C13.2913 16.705 14.9307 13.6244 14.9307 10.3394C14.9307 7.05437 13.2913 3.97375 10.5444 2.1C10.4019 2.00312 10.3657 1.80812 10.4626 1.66562C10.5601 1.52312 10.7551 1.48812 10.8969 1.58375C13.8138 3.57437 15.5551 6.8475 15.5551 10.3394C15.5551 13.8313 13.8138 17.1044 10.8969 19.095C10.8432 19.1313 10.7819 19.1494 10.7207 19.1494Z" fill="#222222"/>
<path d="M10.3119 19.0562C10.1394 19.0562 9.99939 18.9162 9.99939 18.7437V1.935C9.99939 1.7625 10.1394 1.6225 10.3119 1.6225C10.4844 1.6225 10.6244 1.7625 10.6244 1.935V18.7437C10.6244 18.9169 10.4844 19.0562 10.3119 19.0562Z" fill="#222222"/>
<path d="M19.0287 10.6519H2.84497C2.67247 10.6519 2.53247 10.5119 2.53247 10.3394C2.53247 10.1669 2.67247 10.0269 2.84497 10.0269H19.0293C19.2018 10.0269 19.3418 10.1669 19.3418 10.3394C19.3418 10.5119 19.2018 10.6519 19.0287 10.6519Z" fill="#222222"/>
<path d="M10.3119 19.4019C5.31502 19.4019 1.24939 15.3362 1.24939 10.3394C1.24939 8.13875 2.04814 6.015 3.49939 4.36125C3.61314 4.23125 3.81001 4.21875 3.94064 4.3325C4.07001 4.44625 4.08251 4.64375 3.96939 4.77375C2.61876 6.31312 1.87439 8.29 1.87439 10.3394C1.87439 14.9919 5.65939 18.7769 10.3119 18.7769C14.9644 18.7769 18.7494 14.9919 18.7494 10.3394C18.7494 5.68687 14.9644 1.90187 10.3119 1.90187C8.38814 1.90187 6.57689 2.53187 5.07501 3.72375C4.94001 3.83125 4.74376 3.80937 4.63626 3.67312C4.52876 3.53812 4.55126 3.34187 4.68689 3.23437C6.30001 1.95375 8.24502 1.27687 10.3119 1.27687C15.3088 1.27687 19.3744 5.3425 19.3744 10.3394C19.3744 15.3362 15.3088 19.4019 10.3119 19.4019Z" fill="#222222"/>
</svg>
