<svg width="20" height="20" viewBox="0 0 20 20" fill="none" xmlns="http://www.w3.org/2000/svg">
<path d="M17.1875 8.75H10.625C10.5421 8.75 10.4626 8.71708 10.404 8.65847C10.3454 8.59987 10.3125 8.52038 10.3125 8.4375C10.3125 8.35462 10.3454 8.27513 10.404 8.21653C10.4626 8.15792 10.5421 8.125 10.625 8.125H17.1875C17.2704 8.125 17.3499 8.15792 17.4085 8.21653C17.4671 8.27513 17.5 8.35462 17.5 8.4375C17.5 8.52038 17.4671 8.59987 17.4085 8.65847C17.3499 8.71708 17.2704 8.75 17.1875 8.75Z" fill="#222222"/>
<path d="M8.75 17.8125C8.70108 17.8122 8.65291 17.8004 8.60938 17.7781L2.70625 14.8281C2.55011 14.7502 2.41883 14.6302 2.32718 14.4817C2.23553 14.3332 2.18716 14.162 2.1875 13.9875V3.125C2.1875 2.87636 2.28627 2.6379 2.46209 2.46209C2.6379 2.28627 2.87636 2.1875 3.125 2.1875H5.9375C6.02038 2.1875 6.09987 2.22042 6.15847 2.27903C6.21708 2.33763 6.25 2.41712 6.25 2.5C6.25 2.58288 6.21708 2.66237 6.15847 2.72097C6.09987 2.77958 6.02038 2.8125 5.9375 2.8125H3.54375L8.88438 5.34375C8.93755 5.36908 8.98249 5.40892 9.01401 5.45868C9.04552 5.50844 9.06233 5.5661 9.0625 5.625V17.5C9.06261 17.5531 9.04918 17.6054 9.02348 17.6518C8.99778 17.6983 8.96066 17.7375 8.91563 17.7656C8.86589 17.7964 8.80851 17.8127 8.75 17.8125ZM2.8125 3.15938V13.9875C2.8121 14.0457 2.82797 14.1029 2.85834 14.1526C2.88871 14.2023 2.93237 14.2425 2.98438 14.2688L8.4375 16.9938V5.82188L2.8125 3.15938Z" fill="#222222"/>
<path d="M14.6876 11.5625C14.6465 11.5627 14.6057 11.5549 14.5676 11.5393C14.5296 11.5237 14.4949 11.5008 14.4657 11.4719C14.4364 11.4428 14.4132 11.4083 14.3973 11.3702C14.3815 11.3321 14.3733 11.2913 14.3733 11.25C14.3733 11.2087 14.3815 11.1679 14.3973 11.1298C14.4132 11.0917 14.4364 11.0572 14.4657 11.0281L17.0595 8.4375L14.4657 5.84687C14.4366 5.81773 14.4135 5.78314 14.3977 5.74507C14.3819 5.70701 14.3738 5.6662 14.3738 5.625C14.3738 5.58379 14.3819 5.54299 14.3977 5.50492C14.4135 5.46685 14.4366 5.43226 14.4657 5.40312C14.4949 5.37399 14.5295 5.35087 14.5675 5.3351C14.6056 5.31933 14.6464 5.31122 14.6876 5.31122C14.7288 5.31122 14.7696 5.31933 14.8077 5.3351C14.8458 5.35087 14.8803 5.37399 14.9095 5.40312L17.722 8.21562C17.7513 8.24467 17.7745 8.27924 17.7904 8.31732C17.8062 8.3554 17.8144 8.39624 17.8144 8.4375C17.8144 8.47875 17.8062 8.5196 17.7904 8.55768C17.7745 8.59576 17.7513 8.63032 17.722 8.65937L14.9095 11.4719C14.8803 11.5008 14.8456 11.5237 14.8076 11.5393C14.7695 11.5549 14.7287 11.5627 14.6876 11.5625Z" fill="#222222"/>
<path d="M11.5625 14.6875H8.75C8.66712 14.6875 8.58763 14.6546 8.52903 14.596C8.47042 14.5374 8.4375 14.4579 8.4375 14.375C8.4375 14.2921 8.47042 14.2126 8.52903 14.154C8.58763 14.0954 8.66712 14.0625 8.75 14.0625H11.5625C11.6454 14.0625 11.7249 14.0296 11.7835 13.971C11.8421 13.9124 11.875 13.8329 11.875 13.75V11.25C11.875 11.1671 11.9079 11.0876 11.9665 11.029C12.0251 10.9704 12.1046 10.9375 12.1875 10.9375C12.2704 10.9375 12.3499 10.9704 12.4085 11.029C12.4671 11.0876 12.5 11.1671 12.5 11.25V13.75C12.5 13.9986 12.4012 14.2371 12.2254 14.4129C12.0496 14.5887 11.8111 14.6875 11.5625 14.6875Z" fill="#222222"/>
<path d="M12.1875 5.9375C12.1046 5.9375 12.0251 5.90458 11.9665 5.84597C11.9079 5.78737 11.875 5.70788 11.875 5.625V3.125C11.875 3.04212 11.8421 2.96263 11.7835 2.90403C11.7249 2.84542 11.6454 2.8125 11.5625 2.8125H4.6875C4.60462 2.8125 4.52513 2.77958 4.46653 2.72097C4.40792 2.66237 4.375 2.58288 4.375 2.5C4.375 2.41712 4.40792 2.33763 4.46653 2.27903C4.52513 2.22042 4.60462 2.1875 4.6875 2.1875H11.5625C11.8111 2.1875 12.0496 2.28627 12.2254 2.46209C12.4012 2.6379 12.5 2.87636 12.5 3.125V5.625C12.5 5.70788 12.4671 5.78737 12.4085 5.84597C12.3499 5.90458 12.2704 5.9375 12.1875 5.9375Z" fill="#222222"/>
</svg>
