<svg width="28" height="28" viewBox="0 0 28 28" fill="none" xmlns="http://www.w3.org/2000/svg">
<path d="M28 3.73333V0H0V3.73333H0.933333V22.4H0.466667C0.209067 22.4 0 22.6086 0 22.8667C0 23.1247 0.209067 23.3333 0.466667 23.3333H0.933333H13.5333V24.2667C13.5333 24.2886 13.5431 24.3077 13.5459 24.3292C12.7367 24.5331 12.1333 25.2611 12.1333 26.1333C12.1333 27.1628 12.9705 28 14 28C15.0295 28 15.8667 27.1628 15.8667 26.1333C15.8667 25.2611 15.2633 24.5331 14.4541 24.3292C14.4569 24.3077 14.4667 24.2886 14.4667 24.2667V23.3333H27.0667H27.5333C27.7909 23.3333 28 23.1247 28 22.8667C28 22.6086 27.7909 22.4 27.5333 22.4H27.0667V3.73333H28ZM14.9333 26.1333C14.9333 26.6481 14.5147 27.0667 14 27.0667C13.4853 27.0667 13.0667 26.6481 13.0667 26.1333C13.0667 25.6186 13.4853 25.2 14 25.2C14.5147 25.2 14.9333 25.6186 14.9333 26.1333ZM0.933333 0.933333H27.0667V2.8H0.933333V0.933333ZM26.1333 22.4H1.86667V3.73333H26.1333V22.4Z" fill="#222222"/>
<path d="M3.73327 8.86667H8.8666C9.1242 8.86667 9.33327 8.65807 9.33327 8.4C9.33327 8.14193 9.1242 7.93333 8.8666 7.93333H3.73327C3.47567 7.93333 3.2666 8.14193 3.2666 8.4C3.2666 8.65807 3.47567 8.86667 3.73327 8.86667Z" fill="#222222"/>
<path d="M3.73327 7H6.0666C6.3242 7 6.53327 6.7914 6.53327 6.53333C6.53327 6.27527 6.3242 6.06667 6.0666 6.06667H3.73327C3.47567 6.06667 3.2666 6.27527 3.2666 6.53333C3.2666 6.7914 3.47567 7 3.73327 7Z" fill="#222222"/>
<path d="M3.73327 10.7333H8.8666C9.1242 10.7333 9.33327 10.5247 9.33327 10.2667C9.33327 10.0086 9.1242 9.8 8.8666 9.8H3.73327C3.47567 9.8 3.2666 10.0086 3.2666 10.2667C3.2666 10.5247 3.47567 10.7333 3.73327 10.7333Z" fill="#222222"/>
<path d="M7.00007 14.9333C7.00007 15.1536 7.04533 15.3617 7.11533 15.5582L6.22447 16.4486C6.02847 16.3786 5.82033 16.3333 5.60007 16.3333C4.5706 16.3333 3.7334 17.1705 3.7334 18.2C3.7334 19.2295 4.5706 20.0667 5.60007 20.0667C6.62953 20.0667 7.46673 19.2295 7.46673 18.2C7.46673 17.7347 7.2894 17.3138 7.0066 16.9867L7.65293 16.3403C7.98053 16.6227 8.40146 16.8 8.86673 16.8C9.332 16.8 9.75293 16.6227 10.0801 16.3403L10.7264 16.9867C10.4441 17.3138 10.2667 17.7347 10.2667 18.2C10.2667 19.2295 11.1039 20.0667 12.1334 20.0667C13.1629 20.0667 14.0001 19.2295 14.0001 18.2C14.0001 17.8547 13.8997 17.5355 13.7355 17.2578L16.9867 14.007C17.3139 14.2893 17.7348 14.4667 18.2001 14.4667C18.6653 14.4667 19.0863 14.2893 19.4134 14.007L21.4602 16.0533C21.1774 16.3805 21.0001 16.8014 21.0001 17.2667C21.0001 18.2961 21.8373 19.1333 22.8667 19.1333C23.8962 19.1333 24.7334 18.2961 24.7334 17.2667C24.7334 16.2372 23.8962 15.4 22.8667 15.4C22.6465 15.4 22.4383 15.4453 22.2423 15.5153L19.9515 13.2249C20.0215 13.0284 20.0667 12.8203 20.0667 12.6C20.0667 11.5705 19.2295 10.7333 18.2001 10.7333C17.1706 10.7333 16.3334 11.5705 16.3334 12.6C16.3334 12.8203 16.3787 13.0284 16.4487 13.2249L13.0756 16.5979C12.7979 16.4337 12.4787 16.3333 12.1334 16.3333C11.9131 16.3333 11.705 16.3786 11.509 16.4486L10.6181 15.5582C10.6881 15.3617 10.7334 15.1536 10.7334 14.9333C10.7334 13.9039 9.8962 13.0667 8.86673 13.0667C7.83727 13.0667 7.00007 13.9039 7.00007 14.9333ZM5.60007 19.1333C5.08533 19.1333 4.66673 18.7147 4.66673 18.2C4.66673 17.6853 5.08533 17.2667 5.60007 17.2667C6.1148 17.2667 6.5334 17.6853 6.5334 18.2C6.5334 18.7147 6.1148 19.1333 5.60007 19.1333ZM23.8001 17.2667C23.8001 17.7814 23.3815 18.2 22.8667 18.2C22.352 18.2 21.9334 17.7814 21.9334 17.2667C21.9334 16.7519 22.352 16.3333 22.8667 16.3333C23.3815 16.3333 23.8001 16.7519 23.8001 17.2667ZM18.2001 11.6667C18.7148 11.6667 19.1334 12.0853 19.1334 12.6C19.1334 13.1147 18.7148 13.5333 18.2001 13.5333C17.6853 13.5333 17.2667 13.1147 17.2667 12.6C17.2667 12.0853 17.6853 11.6667 18.2001 11.6667ZM13.0667 18.2C13.0667 18.7147 12.6481 19.1333 12.1334 19.1333C11.6187 19.1333 11.2001 18.7147 11.2001 18.2C11.2001 17.6853 11.6187 17.2667 12.1334 17.2667C12.6481 17.2667 13.0667 17.6853 13.0667 18.2ZM9.80007 14.9333C9.80007 15.4481 9.38146 15.8667 8.86673 15.8667C8.352 15.8667 7.9334 15.4481 7.9334 14.9333C7.9334 14.4186 8.352 14 8.86673 14C9.38146 14 9.80007 14.4186 9.80007 14.9333Z" fill="#222222"/>
</svg>
