<svg width="32" height="32" viewBox="0 0 32 32" fill="none" xmlns="http://www.w3.org/2000/svg">
<path d="M6.70614 4.2403H26.2937C26.6321 4.2403 26.9067 4.5149 26.9067 4.85329V28.1466C26.9067 28.485 26.6321 28.7596 26.2937 28.7596H6.70614C6.36775 28.7596 6.09314 28.485 6.09314 28.1466V4.85329C6.09314 4.5149 6.36775 4.2403 6.70614 4.2403ZM10.4119 9.39261C9.60575 9.39261 9.60575 8.16662 10.4119 8.16662H16.7645C17.5709 8.16662 17.5709 9.39261 16.7645 9.39261H10.4119ZM16.2354 24.8333C15.4289 24.8333 15.4289 23.6073 16.2354 23.6073H22.588C23.3941 23.6073 23.3941 24.8333 22.588 24.8333H16.2354ZM10.4119 16.5395C9.60575 16.5395 9.60575 15.3135 10.4119 15.3135H16.7645C17.5709 15.3135 17.5709 16.5395 16.7645 16.5395H10.4119ZM10.4119 12.9661C9.60575 12.9661 9.60575 11.74 10.4119 11.74H16.7645C17.5709 11.74 17.5709 12.9661 16.7645 12.9661H10.4119ZM25.6807 5.46629H7.31914V27.5336H25.6807V5.46629Z" fill="black"/>
</svg>
