<svg width="20" height="20" viewBox="0 0 20 20" fill="none" xmlns="http://www.w3.org/2000/svg">
<path d="M11.0817 19.2518H8.95541C8.37057 19.2518 7.89475 18.7762 7.89475 18.1915V16.086C7.14197 15.8214 6.43315 15.4114 5.82533 14.8891L3.99861 15.9434C3.83822 16.0356 3.65596 16.0842 3.47115 16.0843C3.09213 16.0843 2.73963 15.8822 2.55123 15.5569L1.48729 13.7138C1.196 13.2085 1.36994 12.5595 1.87498 12.2669L3.7008 11.2139C3.62647 10.8205 3.58881 10.4193 3.58881 10.0185C3.58881 9.61785 3.62643 9.21671 3.7008 8.82324L1.87541 7.7705C1.36869 7.47691 1.19483 6.82687 1.4874 6.32113L2.55108 4.48046C2.73994 4.15441 3.09244 3.95207 3.47111 3.95207C3.65639 3.95207 3.83897 4.00117 3.99912 4.09406L5.82545 5.14664C6.43389 4.62503 7.14279 4.2155 7.89475 3.95117V1.8457C7.89475 1.26101 8.37057 0.785347 8.95541 0.785347H11.0817C11.6667 0.785347 12.1425 1.26101 12.1425 1.8457V3.95113C12.8981 4.21648 13.607 4.62589 14.2121 5.14644L16.0387 4.09367C16.1987 4.00113 16.3813 3.95207 16.5665 3.95207C16.9451 3.95207 17.2972 4.1546 17.4854 4.48062L18.5498 6.32117C18.8419 6.82808 18.6678 7.478 18.162 7.77039L16.3363 8.82331C16.4101 9.21476 16.4475 9.61593 16.4475 10.0186C16.4475 10.4244 16.4103 10.8256 16.3366 11.214L18.1618 12.2667C18.4054 12.4062 18.5806 12.6338 18.6544 12.9072C18.7286 13.1818 18.6915 13.4682 18.55 13.7137L17.4862 15.5566C17.2976 15.8822 16.9453 16.0843 16.5665 16.0843C16.3818 16.0843 16.1995 16.0357 16.0392 15.9438L14.2121 14.8891C13.6045 15.4117 12.8956 15.8212 12.1425 16.0846V18.1915C12.1425 18.7762 11.6666 19.2518 11.0817 19.2518ZM5.85772 14.3057C5.92162 14.3057 5.98502 14.3291 6.03451 14.3743C6.6651 14.9504 7.42635 15.3907 8.236 15.6476C8.34486 15.6822 8.41881 15.7833 8.41881 15.8975V18.1916C8.41881 18.4872 8.65951 18.7278 8.95537 18.7278H11.0817C11.3776 18.7278 11.6183 18.4873 11.6183 18.1916V15.8957C11.6183 15.7813 11.6925 15.6801 11.8016 15.6458C12.6114 15.3905 13.3725 14.9509 14.0025 14.3745C14.0869 14.2974 14.2114 14.2837 14.3104 14.3409L16.3005 15.4896C16.3809 15.5357 16.4731 15.5603 16.5664 15.5603C16.7589 15.5602 16.9375 15.4584 17.0325 15.2943L18.096 13.4519C18.1674 13.3281 18.1861 13.1832 18.1485 13.044C18.1112 12.906 18.0232 12.7914 17.9006 12.7212L15.9109 11.5736C15.8117 11.5164 15.7611 11.4014 15.786 11.2896C15.8772 10.8802 15.9235 10.4525 15.9235 10.0187C15.9235 9.58882 15.8772 9.16105 15.7859 8.74718C15.7613 8.63558 15.8119 8.52085 15.9109 8.46374L17.9 7.3166C18.1557 7.16882 18.2437 6.83976 18.096 6.58328L17.0316 4.74289C16.9366 4.57832 16.7585 4.47625 16.5665 4.47625C16.4734 4.47625 16.3816 4.50093 16.3009 4.54761L14.3103 5.69488C14.2114 5.75191 14.0869 5.73824 14.0026 5.66113C13.3757 5.08742 12.6146 4.64781 11.8012 4.38972C11.6924 4.35515 11.6184 4.2541 11.6184 4.13992V1.84574C11.6184 1.55007 11.3777 1.30945 11.0818 1.30945H8.95541C8.65955 1.30945 8.41885 1.55003 8.41885 1.84574V4.13984C8.41885 4.25402 8.3449 4.35507 8.23604 4.38964C7.42721 4.64625 6.66588 5.08605 6.03424 5.66148C5.94998 5.73832 5.82568 5.75175 5.72693 5.69484L3.73678 4.54785C3.6558 4.50085 3.56416 4.47621 3.47111 4.47621C3.27877 4.47621 3.10002 4.57843 3.00471 4.743L1.94111 6.58355C1.79311 6.83941 1.88131 7.16832 2.13772 7.31683L4.12635 8.46371C4.22537 8.52082 4.27596 8.6355 4.25135 8.74714C4.15951 9.16363 4.11299 9.5914 4.11299 10.0186C4.11299 10.4459 4.15955 10.8737 4.25135 11.2901C4.27596 11.4017 4.22537 11.5164 4.12639 11.5735L2.13733 12.7207C1.88225 12.8685 1.79412 13.1967 1.94131 13.452L3.00494 15.2946C3.09979 15.4583 3.2785 15.5602 3.47119 15.5602C3.56447 15.5602 3.65643 15.5357 3.73709 15.4894L5.72686 14.3409C5.7676 14.3172 5.81279 14.3057 5.85772 14.3057Z" fill="#222222"/>
<path d="M10.0191 13.1939C8.26685 13.1939 6.84131 11.7695 6.84131 10.0186C6.84131 8.26781 8.26685 6.84339 10.0191 6.84339C11.7707 6.84339 13.1958 8.26781 13.1958 10.0186C13.1958 11.7695 11.7707 13.1939 10.0191 13.1939ZM10.0191 7.36742C8.55584 7.36742 7.36541 8.55671 7.36541 10.0186C7.36541 11.4805 8.55584 12.6698 10.0191 12.6698C11.4817 12.6698 12.6717 11.4805 12.6717 10.0186C12.6717 8.55671 11.4818 7.36742 10.0191 7.36742Z" fill="#222222"/>
</svg>
