<svg width="32" height="32" viewBox="0 0 32 32" fill="none" xmlns="http://www.w3.org/2000/svg">
<path d="M15.9998 3.25171C23.0404 3.25171 28.7483 8.95959 28.7483 16.0002C28.7483 23.0408 23.0404 28.7487 15.9998 28.7487C8.95914 28.7487 3.25128 23.0408 3.25128 16.0002C3.25128 8.95959 8.95914 3.25171 15.9998 3.25171ZM4.54382 15.3627H7.24591C7.35891 12.0132 8.41653 8.33771 10.7166 5.81283C7.12491 7.67902 4.76615 11.303 4.54382 15.3627ZM8.52155 15.3627H11.0655C11.121 12.3062 11.6198 8.07945 13.2 5.36448C10.0149 7.34888 8.64837 11.8275 8.52155 15.3627ZM12.3405 15.3627H19.6591C19.6231 13.4363 18.7992 4.52643 15.9998 4.52643C13.2004 4.52643 12.3764 13.4363 12.3405 15.3627ZM20.9341 15.3627H23.478C23.3512 11.8275 21.9846 7.34888 18.7995 5.36448C20.3798 8.07945 20.8785 12.3062 20.9341 15.3627ZM24.7537 15.3627H27.4557C27.2334 11.3027 24.8746 7.67932 21.2829 5.81283C23.5834 8.33894 24.6406 12.0121 24.7537 15.3627ZM27.4557 16.6377H24.7537C24.6406 19.9884 23.5834 23.6615 21.2829 26.1876C24.8746 24.3211 27.2334 20.6977 27.4557 16.6377ZM23.478 16.6377H20.9341C20.8785 19.6942 20.3798 23.9209 18.7995 26.6359C21.9846 24.6515 23.3512 20.1729 23.478 16.6377ZM19.6591 16.6377H12.3405C12.3764 18.5641 13.2004 27.474 15.9998 27.474C18.7992 27.474 19.6231 18.5641 19.6591 16.6377ZM11.0655 16.6377H8.52155C8.64837 20.1729 10.0149 24.6515 13.2 26.6359C11.6198 23.9209 11.121 19.6942 11.0655 16.6377ZM7.24591 16.6377H4.54382C4.76615 20.6977 7.12491 24.3211 10.7166 26.1876C8.41622 23.6621 7.35891 19.9878 7.24591 16.6377Z" fill="black"/>
</svg>
