<svg width="28" height="28" viewBox="0 0 28 28" fill="none" xmlns="http://www.w3.org/2000/svg">
<path d="M8.51818 13.8848C12.1782 13.8709 16.6267 13.1273 19.9335 14.999C19.8926 14.6818 19.8517 14.3647 19.8109 14.0476C18.1525 15.7346 15.1427 15.357 12.9709 15.374C11.9705 15.3818 10.9563 15.423 9.95636 15.3958C9.23398 15.4612 8.52232 15.3977 7.82138 15.2053C7.52536 14.4545 7.76918 14.0572 8.55282 14.0132C9.33204 14.0065 9.33392 12.795 8.55282 12.8017C6.24908 12.8216 5.63447 16.1141 7.86618 16.6111C9.0796 16.8814 10.7272 16.6018 11.966 16.5928C13.3205 16.583 14.6842 16.6124 16.0363 16.5224C17.7512 16.4082 19.4233 16.1699 20.6676 14.9042C20.9376 14.6296 20.8876 14.1467 20.545 13.9528C16.9381 11.9114 12.4948 12.6581 8.51818 12.6732C7.73875 12.6762 7.73721 13.8877 8.51818 13.8848Z" fill="#222222"/>
<path d="M10.6101 15.9876C10.5616 14.8946 10.4073 13.7458 10.4788 12.6525C10.5354 11.7853 11.0074 11.6822 11.7919 11.6321C12.3919 11.5937 13.0093 11.6331 13.6111 11.6336C14.3907 11.6343 14.3919 10.4228 13.6111 10.4221C12.3509 10.421 10.4391 10.0005 9.63896 11.276C9.31831 11.7872 9.26784 12.3776 9.26664 12.9647C9.26458 13.9698 9.35403 14.9834 9.39859 15.9876C9.43305 16.7641 10.6448 16.7684 10.6101 15.9876Z" fill="#222222"/>
<path d="M7.50876 19.4409C10.3169 19.4408 13.1251 19.4407 15.9333 19.4406C16.4737 19.4406 18.627 19.185 19.0925 19.4405C20.147 20.0192 20.1204 21.7668 19.1456 22.4165C18.5059 22.8427 15.9928 22.4298 15.1947 22.4302C14.207 22.4306 13.2193 22.429 12.2316 22.4222C11.4589 22.4169 8.88516 22.804 8.28149 22.3681C7.27322 21.64 7.75765 20.0435 7.84155 18.945C7.90094 18.1674 6.68911 18.1712 6.63001 18.945C6.55452 19.9334 6.00992 22.3664 6.65425 23.2217C7.18157 23.9216 8.51046 23.5856 9.26894 23.5989C11.5732 23.6396 13.8779 23.6451 16.1824 23.6401C17.2082 23.6379 19.9084 24.18 20.7248 23.419C21.4001 22.7895 21.3466 18.8667 20.4706 18.3025C19.4911 17.6716 16.5793 18.229 15.4068 18.2291C12.7741 18.2292 10.1414 18.2293 7.50876 18.2294C6.72919 18.2294 6.7279 19.4409 7.50876 19.4409Z" fill="#222222"/>
<path d="M9.29764 21.6381C9.32397 21.9672 9.33932 22.2965 9.34372 22.6267C9.3541 23.4057 10.5657 23.4079 10.5553 22.6267C10.5509 22.2965 10.5355 21.9672 10.5092 21.6381C10.4831 21.3119 10.2494 21.0323 9.9034 21.0323C9.59586 21.0323 9.27139 21.3101 9.29764 21.6381Z" fill="#222222"/>
<path d="M13.205 21.3254C13.2154 21.7965 13.2257 22.2676 13.236 22.7387C13.2531 23.5171 14.4647 23.5199 14.4476 22.7387C14.4372 22.2676 14.4269 21.7965 14.4166 21.3254C14.3995 20.547 13.1879 20.5442 13.205 21.3254Z" fill="#222222"/>
<path d="M17.2007 21.617C17.2007 21.9311 17.2007 22.2452 17.2007 22.5593C17.2007 23.3389 18.4122 23.3402 18.4122 22.5593C18.4122 22.2452 18.4122 21.9311 18.4122 21.617C18.4122 20.8375 17.2007 20.8362 17.2007 21.617Z" fill="#222222"/>
<path d="M3.78344 1.5208C7.67351 1.51084 11.5636 1.50725 15.4537 1.51197C17.2219 1.51412 18.9901 1.51789 20.7583 1.52328C21.5984 1.52585 23.1339 1.31078 23.9411 1.53467C24.7486 1.98622 25.5561 2.43777 26.3636 2.88932C26.4444 3.49746 26.4809 4.10757 26.4731 4.71966C26.5931 8.45785 26.5361 12.2108 26.5675 15.951C26.584 17.912 26.6005 19.873 26.617 21.834C26.6228 22.5254 26.8297 23.4503 26.617 24.1177C25.8625 26.4861 24.2414 26.1433 22.5377 26.193C18.828 26.3012 15.1168 26.3569 11.4056 26.3618C9.4616 26.3643 7.51761 26.3529 5.57378 26.3275C3.17934 26.2961 1.62797 26.631 1.32372 23.7563C0.922316 19.9636 1.37542 15.8773 1.40046 12.0599C1.41209 10.2878 1.42372 8.51559 1.43534 6.74342C1.45117 4.33038 0.842466 1.63801 4.18871 1.65149C4.9684 1.65463 4.96942 0.443091 4.18871 0.439947C2.86848 0.43463 1.61653 0.120927 0.806141 1.34086C-0.12801 2.74709 0.233966 5.19463 0.223804 6.74342C0.186607 12.413 0.0815057 18.0867 0.112184 23.7563C0.118377 24.9009 -0.0935932 26.4371 1.03203 27.1851C2.37961 28.0807 5.12323 27.5357 6.63407 27.5516C12.2839 27.6113 17.9514 27.6088 23.5976 27.3723C24.9003 27.3178 26.3106 27.4375 27.1933 26.3013C28.2068 24.9968 27.8366 22.7864 27.824 21.2992C27.7763 15.6167 27.9994 9.85764 27.6802 4.18483C27.4356 -0.161211 24.4001 0.322798 20.7583 0.311746C15.1 0.294574 9.44172 0.294769 3.78344 0.309265C3.00397 0.311262 3.0025 1.5228 3.78344 1.5208Z" fill="#222222"/>
<path d="M1.02461 7.97602C9.59513 7.97602 18.1656 7.97602 26.7362 7.97602C27.5157 7.97602 27.517 6.76448 26.7362 6.76448C18.1656 6.76448 9.59513 6.76448 1.02461 6.76448C0.245046 6.76448 0.243754 7.97602 1.02461 7.97602Z" fill="#222222"/>
<path d="M23.0341 4.81255C23.8137 4.81255 23.815 3.60101 23.0341 3.60101C22.2546 3.60101 22.2533 4.81255 23.0341 4.81255Z" fill="#222222"/>
<path d="M20.2746 4.74525C21.0542 4.74525 21.0555 3.53371 20.2746 3.53371C19.495 3.53371 19.4938 4.74525 20.2746 4.74525Z" fill="#222222"/>
<path d="M17.8515 4.74525C18.6311 4.74525 18.6324 3.53371 17.8515 3.53371C17.072 3.53371 17.0707 4.74525 17.8515 4.74525Z" fill="#222222"/>
</svg>
