<svg width="72" height="20" viewBox="0 0 72 20" fill="none" xmlns="http://www.w3.org/2000/svg">
<path d="M6 3.00006C6 4.65933 4.65927 6.00006 3 6.00006C1.34073 6.00006 0 4.65933 0 3.00006C0 1.34079 1.34073 6.10352e-05 3 6.10352e-05C4.65927 6.10352e-05 6 1.34079 6 3.00006Z" fill="#31346B"/>
<path d="M6 16.0001C6 17.6546 4.65927 19.0001 3 19.0001C1.34073 19.0001 0 17.6546 0 16.0001C0 14.3408 1.34073 13.0001 3 13.0001C4.65927 13.0001 6 14.3408 6 16.0001Z" fill="#31346B"/>
<path d="M22.4995 3.27603C22.4995 4.9353 21.1588 6.27603 19.4995 6.27603C17.845 6.27603 16.4995 4.9353 16.4995 3.27603C16.4995 1.61676 17.845 0.276031 19.4995 0.276031C21.1588 0.276031 22.4995 1.61676 22.4995 3.27603Z" fill="#31346B"/>
<path d="M22.4995 16.276C22.4995 17.9305 21.1588 19.276 19.4995 19.276C17.845 19.276 16.4995 17.9305 16.4995 16.276C16.4995 14.6168 17.845 13.276 19.4995 13.276C21.1588 13.276 22.4995 14.6168 22.4995 16.276Z" fill="#31346B"/>
<path d="M38.4995 3.27603C38.4995 4.9353 37.1588 6.27603 35.4995 6.27603C33.8402 6.27603 32.4995 4.9353 32.4995 3.27603C32.4995 1.61676 33.8402 0.276031 35.4995 0.276031C37.1588 0.276031 38.4995 1.61676 38.4995 3.27603Z" fill="#31346B"/>
<path d="M38.4995 16.276C38.4995 17.9305 37.1588 19.276 35.4995 19.276C33.8402 19.276 32.4995 17.9305 32.4995 16.276C32.4995 14.6168 33.8402 13.276 35.4995 13.276C37.1588 13.276 38.4995 14.6168 38.4995 16.276Z" fill="#31346B"/>
<path d="M55.4995 3.27603C55.4995 4.9353 54.1588 6.27603 52.4995 6.27603C50.845 6.27603 49.4995 4.9353 49.4995 3.27603C49.4995 1.61676 50.845 0.276031 52.4995 0.276031C54.1588 0.276031 55.4995 1.61676 55.4995 3.27603Z" fill="#31346B"/>
<path d="M55.4995 16.276C55.4995 17.9305 54.1588 19.276 52.4995 19.276C50.845 19.276 49.4995 17.9305 49.4995 16.276C49.4995 14.6168 50.845 13.276 52.4995 13.276C54.1588 13.276 55.4995 14.6168 55.4995 16.276Z" fill="#31346B"/>
<path d="M71.4995 3.27603C71.4995 4.9353 70.1588 6.27603 68.4995 6.27603C66.8402 6.27603 65.4995 4.9353 65.4995 3.27603C65.4995 1.61676 66.8402 0.276031 68.4995 0.276031C70.1588 0.276031 71.4995 1.61676 71.4995 3.27603Z" fill="#31346B"/>
<path d="M71.4995 16.276C71.4995 17.9305 70.1588 19.276 68.4995 19.276C66.8402 19.276 65.4995 17.9305 65.4995 16.276C65.4995 14.6168 66.8402 13.276 68.4995 13.276C70.1588 13.276 71.4995 14.6168 71.4995 16.276Z" fill="#31346B"/>
</svg>
