<svg width="238" height="238" viewBox="0 0 238 238" fill="none" xmlns="http://www.w3.org/2000/svg">
<path d="M205.475 56.068C207.669 55.1478 209.23 52.8852 209.243 50.2196C209.257 46.7257 206.614 43.8824 203.337 43.8666C200.064 43.8523 197.397 46.6718 197.383 50.1641C197.371 52.855 198.942 55.1446 201.162 56.068C195.077 56.9851 192.174 60.7503 192.45 67.3619L214.028 67.4603C214.357 60.7773 211.505 56.9788 205.475 56.068Z" fill="#F5F5F5"/>
<path d="M77.9779 19.0019L63.8756 14.015L49.9098 18.9353C48.1279 19.7635 46.5635 20.2601 46.5635 21.896L46.5635 30.0388C46.5635 35.6936 48.0692 41.2977 51.1648 46.245C53.7685 50.4084 57.8034 54.694 64.0121 57.4199C69.7209 55.5936 73.9811 50.7257 76.5864 46.5623C79.682 41.6151 81.1861 36.011 81.1861 30.3561L81.1861 23.0336C81.1861 20.7012 79.9311 19.562 77.9779 19.0019Z" fill="#F5F5F5"/>
<path d="M68.5596 32.1474C68.5596 29.9912 66.8111 28.2426 64.6548 28.2426C62.4985 28.2426 60.75 29.9912 60.75 32.1474C60.75 33.9324 61.9543 35.4207 63.5901 35.8872L63.5901 41.7246L65.7194 41.7246L65.7194 35.8856C67.3553 35.4207 68.5596 33.9324 68.5596 32.1474Z" fill="#EBEBEB"/>
<path d="M197.891 94.4828L200.297 95.7839L199.215 97.5943L196.789 96.1599L196.833 98.8303L194.758 98.8303L194.78 96.1377L192.354 97.5943L191.294 95.7839L193.699 94.4828L191.294 93.1595L192.354 91.3492L194.78 92.8057L194.758 90.1131L196.833 90.1131L196.789 92.8057L199.215 91.3492L200.297 93.1595L197.891 94.4828Z" fill="#E0E0E0"/>
<path d="M207.908 94.4828L210.311 95.7839L209.231 97.5943L206.803 96.1599L206.848 98.8303L204.774 98.8303L204.796 96.1377L202.368 97.5943L201.309 95.7839L203.714 94.4828L201.309 93.1595L202.368 91.3492L204.796 92.8057L204.774 90.1131L206.848 90.1131L206.803 92.8057L209.231 91.3492L210.311 93.1595L207.908 94.4828Z" fill="#E0E0E0"/>
<path d="M217.923 94.4828L220.328 95.7839L219.247 97.5943L216.82 96.1599L216.864 98.8303L214.79 98.8303L214.813 96.1377L212.385 97.5943L211.325 95.7839L213.731 94.4828L211.325 93.1595L212.385 91.3492L214.813 92.8057L214.79 90.1131L216.864 90.1131L216.82 92.8057L219.247 91.3492L220.328 93.1595L217.923 94.4828Z" fill="#E0E0E0"/>
<path d="M116.017 208.418L116.017 223.204L137.64 223.204L161.487 223.204L161.487 208.418L116.017 208.418Z" fill="#F5F5F5"/>
<path d="M114.109 204.285L114.109 208.418L163.077 208.418L163.077 204.285L137.64 204.285L114.109 204.285Z" fill="#EBEBEB"/>
<path d="M138.593 223.204L161.487 223.204L161.487 208.418L163.077 208.418L163.077 204.285L137.64 204.285L137.64 208.036L138.593 223.204Z" fill="#EBEBEB"/>
<path d="M122.377 210.803L122.377 213.029L131.597 213.029L131.597 210.803L122.377 210.803Z" fill="#E0E0E0"/>
<path d="M133.03 220.512L121.19 220.512L121.19 215.812L133.03 215.812L133.03 220.512Z" fill="white"/>
<path d="M123.012 189.519L123.012 204.305L144.635 204.305L168.482 204.305L168.482 189.519L123.012 189.519Z" fill="#F5F5F5"/>
<path d="M121.104 185.384L121.104 189.519L170.072 189.519L170.072 185.384L144.635 185.384L121.104 185.384Z" fill="#EBEBEB"/>
<path d="M145.588 204.306L168.482 204.306L168.482 189.519L170.072 189.519L170.072 185.384L144.635 185.384L144.635 189.137L145.588 204.306Z" fill="#EBEBEB"/>
<path d="M129.373 191.904L129.373 194.129L138.593 194.129L138.593 191.904L129.373 191.904Z" fill="#E0E0E0"/>
<path d="M140.025 201.611L128.186 201.611L128.186 196.912L140.025 196.912L140.025 201.611Z" fill="white"/>
<path d="M220.897 223.319C220.897 223.387 175.273 223.442 119.005 223.442C62.7176 223.442 17.1025 223.387 17.1025 223.319C17.1025 223.25 62.7176 223.195 119.005 223.195C175.273 223.195 220.897 223.25 220.897 223.319Z" fill="#263238"/>
<path d="M178.836 107.46L93.8068 107.46C92.082 107.46 90.6826 106.062 90.6826 104.338L90.6826 26.107C90.6826 24.3823 92.082 22.9845 93.8068 22.9845L178.836 22.9845C180.561 22.9845 181.959 24.3823 181.959 26.107L181.959 104.338C181.959 106.062 180.561 107.46 178.836 107.46Z" fill="white"/>
<path d="M178.837 107.46C178.887 107.455 178.962 107.449 179.062 107.443C179.209 107.432 179.432 107.401 179.714 107.319C179.995 107.232 180.338 107.089 180.685 106.827C181.031 106.567 181.39 106.189 181.631 105.667C181.9 105.153 181.956 104.503 181.929 103.792C181.927 103.081 181.924 102.302 181.923 101.459C181.919 99.7744 181.916 97.8291 181.912 95.6395C181.902 86.8795 181.889 74.2068 181.872 58.5496C181.867 50.7194 181.862 42.1435 181.858 32.936C181.853 30.6369 181.848 28.2982 181.843 25.9214C181.789 24.7679 180.993 23.6842 179.89 23.2859C179.344 23.0574 178.746 23.0939 178.134 23.0939C177.524 23.0939 176.914 23.0939 176.301 23.0939C171.397 23.0955 166.35 23.0971 161.174 23.0987C140.469 23.1019 117.707 23.105 93.8151 23.1082C93.0947 23.1098 92.3839 23.3732 91.8444 23.8428C91.3002 24.3077 90.9353 24.9757 90.8417 25.6818C90.7925 26.0308 90.8115 26.4053 90.8068 26.7766L90.8068 27.8872C90.8068 28.6266 90.8068 29.366 90.8068 30.1038C90.8068 33.0534 90.8068 35.984 90.8068 38.894C90.8068 44.7123 90.8052 50.4465 90.8052 56.0807C90.802 67.3477 90.8004 78.2163 90.7972 88.5709C90.7956 93.7466 90.7941 98.7954 90.7925 103.7C90.7956 104.004 90.7845 104.319 90.8052 104.607C90.8385 104.901 90.8972 105.191 91.0114 105.463C91.2304 106.008 91.6128 106.483 92.092 106.816C92.5711 107.148 93.1455 107.336 93.7246 107.349C94.3228 107.351 94.9194 107.352 95.5128 107.354C97.8928 107.355 100.233 107.357 102.535 107.357C111.743 107.363 120.319 107.368 128.149 107.373C143.806 107.389 156.477 107.403 165.237 107.413C169.613 107.422 173.012 107.43 175.321 107.435C176.471 107.441 177.35 107.444 177.943 107.447C178.337 107.451 178.635 107.454 178.837 107.46C178.635 107.467 178.337 107.47 177.943 107.473C177.35 107.476 176.471 107.479 175.321 107.486C173.012 107.49 169.613 107.498 165.237 107.508C156.477 107.517 143.806 107.532 128.149 107.547C120.319 107.552 111.743 107.557 102.535 107.563C100.233 107.563 97.8928 107.565 95.5128 107.566C94.9178 107.565 94.3196 107.563 93.7199 107.563C93.0995 107.549 92.4839 107.348 91.9698 106.992C91.4557 106.635 91.0463 106.129 90.8099 105.543C90.6893 105.253 90.6243 104.941 90.5894 104.628C90.5656 104.307 90.5783 104.009 90.5751 103.7C90.5735 98.7954 90.5719 93.7466 90.5688 88.5709C90.5672 78.2163 90.564 67.3477 90.5624 56.0807C90.5608 50.4465 90.5608 44.7123 90.5608 38.894C90.5608 35.984 90.5592 33.0534 90.5592 30.1038C90.5592 29.366 90.5592 28.6266 90.5592 27.8872L90.5592 26.7766C90.564 26.4069 90.5418 26.0356 90.5957 25.6469C90.6989 24.8821 91.0924 24.1586 91.6826 23.6556C92.2665 23.1463 93.0376 22.8607 93.8151 22.8607C117.707 22.8639 140.469 22.867 161.174 22.8702C166.35 22.8718 171.397 22.875 176.301 22.8766C176.914 22.8766 177.524 22.8766 178.134 22.8766C178.729 22.8781 179.378 22.8401 179.965 23.0844C181.147 23.5112 181.997 24.6742 182.056 25.9087C182.058 28.2903 182.061 30.6322 182.062 32.936C182.058 42.1435 182.051 50.7194 182.048 58.5496C182.031 74.2068 182.018 86.8795 182.008 95.6395C182.004 97.8291 182 99.7744 181.996 101.459C181.994 102.302 181.992 103.081 181.991 103.792C182.015 104.498 181.954 105.172 181.677 105.689C181.428 106.216 181.06 106.597 180.707 106.857C180.353 107.119 180.004 107.26 179.722 107.344C179.436 107.422 179.211 107.449 179.062 107.455C178.962 107.459 178.887 107.46 178.837 107.46Z" fill="#263238"/>
<path d="M97.5719 28.8393C97.5719 29.7103 96.8642 30.418 95.9932 30.418C95.1221 30.418 94.416 29.7103 94.416 28.8393C94.416 27.9682 95.1221 27.2621 95.9932 27.2621C96.8642 27.2621 97.5719 27.9682 97.5719 28.8393Z" fill="#263238"/>
<path d="M102.18 28.8393C102.18 29.7103 101.474 30.418 100.603 30.418C99.7321 30.418 99.0244 29.7103 99.0244 28.8393C99.0244 27.9682 99.7321 27.2621 100.603 27.2621C101.474 27.2621 102.18 27.9682 102.18 28.8393Z" fill="#263238"/>
<path d="M106.79 28.8393C106.79 29.7103 106.084 30.418 105.213 30.418C104.34 30.418 103.634 29.7103 103.634 28.8393C103.634 27.9682 104.34 27.2621 105.213 27.2621C106.084 27.2621 106.79 27.9682 106.79 28.8393Z" fill="#263238"/>
<path d="M181.959 33.3153C181.959 33.3851 161.524 33.4406 136.323 33.4406C111.113 33.4406 90.6826 33.3851 90.6826 33.3153C90.6826 33.247 111.113 33.1915 136.323 33.1915C161.524 33.1915 181.959 33.247 181.959 33.3153Z" fill="#263238"/>
<path d="M149.215 65.1374C149.239 65.1041 149.276 65.0549 149.325 64.9914C149.342 64.9676 149.363 64.9407 149.387 64.9105C149.407 64.8788 149.425 64.8423 149.448 64.8042C149.491 64.7265 149.547 64.6376 149.586 64.5266C149.609 64.4726 149.634 64.4155 149.656 64.3536C149.674 64.2901 149.691 64.2235 149.71 64.1521C149.734 64.0839 149.745 64.0077 149.758 63.93C149.767 63.8506 149.788 63.7713 149.791 63.684C149.828 63.3413 149.805 62.9415 149.737 62.5004C149.601 61.615 149.225 60.571 148.65 59.4381C148.076 58.3021 147.286 57.0803 146.315 55.8062C145.342 54.5321 144.174 53.2168 142.832 51.8951C141.488 50.575 139.967 49.2485 138.261 47.9935C137.407 47.3652 136.508 46.7575 135.559 46.1847C134.61 45.6103 133.61 45.074 132.557 44.6107C131.502 44.1522 130.389 43.7523 129.217 43.5635C128.631 43.4731 128.028 43.4302 127.435 43.5191C127.14 43.5651 126.85 43.646 126.575 43.7682C126.305 43.8999 126.058 44.076 125.853 44.2966C125.656 44.525 125.509 44.7916 125.409 45.074C125.318 45.3596 125.271 45.6579 125.258 45.9578C125.236 46.5576 125.349 47.151 125.504 47.7222C125.826 48.8662 126.35 49.9276 126.924 50.9225C127.505 51.9173 128.151 52.8503 128.83 53.7261C129.507 54.6035 130.215 55.4286 130.935 56.2061C132.377 57.7578 133.867 59.1192 135.332 60.3044C136.798 61.4881 138.239 62.4988 139.614 63.3191C140.99 64.1378 142.294 64.7852 143.489 65.2247C144.681 65.6674 145.759 65.9212 146.654 65.9561C147.1 65.9752 147.5 65.9514 147.836 65.8752C147.922 65.8641 148 65.834 148.076 65.8149C148.154 65.7943 148.227 65.7737 148.293 65.7435C148.36 65.7166 148.423 65.6896 148.485 65.6658C148.544 65.6372 148.598 65.6039 148.65 65.5769C148.757 65.5246 148.838 65.4595 148.909 65.4072C148.945 65.3802 148.98 65.358 149.009 65.3342C149.036 65.3072 149.06 65.285 149.082 65.2628C149.139 65.2072 149.185 65.166 149.215 65.1374C149.187 65.1676 149.144 65.212 149.087 65.2691C149.064 65.2897 149.041 65.3135 149.014 65.3405C148.985 65.3659 148.952 65.3881 148.915 65.4151C148.844 65.469 148.763 65.5357 148.657 65.5896C148.604 65.6182 148.55 65.6499 148.492 65.6801C148.431 65.7055 148.366 65.7308 148.3 65.7594C148.233 65.7895 148.158 65.8118 148.082 65.8324C148.005 65.853 147.927 65.8832 147.841 65.8959C147.503 65.9752 147.102 66.0006 146.653 65.9847C145.753 65.953 144.671 65.7023 143.475 65.2628C142.277 64.8233 140.969 64.1791 139.589 63.3619C138.209 62.5432 136.765 61.5325 135.295 60.3489C133.828 59.1652 132.333 57.8038 130.888 56.2505C130.166 55.473 129.456 54.6464 128.777 53.7674C128.097 52.8899 127.448 51.9554 126.865 50.9574C126.288 49.9578 125.761 48.8947 125.437 47.7412C125.28 47.1652 125.166 46.5655 125.188 45.9546C125.199 45.65 125.249 45.3453 125.342 45.0518C125.445 44.7614 125.598 44.487 125.801 44.2505C126.012 44.0205 126.269 43.8396 126.545 43.7047C126.827 43.5794 127.124 43.4969 127.426 43.4509C128.028 43.3588 128.638 43.4033 129.228 43.4937C130.41 43.6857 131.527 44.0871 132.584 44.5472C133.642 45.0137 134.643 45.55 135.592 46.1276C136.544 46.7019 137.445 47.3112 138.299 47.9411C140.006 49.2009 141.529 50.5306 142.873 51.8538C144.216 53.1787 145.383 54.4988 146.354 55.7761C147.324 57.0534 148.112 58.2798 148.685 59.4207C149.258 60.5583 149.631 61.6055 149.764 62.4956C149.831 62.9399 149.851 63.3413 149.812 63.6856C149.809 63.7729 149.786 63.8538 149.775 63.9331C149.764 64.0125 149.751 64.0871 149.728 64.1569C149.709 64.2283 149.69 64.2949 149.671 64.3584C149.648 64.4203 149.621 64.4774 149.599 64.5329C149.56 64.644 149.502 64.7312 149.456 64.809C149.434 64.8487 149.415 64.8851 149.393 64.9153C149.371 64.9454 149.348 64.9724 149.329 64.9962C149.28 65.0597 149.242 65.1073 149.215 65.1374Z" fill="#FF725E"/>
<path d="M153.536 54.7083C153.531 54.667 153.527 54.6051 153.52 54.5258C153.519 54.4957 153.515 54.4623 153.512 54.4243C153.508 54.3878 153.496 54.3465 153.488 54.3037C153.469 54.2164 153.452 54.1133 153.406 54.0038C153.387 53.9483 153.368 53.8896 153.343 53.8277C153.314 53.769 153.282 53.7071 153.25 53.642C153.222 53.5754 153.181 53.5119 153.136 53.4453C153.092 53.3802 153.054 53.3057 152.998 53.239C152.798 52.9582 152.514 52.6758 152.17 52.3917C151.478 51.8221 150.504 51.2938 149.32 50.8305C148.135 50.364 146.732 49.9784 145.16 49.6754C143.588 49.3707 141.839 49.166 139.957 49.074C138.076 48.9836 136.057 49.0074 133.949 49.2057C132.895 49.3057 131.818 49.4501 130.728 49.6547C129.638 49.8562 128.537 50.1228 127.44 50.4782C126.349 50.8384 125.252 51.2795 124.251 51.9205C123.754 52.241 123.275 52.6107 122.893 53.0724C122.702 53.3041 122.539 53.5579 122.417 53.8308C122.303 54.1085 122.234 54.4052 122.23 54.7067C122.234 55.0082 122.303 55.3033 122.415 55.5809C122.537 55.8554 122.701 56.1093 122.891 56.341C123.274 56.8027 123.753 57.1724 124.249 57.4945C125.251 58.1355 126.347 58.5766 127.439 58.9367C128.535 59.2922 129.638 59.5587 130.728 59.7618C131.818 59.9649 132.894 60.1109 133.949 60.2108C136.059 60.4076 138.077 60.4314 139.959 60.3409C141.841 60.2489 143.588 60.0442 145.162 59.7412C146.734 59.4365 148.137 59.051 149.32 58.5845C150.504 58.1212 151.478 57.5928 152.17 57.0232C152.516 56.7392 152.798 56.4568 152.998 56.1759C153.054 56.1093 153.092 56.0363 153.136 55.9697C153.181 55.903 153.222 55.8396 153.25 55.7729C153.282 55.7079 153.314 55.646 153.343 55.5873C153.368 55.527 153.387 55.4667 153.406 55.4112C153.452 55.3017 153.469 55.2001 153.488 55.1113C153.496 55.0684 153.508 55.0288 153.512 54.9907C153.515 54.9542 153.519 54.9209 153.52 54.8907C153.527 54.8098 153.531 54.7495 153.536 54.7083C153.536 54.7495 153.533 54.8098 153.528 54.8907C153.525 54.9209 153.523 54.9542 153.522 54.9923C153.517 55.0304 153.506 55.07 153.498 55.1145C153.481 55.2017 153.465 55.3049 153.42 55.4159C153.4 55.4715 153.382 55.5318 153.357 55.5936C153.328 55.6523 153.298 55.7158 153.266 55.7809C153.238 55.8491 153.197 55.9126 153.154 55.9808C153.109 56.0458 153.071 56.122 153.016 56.1886C152.816 56.4711 152.533 56.7582 152.187 57.0454C151.496 57.6198 150.52 58.1545 149.335 58.621C148.149 59.0922 146.745 59.481 145.17 59.7888C143.596 60.0966 141.846 60.3045 139.961 60.3997C138.077 60.4933 136.056 60.4711 133.942 60.2759C132.886 60.1759 131.807 60.0315 130.715 59.8269C129.623 59.6254 128.518 59.3588 127.418 59.0034C126.322 58.6416 125.22 58.1989 124.211 57.5532C123.712 57.2279 123.226 56.8566 122.837 56.3854C122.642 56.1506 122.477 55.8903 122.35 55.6095C122.234 55.3239 122.165 55.0177 122.158 54.7067C122.165 54.3941 122.234 54.0895 122.352 53.8039C122.477 53.5214 122.645 53.2628 122.839 53.028C123.229 52.5583 123.713 52.1855 124.213 51.8618C125.224 51.216 126.323 50.7733 127.42 50.4132C128.519 50.0562 129.623 49.7912 130.715 49.5881C131.808 49.385 132.887 49.239 133.942 49.1407C136.056 48.9439 138.077 48.9233 139.961 49.0153C141.846 49.1105 143.594 49.3184 145.17 49.6262C146.744 49.934 148.148 50.3243 149.335 50.794C150.52 51.262 151.496 51.7952 152.187 52.3711C152.533 52.6567 152.816 52.9439 153.016 53.2263C153.071 53.293 153.109 53.3691 153.154 53.4358C153.197 53.5024 153.238 53.5675 153.266 53.6341C153.298 53.7007 153.328 53.7626 153.357 53.8229C153.382 53.8832 153.4 53.9435 153.42 53.999C153.465 54.1101 153.481 54.2132 153.498 54.3021C153.506 54.3449 153.517 54.3862 153.522 54.4227C153.523 54.4608 153.525 54.4941 153.528 54.5242C153.533 54.6051 153.536 54.667 153.536 54.7083Z" fill="#FF725E"/>
<path d="M147.811 41.7246C147.776 41.7024 147.724 41.669 147.657 41.6246C147.632 41.6088 147.603 41.5897 147.572 41.5691C147.54 41.5516 147.502 41.5342 147.462 41.5151C147.381 41.4771 147.289 41.4279 147.175 41.3961C147.119 41.3787 147.061 41.3565 146.997 41.339C146.932 41.3247 146.866 41.312 146.794 41.2978C146.723 41.2803 146.648 41.2724 146.569 41.266C146.49 41.2613 146.407 41.2454 146.321 41.2502C145.977 41.2359 145.579 41.2867 145.144 41.385C144.27 41.5834 143.254 42.0292 142.163 42.6813C141.069 43.3319 139.905 44.2045 138.701 45.2613C137.498 46.318 136.265 47.573 135.039 49.0042C133.815 50.4354 132.597 52.0459 131.461 53.834C130.894 54.7289 130.35 55.6682 129.842 56.6535C129.334 57.6389 128.87 58.6734 128.479 59.7571C128.095 60.8408 127.773 61.9784 127.665 63.1621C127.616 63.7507 127.613 64.3552 127.745 64.9407C127.81 65.2327 127.91 65.5183 128.052 65.7816C128.202 66.0419 128.394 66.2767 128.628 66.4655C128.87 66.6464 129.146 66.7749 129.434 66.8558C129.726 66.9272 130.026 66.9542 130.326 66.9447C130.926 66.9256 131.511 66.7733 132.07 66.5781C133.19 66.1783 134.21 65.5833 135.164 64.9407C136.117 64.2933 137.003 63.5841 137.831 62.8463C138.659 62.1101 139.434 61.3485 140.159 60.5758C141.607 59.0304 142.862 57.45 143.945 55.9078C145.025 54.364 145.934 52.8566 146.658 51.4271C147.38 49.9975 147.935 48.6536 148.292 47.4318C148.652 46.2117 148.831 45.1185 148.804 44.222C148.792 43.7761 148.741 43.3795 148.643 43.0479C148.624 42.9638 148.589 42.8892 148.563 42.813C148.538 42.7385 148.513 42.6671 148.478 42.602C148.446 42.537 148.416 42.4751 148.387 42.4164C148.354 42.3592 148.319 42.3085 148.287 42.2577C148.229 42.1562 148.159 42.0784 148.1 42.0102C148.071 41.9769 148.046 41.9435 148.021 41.9166C147.992 41.8912 147.968 41.869 147.945 41.8483C147.886 41.7944 147.841 41.7531 147.811 41.7246C147.843 41.75 147.889 41.7896 147.951 41.8436C147.973 41.8626 147.998 41.8864 148.027 41.9102C148.054 41.9372 148.079 41.9689 148.108 42.0038C148.168 42.0705 148.24 42.1482 148.3 42.2498C148.332 42.3005 148.368 42.3513 148.401 42.4084C148.43 42.4671 148.462 42.529 148.493 42.5957C148.53 42.6591 148.555 42.7321 148.582 42.8067C148.606 42.8829 148.643 42.9574 148.662 43.0431C148.763 43.3747 148.817 43.773 148.831 44.222C148.863 45.1216 148.687 46.2196 148.33 47.4429C147.975 48.6678 147.422 50.0165 146.702 51.4493C145.98 52.8836 145.073 54.3925 143.992 55.9411C142.912 57.4865 141.657 59.0716 140.206 60.6202C139.481 61.3945 138.705 62.1593 137.875 62.8971C137.046 63.6365 136.159 64.3473 135.204 64.9978C134.247 65.6436 133.222 66.2418 132.094 66.6448C131.53 66.8399 130.939 66.9954 130.328 67.0145C130.023 67.024 129.717 66.997 129.417 66.924C129.119 66.8415 128.835 66.7083 128.586 66.5226C128.343 66.3259 128.144 66.0831 127.991 65.8165C127.845 65.5452 127.743 65.2533 127.675 64.9566C127.543 64.36 127.545 63.7491 127.595 63.1557C127.705 61.9625 128.029 60.8201 128.414 59.7333C128.806 58.6464 129.274 57.6103 129.783 56.6234C130.291 55.6349 130.837 54.694 131.407 53.7991C132.546 52.0094 133.768 50.3989 134.994 48.9661C136.224 47.535 137.46 46.2799 138.669 45.2232C139.876 44.168 141.046 43.297 142.144 42.6464C143.238 41.9975 144.259 41.5532 145.138 41.3581C145.576 41.2613 145.975 41.2137 146.321 41.228C146.409 41.2264 146.491 41.2422 146.57 41.247C146.65 41.2549 146.726 41.2613 146.797 41.2803C146.869 41.2946 146.937 41.3089 147.002 41.3232C147.065 41.3422 147.124 41.3644 147.18 41.3819C147.294 41.4152 147.386 41.466 147.467 41.5056C147.507 41.5262 147.545 41.5421 147.576 41.5612C147.608 41.5834 147.635 41.6024 147.66 41.6199C147.727 41.6643 147.778 41.6992 147.811 41.7246Z" fill="#FF725E"/>
<path d="M122.023 61.1755C122.25 61.4024 122.25 61.7721 122.023 61.999C121.796 62.2259 121.428 62.2259 121.199 61.999C120.973 61.7721 120.973 61.4024 121.199 61.1755C121.428 60.9486 121.796 60.9486 122.023 61.1755Z" fill="#FF725E"/>
<path d="M154.861 43.1415C154.861 43.462 154.601 43.7222 154.279 43.7222C153.958 43.7222 153.696 43.462 153.696 43.1415C153.696 42.8194 153.958 42.5592 154.279 42.5592C154.601 42.5592 154.861 42.8194 154.861 43.1415Z" fill="#FF725E"/>
<path d="M125.699 63.0891C125.699 63.1716 125.632 63.2366 125.55 63.2366C125.469 63.2366 125.402 63.1716 125.402 63.0891C125.402 63.0081 125.469 62.9415 125.55 62.9415C125.632 62.9415 125.699 63.0081 125.699 63.0891Z" fill="#FF725E"/>
<path d="M128.856 46.7813C128.856 46.8622 128.789 46.9288 128.708 46.9288C128.627 46.9288 128.561 46.8622 128.561 46.7813C128.561 46.6988 128.627 46.6321 128.708 46.6321C128.789 46.6321 128.856 46.6988 128.856 46.7813Z" fill="#FF725E"/>
<path d="M151.936 54.7083C151.936 54.7892 151.871 54.8558 151.788 54.8558C151.707 54.8558 151.641 54.7892 151.641 54.7083C151.641 54.6258 151.707 54.5591 151.788 54.5591C151.871 54.5591 151.936 54.6258 151.936 54.7083Z" fill="#FF725E"/>
<path d="M153.993 47.8126C153.993 47.8935 153.926 47.9602 153.845 47.9602C153.763 47.9602 153.696 47.8935 153.696 47.8126C153.696 47.7301 153.763 47.6635 153.845 47.6635C153.926 47.6635 153.993 47.7301 153.993 47.8126Z" fill="#FF725E"/>
<path d="M144.023 57.9594L142.194 57.9594L142.194 48.0046C142.194 45.6611 140.288 43.7539 137.945 43.7539C135.601 43.7539 133.696 45.6611 133.696 48.0046L133.696 57.9594L131.866 57.9594L131.866 48.0046C131.866 44.652 134.594 41.9261 137.945 41.9261C141.296 41.9261 144.023 44.652 144.023 48.0046L144.023 57.9594Z" fill="#FF725E"/>
<g opacity="0.302">
<g opacity="0.302">
<g opacity="0.302">
<path opacity="0.302" d="M144.023 57.9594L142.194 57.9594L142.194 48.0046C142.194 45.6611 140.288 43.7539 137.945 43.7539C135.601 43.7539 133.696 45.6611 133.696 48.0046L133.696 57.9594L131.866 57.9594L131.866 48.0046C131.866 44.652 134.594 41.9261 137.945 41.9261C141.296 41.9261 144.023 44.652 144.023 48.0046L144.023 57.9594Z" fill="black"/>
</g>
</g>
</g>
<path d="M145.064 64.0427L130.826 64.0427C130.232 64.0427 129.753 63.5635 129.753 62.9701L129.753 54.6036C129.753 54.0117 130.232 53.531 130.826 53.531L145.064 53.531C145.658 53.531 146.137 54.0117 146.137 54.6036L146.137 62.9701C146.137 63.5635 145.658 64.0427 145.064 64.0427Z" fill="#FF725E"/>
<g opacity="0.302">
<g opacity="0.302">
<path opacity="0.302" d="M139.314 57.4183C139.314 56.6615 138.701 56.0474 137.944 56.0474C137.188 56.0474 136.575 56.6615 136.575 57.4183C136.575 58.0435 136.997 58.5655 137.572 58.7289L137.572 60.7757L138.317 60.7757L138.317 58.7289C138.892 58.5655 139.314 58.0435 139.314 57.4183Z" fill="black"/>
</g>
</g>
<path d="M130.627 63.0462C130.589 63.0462 130.559 61.2929 130.559 59.1303C130.559 56.9677 130.589 55.216 130.627 55.216C130.663 55.216 130.695 56.9677 130.695 59.1303C130.695 61.2929 130.663 63.0462 130.627 63.0462Z" fill="#FAFAFA"/>
<path d="M136.872 59.1731C136.868 59.1795 136.809 59.1509 136.712 59.0827C136.615 59.0129 136.487 58.8939 136.358 58.7225C136.103 58.3878 135.87 57.7785 136.022 57.1216C136.181 56.4663 136.663 56.0268 137.041 55.8427C137.233 55.746 137.401 55.6984 137.518 55.6793C137.636 55.6603 137.701 55.6619 137.702 55.6698C137.707 55.6952 137.442 55.7206 137.087 55.9268C136.738 56.1236 136.301 56.5472 136.154 57.1533C136.014 57.7594 136.214 58.3338 136.438 58.667C136.663 59.0113 136.89 59.1525 136.872 59.1731Z" fill="#FAFAFA"/>
<path d="M162.27 82.467L111.823 82.467C109.374 82.467 107.389 80.4805 107.389 78.0323L107.389 77.4865C107.389 75.0366 109.374 73.0501 111.823 73.0501L162.27 73.0501C164.72 73.0501 166.705 75.0366 166.705 77.4865L166.705 78.0323C166.705 80.4805 164.72 82.467 162.27 82.467Z" fill="#F5F5F5"/>
<path d="M162.706 95.3777L112.26 95.3777C109.81 95.3777 107.825 93.3928 107.825 90.943L107.825 90.3972C107.825 87.9473 109.81 85.9624 112.26 85.9624L162.706 85.9624C165.156 85.9624 167.141 87.9473 167.141 90.3972L167.141 90.943C167.141 93.3928 165.156 95.3777 162.706 95.3777Z" fill="#F5F5F5"/>
<path d="M116.763 77.6848L116.763 76.3203L117.328 76.3203L117.328 77.6642C117.328 78.1275 117.529 78.3179 117.87 78.3179C118.214 78.3179 118.413 78.1275 118.413 77.6642L118.413 76.3203L118.97 76.3203L118.97 77.6848C118.97 78.402 118.559 78.7986 117.867 78.7986C117.174 78.7986 116.763 78.402 116.763 77.6848Z" fill="#263238"/>
<path d="M119.308 78.5828L119.489 78.1925C119.655 78.3004 119.909 78.3734 120.137 78.3734C120.388 78.3734 120.482 78.3068 120.482 78.2036C120.482 77.8974 119.352 78.21 119.352 77.4627C119.352 77.1072 119.673 76.8566 120.218 76.8566C120.475 76.8566 120.761 76.9153 120.939 77.02L120.758 77.4071C120.574 77.3024 120.388 77.2675 120.218 77.2675C119.976 77.2675 119.871 77.3437 119.871 77.442C119.871 77.7609 121.001 77.4516 121.001 78.1894C121.001 78.5368 120.679 78.7844 120.117 78.7844C119.801 78.7844 119.481 78.6971 119.308 78.5828Z" fill="#263238"/>
<path fill-rule="evenodd" clip-rule="evenodd" d="M123.159 77.9736L121.742 77.9736C121.794 78.2068 121.993 78.3496 122.278 78.3496C122.477 78.3496 122.62 78.2893 122.748 78.1687L123.037 78.4813C122.862 78.6796 122.602 78.7844 122.264 78.7844C121.617 78.7844 121.196 78.3766 121.196 77.8197C121.196 77.2596 121.625 76.8566 122.194 76.8566C122.745 76.8566 123.169 77.2262 123.169 77.8276C123.169 77.8688 123.162 77.9276 123.159 77.9736ZM121.736 77.6562L122.658 77.6562C122.62 77.4198 122.442 77.2675 122.199 77.2675C121.952 77.2675 121.774 77.4166 121.736 77.6562Z" fill="#263238"/>
<path d="M124.693 76.8566L124.693 77.3579C124.647 77.3548 124.612 77.3516 124.571 77.3516C124.271 77.3516 124.073 77.5134 124.073 77.872L124.073 78.7558L123.53 78.7558L123.53 76.8851L124.049 76.8851L124.049 77.131C124.181 76.9502 124.405 76.8566 124.693 76.8566Z" fill="#263238"/>
<path d="M126.93 77.6848L126.93 78.7558L126.387 78.7558L126.387 77.7689C126.387 77.4658 126.248 77.3262 126.008 77.3262C125.746 77.3262 125.559 77.4865 125.559 77.8308L125.559 78.7558L125.017 78.7558L125.017 76.8851L125.534 76.8851L125.534 77.1041C125.68 76.9438 125.9 76.8566 126.154 76.8566C126.595 76.8566 126.93 77.1136 126.93 77.6848Z" fill="#263238"/>
<path fill-rule="evenodd" clip-rule="evenodd" d="M129.077 77.688L129.077 78.7558L128.569 78.7558L128.569 78.5226C128.467 78.6939 128.272 78.7844 127.998 78.7844C127.56 78.7844 127.298 78.54 127.298 78.2163C127.298 77.8863 127.531 77.6562 128.102 77.6562L128.534 77.6562C128.534 77.4246 128.394 77.2881 128.102 77.2881C127.904 77.2881 127.699 77.3548 127.563 77.4627L127.368 77.0834C127.572 76.9375 127.875 76.8566 128.175 76.8566C128.745 76.8566 129.077 77.1215 129.077 77.688ZM128.534 78.1656L128.534 77.9736L128.161 77.9736C127.907 77.9736 127.828 78.0672 127.828 78.1925C127.828 78.329 127.942 78.4194 128.132 78.4194C128.313 78.4194 128.47 78.3353 128.534 78.1656Z" fill="#263238"/>
<path d="M132.73 77.6848L132.73 78.7558L132.187 78.7558L132.187 77.7689C132.187 77.4658 132.052 77.3262 131.832 77.3262C131.589 77.3262 131.419 77.4833 131.419 77.8165L131.419 78.7558L130.875 78.7558L130.875 77.7689C130.875 77.4658 130.746 77.3262 130.521 77.3262C130.28 77.3262 130.11 77.4833 130.11 77.8165L130.11 78.7558L129.567 78.7558L129.567 76.8851L130.086 76.8851L130.086 77.1009C130.224 76.9406 130.434 76.8566 130.673 76.8566C130.935 76.8566 131.157 76.9581 131.289 77.1628C131.438 76.9708 131.682 76.8566 131.965 76.8566C132.409 76.8566 132.73 77.1136 132.73 77.6848Z" fill="#263238"/>
<path fill-rule="evenodd" clip-rule="evenodd" d="M135.06 77.9736L133.644 77.9736C133.697 78.2068 133.894 78.3496 134.179 78.3496C134.377 78.3496 134.52 78.2893 134.65 78.1687L134.938 78.4813C134.765 78.6796 134.503 78.7844 134.166 78.7844C133.519 78.7844 133.099 78.3766 133.099 77.8197C133.099 77.2596 133.525 76.8566 134.097 76.8566C134.646 76.8566 135.071 77.2262 135.071 77.8276C135.071 77.8688 135.063 77.9276 135.06 77.9736ZM133.636 77.6562L134.558 77.6562C134.52 77.4198 134.343 77.2675 134.1 77.2675C133.852 77.2675 133.676 77.4166 133.636 77.6562Z" fill="#263238"/>
<path fill-rule="evenodd" clip-rule="evenodd" d="M138.647 77.8038C138.647 78.4258 138.362 78.7812 137.933 78.7812C137.697 78.7812 137.53 78.6764 137.457 78.4781C137.335 78.6733 137.137 78.7812 136.862 78.7812C136.413 78.7812 136.059 78.4258 136.059 77.9006C136.059 77.3786 136.41 77.0231 136.862 77.0231C137.092 77.0231 137.273 77.1041 137.398 77.2532L137.398 77.0485L137.871 77.0485L137.871 78.1751C137.871 78.3417 137.944 78.3972 138.038 78.3972C138.198 78.3972 138.297 78.2131 138.297 77.8101C138.297 77.1041 137.775 76.617 137.002 76.617C136.226 76.617 135.707 77.1453 135.707 77.872C135.707 78.613 136.215 79.1398 136.988 79.1398C137.206 79.1398 137.454 79.0937 137.673 78.9858L137.784 79.3064C137.571 79.4142 137.262 79.473 136.988 79.473C135.982 79.473 135.318 78.7907 135.318 77.872C135.318 76.9644 135.99 76.2853 137.002 76.2853C137.979 76.2853 138.647 76.9295 138.647 77.8038ZM137.405 77.9006C137.405 77.5975 137.221 77.4277 136.97 77.4277C136.716 77.4277 136.539 77.6039 136.539 77.9006C136.539 78.1989 136.716 78.3797 136.97 78.3797C137.221 78.3797 137.405 78.2068 137.405 77.9006Z" fill="#263238"/>
<path d="M142.195 77.6848L142.195 78.7558L141.653 78.7558L141.653 77.7689C141.653 77.4658 141.518 77.3262 141.299 77.3262C141.055 77.3262 140.885 77.4833 140.885 77.8165L140.885 78.7558L140.342 78.7558L140.342 77.7689C140.342 77.4658 140.214 77.3262 139.987 77.3262C139.747 77.3262 139.576 77.4833 139.576 77.8165L139.576 78.7558L139.033 78.7558L139.033 76.8851L139.552 76.8851L139.552 77.1009C139.692 76.9406 139.9 76.8566 140.141 76.8566C140.401 76.8566 140.623 76.9581 140.756 77.1628C140.905 76.9708 141.148 76.8566 141.431 76.8566C141.876 76.8566 142.195 77.1136 142.195 77.6848Z" fill="#263238"/>
<path fill-rule="evenodd" clip-rule="evenodd" d="M144.339 77.688L144.339 78.7558L143.831 78.7558L143.831 78.5226C143.731 78.6939 143.536 78.7844 143.261 78.7844C142.822 78.7844 142.562 78.54 142.562 78.2163C142.562 77.8863 142.795 77.6562 143.364 77.6562L143.796 77.6562C143.796 77.4246 143.658 77.2881 143.364 77.2881C143.166 77.2881 142.961 77.3548 142.826 77.4627L142.631 77.0834C142.836 76.9375 143.139 76.8566 143.437 76.8566C144.009 76.8566 144.339 77.1215 144.339 77.688ZM143.796 78.1656L143.796 77.9736L143.425 77.9736C143.171 77.9736 143.09 78.0672 143.09 78.1925C143.09 78.329 143.206 78.4194 143.396 78.4194C143.577 78.4194 143.734 78.3353 143.796 78.1656Z" fill="#263238"/>
<path d="M144.764 76.3203C144.764 76.1505 144.9 76.0188 145.102 76.0188C145.303 76.0188 145.438 76.1441 145.438 76.3107C145.438 76.4916 145.303 76.6233 145.102 76.6233C144.9 76.6233 144.764 76.4916 144.764 76.3203ZM144.83 76.8851L145.371 76.8851L145.371 78.7558L144.83 78.7558L144.83 76.8851Z" fill="#263238"/>
<path d="M145.878 76.1743L146.421 76.1743L146.421 78.7558L145.878 78.7558L145.878 76.1743Z" fill="#263238"/>
<path d="M146.792 78.4432C146.792 78.2417 146.943 78.1084 147.13 78.1084C147.319 78.1084 147.468 78.2417 147.468 78.4432C147.468 78.6415 147.319 78.7843 147.13 78.7843C146.943 78.7843 146.792 78.6415 146.792 78.4432Z" fill="#263238"/>
<path d="M147.673 77.8197C147.673 77.2564 148.108 76.8566 148.717 76.8566C149.11 76.8566 149.42 77.0279 149.555 77.3341L149.134 77.5594C149.033 77.3817 148.883 77.3024 148.712 77.3024C148.438 77.3024 148.222 77.4928 148.222 77.8197C148.222 78.1481 148.438 78.3385 148.712 78.3385C148.883 78.3385 149.033 78.2623 149.134 78.0815L149.555 78.3115C149.42 78.6098 149.11 78.7844 148.717 78.7844C148.108 78.7844 147.673 78.3845 147.673 77.8197Z" fill="#263238"/>
<path fill-rule="evenodd" clip-rule="evenodd" d="M149.705 77.8197C149.705 77.2564 150.14 76.8566 150.735 76.8566C151.33 76.8566 151.76 77.2564 151.76 77.8197C151.76 78.3845 151.33 78.7844 150.735 78.7844C150.14 78.7844 149.705 78.3845 149.705 77.8197ZM151.211 77.8197C151.211 77.4976 151.006 77.3024 150.735 77.3024C150.462 77.3024 150.254 77.4976 150.254 77.8197C150.254 78.1433 150.462 78.3385 150.735 78.3385C151.006 78.3385 151.211 78.1433 151.211 77.8197Z" fill="#263238"/>
<path d="M155.285 77.6848L155.285 78.7558L154.743 78.7558L154.743 77.7689C154.743 77.4658 154.606 77.3262 154.387 77.3262C154.144 77.3262 153.973 77.4833 153.973 77.8165L153.973 78.7558L153.43 78.7558L153.43 77.7689C153.43 77.4658 153.302 77.3262 153.077 77.3262C152.835 77.3262 152.666 77.4833 152.666 77.8165L152.666 78.7558L152.123 78.7558L152.123 76.8851L152.64 76.8851L152.64 77.1009C152.78 76.9406 152.988 76.8566 153.229 76.8566C153.489 76.8566 153.713 76.9581 153.845 77.1628C153.994 76.9708 154.238 76.8566 154.521 76.8566C154.965 76.8566 155.285 77.1136 155.285 77.6848Z" fill="#263238"/>
<path d="M124.033 90.7208L124.914 91.1984L124.517 91.8601L123.629 91.3349L123.645 92.3139L122.885 92.3139L122.894 91.3269L122.004 91.8601L121.615 91.1984L122.497 90.7208L121.615 90.2353L122.004 89.5737L122.894 90.1068L122.885 89.1199L123.645 89.1199L123.629 90.1068L124.517 89.5737L124.914 90.2353L124.033 90.7208Z" fill="#263238"/>
<path d="M127.702 90.7208L128.582 91.1984L128.187 91.8601L127.297 91.3349L127.313 92.3139L126.553 92.3139L126.562 91.3269L125.672 91.8601L125.285 91.1984L126.166 90.7208L125.285 90.2353L125.672 89.5737L126.562 90.1068L126.553 89.1199L127.313 89.1199L127.297 90.1068L128.187 89.5737L128.582 90.2353L127.702 90.7208Z" fill="#263238"/>
<path d="M131.37 90.7208L132.251 91.1984L131.854 91.8601L130.966 91.3349L130.981 92.3139L130.221 92.3139L130.229 91.3269L129.341 91.8601L128.952 91.1984L129.834 90.7208L128.952 90.2353L129.341 89.5737L130.229 90.1068L130.221 89.1199L130.981 89.1199L130.966 90.1068L131.854 89.5737L132.251 90.2353L131.37 90.7208Z" fill="#263238"/>
<path d="M135.038 90.7208L135.919 91.1984L135.522 91.8601L134.634 91.3349L134.649 92.3139L133.889 92.3139L133.899 91.3269L133.009 91.8601L132.62 91.1984L133.502 90.7208L132.62 90.2353L133.009 89.5737L133.899 90.1068L133.889 89.1199L134.649 89.1199L134.634 90.1068L135.522 89.5737L135.919 90.2353L135.038 90.7208Z" fill="#263238"/>
<path d="M138.707 90.7208L139.587 91.1984L139.192 91.8601L138.302 91.3349L138.318 92.3139L137.558 92.3139L137.567 91.3269L136.677 91.8601L136.29 91.1984L137.171 90.7208L136.29 90.2353L136.677 89.5737L137.567 90.1068L137.558 89.1199L138.318 89.1199L138.302 90.1068L139.192 89.5737L139.587 90.2353L138.707 90.7208Z" fill="#263238"/>
<path d="M142.375 90.7208L143.256 91.1984L142.861 91.8601L141.971 91.3349L141.987 92.3139L141.227 92.3139L141.236 91.3269L140.346 91.8601L139.959 91.1984L140.84 90.7208L139.959 90.2353L140.346 89.5737L141.236 90.1068L141.227 89.1199L141.987 89.1199L141.971 90.1068L142.861 89.5737L143.256 90.2353L142.375 90.7208Z" fill="#263238"/>
<path d="M146.044 90.7208L146.925 91.1984L146.53 91.8601L145.639 91.3349L145.655 92.3139L144.895 92.3139L144.905 91.3269L144.015 91.8601L143.626 91.1984L144.508 90.7208L143.626 90.2353L144.015 89.5737L144.905 90.1068L144.895 89.1199L145.655 89.1199L145.639 90.1068L146.53 89.5737L146.925 90.2353L146.044 90.7208Z" fill="#263238"/>
<path d="M149.711 90.7208L150.592 91.1984L150.197 91.8601L149.307 91.3349L149.323 92.3139L148.563 92.3139L148.572 91.3269L147.682 91.8601L147.295 91.1984L148.176 90.7208L147.295 90.2353L147.682 89.5737L148.572 90.1068L148.563 89.1199L149.323 89.1199L149.307 90.1068L150.197 89.5737L150.592 90.2353L149.711 90.7208Z" fill="#263238"/>
<path d="M189.828 159.755L118.891 159.755C117.214 159.755 115.854 158.395 115.854 156.72L115.854 120.001C115.854 118.324 117.214 116.964 118.891 116.964L189.828 116.964C191.504 116.964 192.863 118.324 192.863 120.001L192.863 156.72C192.863 158.395 191.504 159.755 189.828 159.755Z" fill="white"/>
<path d="M189.828 159.755C189.826 159.742 190.034 159.758 190.426 159.682C190.808 159.598 191.399 159.4 191.954 158.851C192.227 158.576 192.478 158.211 192.643 157.764C192.731 157.542 192.777 157.294 192.812 157.037C192.831 156.779 192.828 156.504 192.827 156.218C192.823 155.076 192.819 153.759 192.815 152.277C192.806 146.341 192.792 137.762 192.776 127.162C192.774 125.837 192.773 124.479 192.771 123.092C192.771 122.399 192.769 121.697 192.769 120.988C192.752 120.279 192.844 119.552 192.554 118.903C192.292 118.254 191.786 117.697 191.146 117.378C190.827 117.217 190.478 117.115 190.12 117.079C189.766 117.052 189.379 117.069 189.006 117.064C187.503 117.066 185.971 117.066 184.412 117.067C178.177 117.071 171.516 117.075 164.506 117.079C150.486 117.082 135.074 117.085 118.896 117.09C118.41 117.091 117.928 117.215 117.501 117.44C117.081 117.678 116.711 118.01 116.449 118.416C116.192 118.822 116.021 119.287 115.991 119.768C115.967 120.25 115.984 120.764 115.978 121.259C115.978 123.257 115.978 125.242 115.978 127.213C115.978 131.152 115.976 135.035 115.976 138.849C115.975 142.665 115.975 146.411 115.973 150.081C115.972 151.917 115.972 153.732 115.972 155.527C115.975 155.974 115.964 156.429 115.978 156.864C115.999 157.293 116.114 157.715 116.313 158.092C116.714 158.848 117.455 159.401 118.282 159.576C118.69 159.673 119.124 159.633 119.564 159.642C119.999 159.642 120.433 159.642 120.866 159.642C121.731 159.642 122.591 159.642 123.445 159.644C125.152 159.644 126.837 159.646 128.498 159.646C131.819 159.649 135.043 159.65 138.161 159.652C144.395 159.658 150.202 159.663 155.505 159.668C166.106 159.684 174.685 159.698 180.619 159.707C183.579 159.717 185.88 159.725 187.446 159.73C188.224 159.736 188.817 159.739 189.222 159.742C189.488 159.746 189.69 159.75 189.828 159.755C189.69 159.761 189.488 159.765 189.222 159.768C188.817 159.771 188.224 159.774 187.446 159.78C185.88 159.785 183.579 159.793 180.619 159.804C174.685 159.812 166.106 159.826 155.505 159.842C150.202 159.847 144.395 159.852 138.161 159.858C135.043 159.86 131.819 159.861 128.498 159.865C126.837 159.865 125.152 159.866 123.445 159.866C122.591 159.868 121.731 159.868 120.866 159.868C120.433 159.868 119.999 159.869 119.564 159.869C119.134 159.86 118.686 159.903 118.234 159.8C117.343 159.612 116.543 159.016 116.11 158.2C115.894 157.794 115.769 157.337 115.746 156.875C115.73 156.418 115.742 155.979 115.738 155.527C115.737 153.732 115.737 151.917 115.737 150.081C115.735 146.411 115.734 142.665 115.734 138.849C115.732 135.035 115.732 131.152 115.732 127.213C115.73 125.242 115.73 123.257 115.73 121.259C115.737 120.756 115.718 120.269 115.743 119.749C115.776 119.228 115.962 118.721 116.241 118.281C116.525 117.84 116.925 117.48 117.382 117.223C117.845 116.977 118.371 116.844 118.896 116.841C135.074 116.844 150.486 116.848 164.506 116.85C171.516 116.855 178.177 116.858 184.412 116.863C185.971 116.863 187.503 116.864 189.006 116.866C189.385 116.871 189.748 116.853 190.139 116.882C190.521 116.921 190.894 117.031 191.234 117.204C191.914 117.547 192.454 118.14 192.731 118.832C192.873 119.178 192.947 119.549 192.954 119.917C192.955 120.276 192.955 120.633 192.957 120.988C192.957 121.697 192.955 122.399 192.955 123.092C192.954 124.479 192.952 125.837 192.95 127.162C192.934 137.762 192.92 146.341 192.911 152.277C192.907 153.759 192.903 155.076 192.9 156.218C192.9 156.502 192.901 156.777 192.879 157.043C192.842 157.307 192.792 157.559 192.7 157.784C192.528 158.241 192.27 158.61 191.989 158.886C191.419 159.438 190.818 159.631 190.431 159.707C190.232 159.739 190.082 159.757 189.98 159.754C189.912 159.757 189.861 159.757 189.828 159.755Z" fill="#263238"/>
<path d="M142.685 132.085L142.685 132.618L140.457 132.618L140.457 129.742L142.631 129.742L142.631 130.276L141.119 130.276L141.119 130.9L142.455 130.9L142.455 131.419L141.119 131.419L141.119 132.085L142.685 132.085Z" fill="#263238"/>
<path d="M145.854 129.742L145.854 132.618L145.309 132.618L143.873 130.871L143.873 132.618L143.216 132.618L143.216 129.742L143.766 129.742L145.198 131.489L145.198 129.742L145.854 129.742Z" fill="#263238"/>
<path d="M147.136 130.284L146.214 130.284L146.214 129.742L148.722 129.742L148.722 130.284L147.801 130.284L147.801 132.618L147.136 132.618L147.136 130.284Z" fill="#263238"/>
<path d="M151.308 132.085L151.308 132.618L149.079 132.618L149.079 129.742L151.254 129.742L151.254 130.276L149.742 130.276L149.742 130.9L151.077 130.9L151.077 131.419L149.742 131.419L149.742 132.085L151.308 132.085Z" fill="#263238"/>
<path fill-rule="evenodd" clip-rule="evenodd" d="M153.672 132.618L153.117 131.817L152.504 131.817L152.504 132.618L151.838 132.618L151.838 129.742L153.085 129.742C153.853 129.742 154.334 130.14 154.334 130.786C154.334 131.217 154.116 131.533 153.742 131.693L154.388 132.618L153.672 132.618ZM153.047 130.284L152.504 130.284L152.504 131.287L153.047 131.287C153.455 131.287 153.659 131.098 153.659 130.786C153.659 130.468 153.455 130.284 153.047 130.284Z" fill="#263238"/>
<path d="M155.845 131.181C155.845 130.313 156.51 129.692 157.406 129.692C157.904 129.692 158.318 129.873 158.59 130.202L158.163 130.597C157.969 130.375 157.726 130.259 157.439 130.259C156.901 130.259 156.517 130.638 156.517 131.181C156.517 131.723 156.901 132.101 157.439 132.101C157.726 132.101 157.969 131.985 158.163 131.76L158.59 132.155C158.318 132.488 157.904 132.669 157.403 132.669C156.51 132.669 155.845 132.047 155.845 131.181Z" fill="#263238"/>
<path fill-rule="evenodd" clip-rule="evenodd" d="M158.797 131.181C158.797 130.326 159.462 129.692 160.371 129.692C161.275 129.692 161.945 130.321 161.945 131.181C161.945 132.039 161.275 132.669 160.371 132.669C159.462 132.669 158.797 132.036 158.797 131.181ZM161.27 131.181C161.27 130.633 160.885 130.259 160.371 130.259C159.857 130.259 159.47 130.633 159.47 131.181C159.47 131.727 159.857 132.101 160.371 132.101C160.885 132.101 161.27 131.727 161.27 131.181Z" fill="#263238"/>
<path fill-rule="evenodd" clip-rule="evenodd" d="M162.448 129.742L163.756 129.742C164.697 129.742 165.342 130.308 165.342 131.181C165.342 132.052 164.697 132.618 163.756 132.618L162.448 132.618L162.448 129.742ZM163.722 132.073C164.294 132.073 164.668 131.731 164.668 131.181C164.668 130.63 164.294 130.289 163.722 130.289L163.115 130.289L163.115 132.073L163.722 132.073Z" fill="#263238"/>
<path d="M168.073 132.085L168.073 132.618L165.846 132.618L165.846 129.742L168.019 129.742L168.019 130.276L166.507 130.276L166.507 130.9L167.843 130.9L167.843 131.419L166.507 131.419L166.507 132.085L168.073 132.085Z" fill="#263238"/>
<path d="M131.765 151.861L124.776 151.861C123.736 151.861 122.896 151.019 122.896 149.98L122.896 139.095C122.896 138.056 123.736 137.213 124.776 137.213L131.765 137.213C132.804 137.213 133.647 138.056 133.647 139.095L133.647 149.98C133.647 151.019 132.804 151.861 131.765 151.861Z" fill="#EBEBEB"/>
<path d="M145.193 151.861L138.202 151.861C137.165 151.861 136.322 151.019 136.322 149.98L136.322 139.095C136.322 138.056 137.165 137.213 138.202 137.213L145.193 137.213C146.231 137.213 147.074 138.056 147.074 139.095L147.074 149.98C147.074 151.019 146.231 151.861 145.193 151.861Z" fill="#EBEBEB"/>
<path d="M158.62 151.861L151.631 151.861C150.592 151.861 149.749 151.019 149.749 149.98L149.749 139.095C149.749 138.056 150.592 137.213 151.631 137.213L158.62 137.213C159.659 137.213 160.5 138.056 160.5 139.095L160.5 149.98C160.5 151.019 159.659 151.861 158.62 151.861Z" fill="#EBEBEB"/>
<path d="M172.046 151.861L165.057 151.861C164.017 151.861 163.175 151.019 163.175 149.98L163.175 139.095C163.175 138.056 164.017 137.213 165.057 137.213L172.046 137.213C173.085 137.213 173.928 138.056 173.928 139.095L173.928 149.98C173.928 151.019 173.085 151.861 172.046 151.861Z" fill="#EBEBEB"/>
<path d="M185.472 151.861L178.483 151.861C177.443 151.861 176.603 151.019 176.603 149.98L176.603 139.095C176.603 138.056 177.443 137.213 178.483 137.213L185.472 137.213C186.511 137.213 187.354 138.056 187.354 139.095L187.354 149.98C187.354 151.019 186.511 151.861 185.472 151.861Z" fill="#EBEBEB"/>
<path fill-rule="evenodd" clip-rule="evenodd" d="M130.613 145.669C130.613 146.714 129.804 147.393 128.709 147.393C127.206 147.393 126.413 146.314 126.413 144.525C126.413 142.589 127.443 141.591 128.955 141.591C129.445 141.591 129.902 141.673 130.254 141.886L130.081 142.221C129.788 142.034 129.388 141.959 128.955 141.959C127.671 141.959 126.83 142.802 126.83 144.46C126.83 144.631 126.838 144.885 126.88 145.147C127.116 144.395 127.835 143.969 128.701 143.969C129.845 143.969 130.613 144.639 130.613 145.669ZM130.196 145.677C130.196 144.861 129.609 144.33 128.644 144.33C127.705 144.33 127.059 144.926 127.059 145.694C127.059 146.364 127.622 147.033 128.693 147.033C129.583 147.033 130.196 146.503 130.196 145.677Z" fill="#FF725E"/>
<path d="M143.895 145.767L142.694 145.767L142.694 147.352L142.286 147.352L142.286 145.767L139.025 145.767L139.025 145.464L142.13 141.632L142.597 141.632L139.549 145.399L142.294 145.399L142.294 144.003L142.694 144.003L142.694 145.399L143.895 145.399L143.895 145.767Z" fill="#FF725E"/>
<path d="M157.743 148.164C157.743 148.233 156.628 148.288 155.252 148.288C153.875 148.288 152.76 148.233 152.76 148.164C152.76 148.096 153.875 148.041 155.252 148.041C156.628 148.041 157.743 148.096 157.743 148.164Z" fill="#FF725E"/>
<path d="M121.909 121.236C121.909 121.88 121.387 122.402 120.744 122.402C120.1 122.402 119.578 121.88 119.578 121.236C119.578 120.591 120.1 120.069 120.744 120.069C121.387 120.069 121.909 120.591 121.909 121.236Z" fill="#263238"/>
<path d="M125.269 121.236C125.269 121.88 124.747 122.402 124.105 122.402C123.46 122.402 122.938 121.88 122.938 121.236C122.938 120.591 123.46 120.069 124.105 120.069C124.747 120.069 125.269 120.591 125.269 121.236Z" fill="#263238"/>
<path d="M128.57 121.236C128.57 121.88 128.048 122.402 127.403 122.402C126.759 122.402 126.237 121.88 126.237 121.236C126.237 120.591 126.759 120.069 127.403 120.069C128.048 120.069 128.57 120.591 128.57 121.236Z" fill="#263238"/>
<path d="M192.979 124.52C192.979 124.588 175.737 124.644 154.474 124.644C133.201 124.644 115.964 124.588 115.964 124.52C115.964 124.452 133.201 124.396 154.474 124.396C175.737 124.396 192.979 124.452 192.979 124.52Z" fill="#263238"/>
<path d="M106.479 64.4282L69.4005 64.4282C68.3358 64.4282 67.4727 65.2914 67.4727 66.3576L67.4727 83.2492C67.4727 84.3139 68.3358 85.177 69.4005 85.177L84.9561 85.177L88.2596 89.415L91.014 85.177L106.479 85.177C107.544 85.177 108.409 84.3139 108.409 83.2492L108.409 66.3576C108.409 65.2914 107.544 64.4282 106.479 64.4282Z" fill="white"/>
<path d="M106.479 64.4282C106.52 64.4266 106.582 64.4266 106.663 64.4282C106.784 64.4409 106.966 64.4583 107.192 64.5456C107.414 64.6313 107.685 64.7789 107.925 65.0422C108.169 65.2977 108.375 65.6785 108.432 66.1434C108.469 67.9839 108.463 70.659 108.477 74.0466C108.482 75.7411 108.486 77.6118 108.491 79.6412C108.494 80.6566 108.496 81.7102 108.497 82.8034C108.493 83.0731 108.518 83.354 108.461 83.6443C108.405 83.9315 108.282 84.206 108.107 84.444C107.761 84.9248 107.184 85.2469 106.57 85.2691C101.905 85.2754 96.6736 85.2834 91.014 85.2913L91.1092 85.2405C90.2445 86.5717 89.3115 88.0108 88.3595 89.4785L88.2691 89.6181L88.1659 89.4864C87.1235 88.1505 86.0017 86.7129 84.8609 85.2516L84.9561 85.2992C80.6721 85.2992 76.1882 85.3008 71.5884 85.3008C71.0506 85.3008 70.5159 85.3008 69.9812 85.3008C69.7114 85.296 69.4591 85.3135 69.1688 85.2881C68.8879 85.2564 68.6134 85.1644 68.3707 85.0216C67.882 84.7391 67.5218 84.2489 67.3996 83.7015C67.333 83.4222 67.352 83.1445 67.3489 82.8891L67.3489 82.1021C67.3489 80.0109 67.3505 77.9498 67.3505 75.9252C67.352 73.899 67.352 71.9109 67.3536 69.9625C67.3552 68.9883 67.3552 68.0236 67.3552 67.0716L67.3568 66.3576C67.3584 66.1069 67.4044 65.8578 67.4949 65.6245C67.6726 65.1581 68.028 64.7677 68.4659 64.5424C68.6848 64.4298 68.9228 64.3536 69.1672 64.3298C69.4163 64.306 69.6384 64.3187 69.8701 64.3155C70.3302 64.3155 70.7856 64.3155 71.2394 64.3171C72.1454 64.3171 73.0402 64.3187 73.9224 64.3187C75.6852 64.3219 77.3972 64.3235 79.0521 64.3251C82.3603 64.3314 85.4432 64.3362 88.2596 64.3409C93.8827 64.3568 98.4348 64.3711 101.591 64.3806C103.158 64.3901 104.378 64.3981 105.216 64.4028C105.624 64.4092 105.938 64.4123 106.159 64.4155C106.3 64.4187 106.406 64.4234 106.479 64.4282C106.406 64.4345 106.3 64.4377 106.159 64.4409C105.938 64.4441 105.624 64.4472 105.216 64.4536C104.378 64.4583 103.158 64.4663 101.591 64.4774C98.4348 64.4853 93.8827 64.4996 88.2596 64.5155C85.4432 64.5202 82.3603 64.525 79.0521 64.5313C77.3972 64.5329 75.6852 64.5345 73.9224 64.5377C73.0402 64.5377 72.1454 64.5393 71.2394 64.5409C70.7856 64.5409 70.3302 64.5409 69.8701 64.5409C69.6432 64.544 69.4036 64.5345 69.1926 64.5551C68.9768 64.5773 68.7642 64.644 68.5706 64.7455C68.1819 64.9455 67.8677 65.2929 67.709 65.7071C67.6297 65.9133 67.5885 66.1355 67.5885 66.3576L67.5885 67.0716C67.5885 68.0236 67.59 68.9883 67.59 69.9625C67.5916 71.9109 67.5932 73.899 67.5932 75.9252C67.5948 77.9498 67.5948 80.0109 67.5948 82.1021L67.5964 82.8891C67.598 83.1556 67.5821 83.4095 67.6408 83.6459C67.7471 84.1283 68.0645 84.5598 68.4944 84.8074C68.7086 84.9327 68.9498 85.0136 69.1973 85.0406C69.4369 85.0644 69.7194 85.0501 69.9812 85.0533C70.5159 85.0533 71.0506 85.0533 71.5884 85.0533C76.1882 85.0549 80.6721 85.0549 84.9561 85.0565L85.0148 85.0565L85.0513 85.1025C86.1905 86.5654 87.3107 88.0045 88.3532 89.3421L88.1612 89.35C89.1148 87.8839 90.0509 86.4464 90.9172 85.1152L90.9505 85.0628L91.014 85.0628C96.6705 85.0676 101.899 85.0723 106.562 85.0771C107.117 85.0596 107.642 84.7693 107.958 84.3345C108.117 84.1172 108.229 83.8696 108.28 83.6094C108.334 83.354 108.313 83.0779 108.318 82.8034C108.32 81.7102 108.323 80.6566 108.325 79.6412C108.329 77.6118 108.334 75.7411 108.339 74.0466C108.348 70.6686 108.355 67.9919 108.359 66.1513C108.31 65.7039 108.117 65.3326 107.883 65.0803C107.655 64.8201 107.395 64.6694 107.177 64.5805C106.736 64.406 106.476 64.4472 106.479 64.4282Z" fill="#263238"/>
<path d="M80.9969 69.1946L80.9969 69.8197L80.5891 69.8197L80.5891 69.1898L79.9053 68.0569L80.34 68.0569L80.8113 68.8407L81.2825 68.0569L81.6823 68.0569L80.9969 69.1946Z" fill="#263238"/>
<path fill-rule="evenodd" clip-rule="evenodd" d="M81.6699 68.9375C81.6699 68.4139 82.0777 68.0268 82.6346 68.0268C83.1899 68.0268 83.5993 68.4107 83.5993 68.9375C83.5993 69.4659 83.1899 69.8498 82.6346 69.8498C82.0777 69.8498 81.6699 69.4627 81.6699 68.9375ZM83.1868 68.9375C83.1868 68.6027 82.9504 68.3742 82.6346 68.3742C82.3205 68.3742 82.0825 68.6027 82.0825 68.9375C82.0825 69.2739 82.3205 69.5024 82.6346 69.5024C82.9504 69.5024 83.1868 69.2739 83.1868 68.9375Z" fill="#263238"/>
<path d="M83.8945 69.0438L83.8945 68.0569L84.3023 68.0569L84.3023 69.0295C84.3023 69.3643 84.4499 69.5023 84.6958 69.5023C84.9449 69.5023 85.0893 69.3643 85.0893 69.0295L85.0893 68.0569L85.4923 68.0569L85.4923 69.0438C85.4923 69.5626 85.1956 69.8498 84.6942 69.8498C84.1928 69.8498 83.8945 69.5626 83.8945 69.0438Z" fill="#263238"/>
<path fill-rule="evenodd" clip-rule="evenodd" d="M87.0218 69.8197L86.6823 69.3294L86.3062 69.3294L86.3062 69.8197L85.8984 69.8197L85.8984 68.0569L86.6616 68.0569C87.1329 68.0569 87.428 68.3012 87.428 68.6963C87.428 68.9613 87.2947 69.1549 87.0646 69.2533L87.4597 69.8197L87.0218 69.8197ZM86.6394 68.3885L86.3062 68.3885L86.3062 69.0041L86.6394 69.0041C86.8885 69.0041 87.0139 68.8883 87.0139 68.6963C87.0139 68.5027 86.8885 68.3885 86.6394 68.3885Z" fill="#263238"/>
<path d="M88.3545 68.9375C88.3545 68.406 88.7639 68.0268 89.3128 68.0268C89.6175 68.0268 89.8713 68.1362 90.0379 68.3378L89.7761 68.5805C89.6571 68.4441 89.5096 68.3742 89.3319 68.3742C89.0019 68.3742 88.7686 68.6059 88.7686 68.9375C88.7686 69.2707 89.0019 69.5024 89.3319 69.5024C89.5096 69.5024 89.6571 69.4325 89.7761 69.2929L90.0379 69.5357C89.8713 69.7403 89.6175 69.8498 89.3097 69.8498C88.7639 69.8498 88.3545 69.4706 88.3545 68.9375Z" fill="#263238"/>
<path fill-rule="evenodd" clip-rule="evenodd" d="M90.166 68.9375C90.166 68.4139 90.5738 68.0268 91.1307 68.0268C91.686 68.0268 92.097 68.4107 92.097 68.9375C92.097 69.4659 91.686 69.8498 91.1307 69.8498C90.5738 69.8498 90.166 69.4627 90.166 68.9375ZM91.6829 68.9375C91.6829 68.6027 91.4464 68.3742 91.1307 68.3742C90.8165 68.3742 90.5785 68.6027 90.5785 68.9375C90.5785 69.2739 90.8165 69.5024 91.1307 69.5024C91.4464 69.5024 91.6829 69.2739 91.6829 68.9375Z" fill="#263238"/>
<path fill-rule="evenodd" clip-rule="evenodd" d="M92.4062 68.0569L93.2075 68.0569C93.7851 68.0569 94.1801 68.4044 94.1801 68.9375C94.1801 69.4722 93.7851 69.8197 93.2075 69.8197L92.4062 69.8197L92.4062 68.0569ZM93.1869 69.4849C93.5375 69.4849 93.7676 69.2755 93.7676 68.9375C93.7676 68.6011 93.5375 68.3917 93.1869 68.3917L92.814 68.3917L92.814 69.4849L93.1869 69.4849Z" fill="#263238"/>
<path d="M95.8564 69.4929L95.8564 69.8197L94.4902 69.8197L94.4902 68.0569L95.823 68.0569L95.823 68.3837L94.8964 68.3837L94.8964 68.7677L95.7151 68.7677L95.7151 69.0851L94.8964 69.0851L94.8964 69.4929L95.8564 69.4929Z" fill="#263238"/>
<path d="M102.861 81.3532L73.0177 81.3532C72.0863 81.3532 71.3311 80.5979 71.3311 79.665L71.3311 73.3612C71.3311 72.4282 72.0863 71.6729 73.0177 71.6729L102.861 71.6729C103.794 71.6729 104.549 72.4282 104.549 73.3612L104.549 79.665C104.549 80.5979 103.794 81.3532 102.861 81.3532Z" fill="#F5F5F5"/>
<path fill-rule="evenodd" clip-rule="evenodd" d="M78.0847 77.1056C78.0847 77.9624 77.4214 78.5194 76.5234 78.5194C75.2921 78.5194 74.6416 77.6356 74.6416 76.1679C74.6416 74.5812 75.4857 73.7641 76.7249 73.7641C77.1263 73.7641 77.5024 73.8307 77.7895 74.0053L77.6483 74.2798C77.4072 74.1259 77.0803 74.0656 76.7249 74.0656C75.6729 74.0656 74.9843 74.7558 74.9843 76.1155C74.9843 76.2552 74.9907 76.463 75.024 76.6772C75.2176 76.0616 75.8078 75.7125 76.517 75.7125C77.4548 75.7125 78.0847 76.2615 78.0847 77.1056ZM77.7419 77.1136C77.7419 76.4424 77.2612 76.0077 76.471 76.0077C75.6999 76.0077 75.1715 76.4963 75.1715 77.1263C75.1715 77.6752 75.6333 78.2242 76.5107 78.2242C77.2406 78.2242 77.7419 77.7895 77.7419 77.1136Z" fill="#FF725E"/>
<path d="M84.3059 77.1866L83.3222 77.1866L83.3222 78.4861L82.9874 78.4861L82.9874 77.1866L80.3154 77.1866L80.3154 76.9391L82.8604 73.7975L83.2412 73.7975L80.7438 76.8851L82.9937 76.8851L82.9937 75.7395L83.3222 75.7395L83.3222 76.8851L84.3059 76.8851L84.3059 77.1866Z" fill="#FF725E"/>
<path d="M89.5107 77.166C89.5107 77.9434 88.949 78.5194 87.8701 78.5194C87.1815 78.5194 86.5452 78.2655 86.2168 77.8895L86.3913 77.6277C86.6785 77.9561 87.2275 78.2037 87.8701 78.2037C88.7142 78.2037 89.1632 77.8022 89.1632 77.166C89.1632 76.5376 88.7348 76.1283 87.7971 76.1283L87.502 76.1283L87.502 75.8808L88.8887 74.1053L86.3913 74.1053L86.3913 73.7975L89.3298 73.7975L89.3298 74.0386L87.9241 75.8411C88.9887 75.8665 89.5107 76.4028 89.5107 77.166Z" fill="#FF725E"/>
<path d="M95.1776 73.7975L95.1776 74.0386L93.1609 78.4861L92.7865 78.4861L94.7825 74.1053L92.1502 74.1053L92.1502 75.0033L91.8154 75.0033L91.8154 73.7975L95.1776 73.7975Z" fill="#FF725E"/>
<path fill-rule="evenodd" clip-rule="evenodd" d="M97.5693 76.1425C97.5693 74.6749 98.3262 73.7641 99.4035 73.7641C100.482 73.7641 101.239 74.6749 101.239 76.1425C101.239 77.6086 100.482 78.5194 99.4035 78.5194C98.3262 78.5194 97.5693 77.6086 97.5693 76.1425ZM100.898 76.1425C100.898 74.8367 100.287 74.0799 99.4035 74.0799C98.5197 74.0799 97.9105 74.8367 97.9105 76.1425C97.9105 77.4468 98.5197 78.2036 99.4035 78.2036C100.287 78.2036 100.898 77.4468 100.898 76.1425Z" fill="#FF725E"/>
<path d="M199.636 198.738C205.867 196.093 213.081 190.889 216.301 184.509C209.578 187.209 203.65 192.271 199.636 198.738Z" fill="#263238"/>
<path d="M200.961 188.836C207.192 186.191 214.408 180.988 217.626 174.606C210.903 177.307 204.977 182.368 200.961 188.836Z" fill="#263238"/>
<path d="M202.764 179.204C208.996 176.56 216.211 171.357 219.428 164.975C212.707 167.676 206.78 172.737 202.764 179.204Z" fill="#263238"/>
<path d="M205.024 169.123C210.903 165.634 217.456 159.476 219.898 152.712C213.538 156.325 208.249 162.161 205.024 169.123Z" fill="#263238"/>
<path d="M207.439 161.408C211.723 155.804 215.717 147.466 215.665 140.241C210.975 146.154 208.049 153.683 207.439 161.408Z" fill="#263238"/>
<path d="M206.241 165.075C205.377 157.499 202.429 147.973 197.426 142.291C198.221 150.41 201.356 158.514 206.241 165.075Z" fill="#263238"/>
<path d="M204.228 173.362C202.703 165.551 198.848 155.89 193.166 150.411C194.662 158.794 198.597 166.957 204.228 173.362Z" fill="#263238"/>
<path d="M201.913 183.469C200.388 175.658 196.533 165.997 190.853 160.517C192.349 168.899 196.282 177.064 201.913 183.469Z" fill="#263238"/>
<path d="M200.057 195.877C198.532 188.066 194.676 178.405 188.996 172.924C190.492 181.307 194.426 189.472 200.057 195.877Z" fill="#263238"/>
<path d="M207.73 159.923C207.727 159.922 207.709 159.961 207.682 160.039C207.651 160.131 207.613 160.247 207.563 160.39C207.459 160.717 207.314 161.167 207.132 161.74C206.757 162.914 206.251 164.625 205.658 166.746C205.06 168.867 204.404 171.408 203.727 174.241C203.062 177.078 202.385 180.21 201.759 183.514C201.142 186.821 200.638 189.984 200.227 192.87C199.828 195.757 199.517 198.362 199.303 200.555C199.084 202.748 198.935 204.525 198.857 205.754C198.821 206.354 198.791 206.828 198.769 207.17C198.762 207.32 198.756 207.442 198.753 207.539C198.75 207.622 198.751 207.665 198.754 207.665C198.759 207.665 198.767 207.623 198.777 207.541C198.788 207.444 198.802 207.323 198.818 207.174C198.851 206.833 198.896 206.36 198.953 205.762C199.059 204.536 199.235 202.762 199.475 200.574C199.711 198.384 200.038 195.784 200.449 192.902C200.871 190.021 201.382 186.862 201.999 183.558C202.623 180.258 203.294 177.129 203.946 174.294C204.611 171.46 205.249 168.917 205.824 166.792C206.396 164.666 206.876 162.949 207.222 161.769C207.387 161.189 207.517 160.734 207.611 160.404C207.649 160.258 207.681 160.141 207.706 160.047C207.725 159.966 207.735 159.925 207.73 159.923Z" fill="#263238"/>
<path d="M196.599 202.863C199.241 197.329 201.164 189.548 199.866 183.474C196.936 189.346 195.773 196.242 196.599 202.863Z" fill="#455A64"/>
<path d="M192.204 195.698C194.846 190.164 196.769 182.383 195.471 176.309C192.539 182.179 191.377 189.077 192.204 195.698Z" fill="#455A64"/>
<path d="M188.261 188.41C190.903 182.876 192.826 175.095 191.528 169.021C188.597 174.894 187.436 181.789 188.261 188.41Z" fill="#455A64"/>
<path d="M184.377 180.553C186.343 174.695 187.328 166.709 185.322 160.867C183.111 167.101 182.774 174.103 184.377 180.553Z" fill="#455A64"/>
<path d="M181.85 174.118C181.657 167.885 179.824 160.079 175.954 155.477C176.048 162.157 178.145 168.788 181.85 174.118Z" fill="#455A64"/>
<path d="M183.019 177.207C178.435 172.882 171.463 168.586 165.199 168.025C170.024 172.742 176.363 176.007 183.019 177.207Z" fill="#455A64"/>
<path d="M186.11 183.763C180.974 179.692 173.342 175.871 166.743 175.857C172.165 180.31 179.054 183.122 186.11 183.763Z" fill="#455A64"/>
<path d="M189.973 191.669C184.836 187.6 177.204 183.777 170.606 183.763C176.028 188.217 182.916 191.028 189.973 191.669Z" fill="#455A64"/>
<path d="M195.356 200.77C190.218 196.699 182.586 192.878 175.987 192.862C181.409 197.318 188.298 200.129 195.356 200.77Z" fill="#455A64"/>
<path d="M181.25 172.986C181.246 172.988 181.256 173.023 181.278 173.089C181.307 173.169 181.342 173.264 181.385 173.383C181.491 173.657 181.634 174.03 181.814 174.503C182.189 175.476 182.762 176.872 183.495 178.584C184.961 182.01 187.133 186.686 189.832 191.693C191.185 194.195 192.54 196.544 193.81 198.655C195.09 200.762 196.277 202.638 197.311 204.188C198.341 205.741 199.196 206.984 199.806 207.829C200.102 208.239 200.336 208.564 200.509 208.802C200.583 208.902 200.645 208.983 200.696 209.051C200.739 209.107 200.762 209.134 200.766 209.132C200.769 209.129 200.753 209.097 200.715 209.037C200.67 208.967 200.615 208.88 200.547 208.775C200.383 208.531 200.161 208.198 199.88 207.777C199.293 206.917 198.46 205.66 197.449 204.098C196.432 202.538 195.261 200.655 193.992 198.546C192.735 196.429 191.388 194.081 190.037 191.582C187.341 186.581 185.15 181.926 183.645 178.519C182.893 176.817 182.298 175.431 181.899 174.468C181.7 174.003 181.543 173.635 181.429 173.366C181.377 173.251 181.335 173.158 181.3 173.08C181.27 173.016 181.253 172.985 181.25 172.986Z" fill="#263238"/>
<path d="M184.013 203.531L210.27 203.531L210.27 208.593L207.572 208.593L205.299 223.025L189.069 223.025L186.732 208.593L184.013 208.593L184.013 203.531Z" fill="#FF725E"/>
<path d="M184.013 208.486C184.013 208.42 189.848 208.364 197.046 208.364C204.246 208.364 210.08 208.42 210.08 208.486C210.08 208.553 204.246 208.609 197.046 208.609C189.848 208.609 184.013 208.553 184.013 208.486Z" fill="#263238"/>
<path d="M33.6116 223.033L29.3499 223.033L27.7695 203.849L32.7882 203.849L33.6116 223.033Z" fill="#263238"/>
<path d="M70.5459 223.033L74.8077 223.033L76.388 203.849L71.3694 203.849L70.5459 223.033Z" fill="#263238"/>
<path d="M79.3158 206.278L24.4632 207.566L22.794 172.136C22.6306 168.667 25.3993 165.765 28.8709 165.765L75.6062 165.765C79.1334 165.765 81.9211 168.753 81.6768 172.271L79.3158 206.278Z" fill="#FF725E"/>
<path d="M82.1289 172.015C82.1289 172.018 82.0766 172.023 81.975 172.028C81.8608 172.031 81.7116 172.036 81.526 172.041C81.1134 172.047 80.5343 172.057 79.7965 172.068C78.2781 172.072 76.1107 172.08 73.4372 172.09C68.0679 172.099 60.6502 172.039 52.4646 172.23C44.2726 172.501 36.8486 172.455 31.4809 172.374C28.7963 172.331 26.6242 172.279 25.1232 172.233C24.3854 172.207 23.8078 172.188 23.3953 172.174C23.2097 172.164 23.0605 172.158 22.9463 172.152C22.8447 172.145 22.7939 172.141 22.7939 172.136C22.7939 172.133 22.8463 172.13 22.9463 172.126C23.0621 172.126 23.2097 172.125 23.3969 172.125C23.8078 172.128 24.387 172.131 25.1248 172.137C26.6432 172.152 28.8106 172.172 31.4825 172.198C36.8518 172.234 44.2679 172.253 52.4583 171.98C60.6518 171.792 68.0695 171.879 73.4387 171.915C76.1107 171.939 78.2781 171.958 79.7965 171.971C80.5343 171.98 81.1134 171.987 81.526 171.992C81.7116 171.996 81.8608 171.999 81.975 172.003C82.0766 172.006 82.1273 172.011 82.1289 172.015Z" fill="#263238"/>
<path d="M42.8021 166.319C42.818 166.402 41.0838 166.432 39.2416 167.389C37.3852 168.318 36.3444 169.705 36.2857 169.645C36.2635 169.629 36.4888 169.264 36.9648 168.763C37.4392 168.263 38.1865 167.649 39.129 167.166C40.0715 166.687 41.0076 166.443 41.6899 166.352C42.3753 166.259 42.8021 166.292 42.8021 166.319Z" fill="#263238"/>
<path d="M65.3629 101.902L72.0681 114.151L81.8912 108.657L86.6686 110.234C78.6338 118.944 73.9642 123.522 72.6616 123.966C70.7068 124.631 67.0035 124.753 64.8869 122.104C63.6017 120.496 61.0884 115.47 57.3486 107.025L65.3629 101.902Z" fill="#FFBE9D"/>
<path d="M92.9672 93.9069C92.7927 93.6911 92.5182 93.5816 92.2437 93.6197L87.571 94.2623C87.1616 94.3258 86.7983 94.5606 86.573 94.9081L76.8721 109.816L77.6178 110.234L82.784 110.07L93.1148 94.0894L92.9672 93.9069Z" fill="#263238"/>
<path d="M89.662 95.8426C89.7603 95.9299 89.9365 95.8934 90.0523 95.7601C90.1681 95.6284 90.1824 95.4491 90.0824 95.3619C89.9825 95.2746 89.8079 95.3111 89.6921 95.4444C89.5747 95.5777 89.562 95.7554 89.662 95.8426Z" fill="white"/>
<path d="M93.1145 94.0894C93.1177 94.1084 92.7956 94.1703 92.2117 94.2671C91.5802 94.3654 90.7456 94.494 89.7365 94.651C89.2081 94.7288 88.6354 94.8129 88.0245 94.9017C87.731 94.9287 87.4692 95.081 87.3026 95.327C87.1233 95.6062 86.9392 95.8918 86.7504 96.1838C85.9856 97.3626 85.1495 98.651 84.2736 100.003C82.5077 102.708 80.8988 105.148 79.7199 106.908C79.1471 107.754 78.6727 108.453 78.3141 108.982C77.9761 109.469 77.7826 109.732 77.7667 109.721C77.7508 109.712 77.9127 109.428 78.2221 108.923C78.5616 108.38 79.0106 107.665 79.5549 106.799C80.6893 105.012 82.2728 102.554 84.0372 99.8489C84.921 98.5019 85.7635 97.2167 86.533 96.0425C86.7266 95.7506 86.9154 95.465 87.0979 95.1873C87.3026 94.8811 87.6611 94.6939 87.9864 94.6717C88.6004 94.5939 89.1748 94.5209 89.7048 94.4543C90.7218 94.3337 91.5612 94.2337 92.1958 94.1592C92.7845 94.0957 93.1113 94.0703 93.1145 94.0894Z" fill="#455A64"/>
<path d="M87.933 99.419C87.6553 99.3682 87.4411 99.7236 87.2888 100.484C87.1365 101.242 86.816 102.711 86.3273 104.888L84.1456 103.73L81.4166 104.085C81.0183 104.452 80.966 104.736 81.2579 104.934C81.5483 105.134 82.2686 105.336 83.4189 105.54L84.6914 107.37L81.0405 105.61C80.2282 105.821 79.941 106.175 80.179 106.672C80.417 107.167 81.3563 108.19 82.9969 109.74L81.1675 109.602L78.9921 108.282C78.5479 108.301 78.4082 108.501 78.5748 108.88C78.7399 109.259 79.5776 110.134 81.085 111.503L83.8283 112.834C84.8263 112.755 85.3737 112.569 85.4689 112.276C85.5657 111.984 85.626 111.627 85.6498 111.21C86.1797 111.067 86.4939 110.867 86.5939 110.61C86.6922 110.353 86.7097 110.021 86.6462 109.613C87.4776 109.759 87.9457 109.601 88.0488 109.137C88.2043 108.442 88.0742 107.071 87.9473 106.537C87.8219 106.002 88.4804 101.028 88.428 100.879C88.3773 100.728 88.7152 99.0905 87.933 99.419Z" fill="#FFBE9D"/>
<path d="M85.5654 112.282C85.5749 112.314 85.3099 112.431 84.8498 112.504C84.3913 112.579 83.7376 112.587 83.041 112.422C82.3476 112.257 81.7653 111.954 81.3909 111.681C81.0132 111.409 80.8292 111.186 80.8514 111.16C80.9038 111.09 81.7717 111.843 83.1076 112.149C84.4357 112.477 85.5511 112.196 85.5654 112.282Z" fill="#EB996E"/>
<path d="M84.9169 111.298C84.874 111.362 84.3869 111.106 83.8681 110.681C83.3492 110.256 83.0033 109.829 83.0573 109.774C83.1128 109.718 83.5381 110.046 84.0474 110.464C84.5551 110.881 84.9613 111.233 84.9169 111.298Z" fill="#EB996E"/>
<path d="M86.3586 108.931C86.3174 108.994 85.8335 108.747 85.3479 108.296C84.8593 107.846 84.5737 107.386 84.634 107.338C84.6958 107.289 85.0687 107.657 85.5383 108.088C86.0064 108.523 86.4031 108.866 86.3586 108.931Z" fill="#EB996E"/>
<path d="M87.8772 107.025C87.801 107.057 87.5265 106.541 87.0918 105.981C86.6618 105.417 86.235 105.018 86.2842 104.953C86.327 104.893 86.8569 105.212 87.3139 105.81C87.774 106.405 87.9454 107 87.8772 107.025Z" fill="#EB996E"/>
<path d="M89.7316 195.305C89.7475 195.303 89.7634 195.141 89.719 194.852C89.6714 194.567 89.5539 194.148 89.262 193.705C89.1874 193.597 89.1128 193.48 88.9907 193.373C88.8748 193.269 88.6733 193.186 88.4798 193.259C88.3846 193.289 88.2878 193.378 88.2545 193.486C88.218 193.596 88.237 193.704 88.2656 193.792C88.329 193.973 88.4226 194.103 88.502 194.253C88.6797 194.551 88.8257 194.848 89.051 195.182C89.1668 195.354 89.4222 195.497 89.6571 195.455C89.8887 195.427 90.0744 195.314 90.2425 195.197C90.5694 194.959 90.8566 194.69 91.1025 194.403C91.2263 194.26 91.3389 194.111 91.4421 193.962C91.5388 193.813 91.6531 193.662 91.6975 193.454C91.7404 193.256 91.6642 192.993 91.4389 192.902C91.2088 192.82 91.0216 192.936 90.8931 193.026C90.6329 193.242 90.4774 193.462 90.3187 193.677C90.0172 194.105 89.8506 194.497 89.7554 194.77C89.6634 195.044 89.6412 195.205 89.6571 195.209C89.7047 195.228 89.8586 194.592 90.4726 193.791C90.6249 193.6 90.8137 193.369 91.0248 193.207C91.1327 193.131 91.2659 193.08 91.3484 193.121C91.4341 193.153 91.4817 193.281 91.4532 193.405C91.4262 193.534 91.3294 193.672 91.231 193.815C91.1311 193.956 91.0216 194.095 90.9042 194.23C90.6678 194.5 90.3917 194.754 90.0855 194.978C89.9379 195.084 89.7761 195.171 89.6269 195.189C89.4762 195.208 89.3588 195.147 89.2588 195.019C89.0716 194.746 88.8907 194.408 88.7178 194.127C88.6337 193.981 88.5337 193.838 88.4893 193.716C88.4433 193.588 88.4687 193.504 88.5591 193.469C88.7654 193.383 88.9669 193.616 89.1065 193.815C89.6872 194.637 89.6793 195.32 89.7316 195.305Z" fill="#263238"/>
<path d="M78.0347 195.704L72.2259 208.293L62.8535 203.961L68.8606 188.383L78.0347 195.704Z" fill="#FFBE9D"/>
<path d="M73.3247 207.452L69.9308 213.924C75.7221 219.91 78.3449 223.574 77.8022 224.913L57.3818 215.122L62.9907 202.141L73.3247 207.452Z" fill="#455A64"/>
<path d="M64.0408 210.011C63.5934 209.929 63.1078 210.243 63.0079 210.686C62.9079 211.13 63.2221 211.626 63.6679 211.715C64.1138 211.806 64.7088 211.447 64.758 210.995C64.8072 210.543 64.4057 209.979 63.9519 210" fill="#E0E0E0"/>
<g opacity="0.6">
<g opacity="0.6">
<g opacity="0.6">
<g opacity="0.6">
<g opacity="0.6">
<g opacity="0.6">
<g opacity="0.6">
<g opacity="0.6">
<g opacity="0.6">
<g opacity="0.6">
<g opacity="0.6">
<g opacity="0.6">
<path opacity="0.6" d="M57.3818 215.122L58.2307 213.494L77.4913 223.49C77.972 224.045 78.0751 224.518 77.8022 224.913L57.3818 215.122Z" fill="white"/>
</g>
</g>
</g>
</g>
</g>
</g>
</g>
</g>
</g>
</g>
</g>
</g>
<path d="M70.3111 213.978C70.2603 214.076 69.7399 213.883 69.0957 213.968C68.4484 214.037 67.9882 214.348 67.9152 214.263C67.8327 214.2 68.2675 213.675 69.0497 213.586C69.8303 213.489 70.3762 213.897 70.3111 213.978Z" fill="#263238"/>
<path d="M72.0288 215.891C72.005 215.998 71.4925 215.961 70.9514 216.22C70.4025 216.464 70.0994 216.878 70.001 216.828C69.9011 216.797 70.1121 216.18 70.7896 215.871C71.4655 215.555 72.0732 215.795 72.0288 215.891Z" fill="#263238"/>
<path d="M72.0161 219.038C71.9161 219.015 72.0161 218.451 72.5333 218.027C73.049 217.6 73.6218 217.61 73.625 217.713C73.6408 217.822 73.1981 217.97 72.7777 218.324C72.3509 218.668 72.1208 219.076 72.0161 219.038Z" fill="#263238"/>
<path d="M71.2859 211.485C71.2002 211.557 70.8083 211.2 70.2276 210.968C69.65 210.724 69.1201 210.703 69.109 210.592C69.0868 210.492 69.6913 210.329 70.3736 210.611C71.0574 210.889 71.3716 211.43 71.2859 211.485Z" fill="#263238"/>
<path d="M75.2376 205.772L90.5473 167.457C90.3173 163.098 89.8016 160.231 88.9987 158.854C88.1959 157.478 75.6374 152.775 51.3234 144.747C45.129 143.257 39.9676 143.257 35.8391 144.747C29.6463 146.984 25.0006 154.725 25.8605 159.027C26.4349 161.894 27.9311 164.38 30.3508 166.487L57.1718 167.284L71.7898 172.617L61.9461 200.831L75.2376 205.772Z" fill="#263238"/>
<path d="M88.8543 179.59L89.2002 193.448L78.8789 193.7L77.3906 177.07L88.8543 179.59Z" fill="#FFBE9D"/>
<path d="M89.8142 192.21L89.6254 199.515C97.4651 202.332 101.437 204.46 101.54 205.902L78.8948 206.13L78.1982 192.007L89.8142 192.21Z" fill="#455A64"/>
<path d="M82.6139 198.605C82.176 198.728 81.8793 199.225 81.984 199.666C82.0903 200.109 82.5933 200.415 83.0312 200.299C83.4707 200.182 83.8467 199.598 83.6912 199.171C83.5373 198.744 82.928 198.416 82.5298 198.633" fill="#E0E0E0"/>
<g opacity="0.6">
<g opacity="0.6">
<g opacity="0.6">
<g opacity="0.6">
<g opacity="0.6">
<g opacity="0.6">
<g opacity="0.6">
<g opacity="0.6">
<g opacity="0.6">
<g opacity="0.6">
<g opacity="0.6">
<g opacity="0.6">
<path opacity="0.6" d="M78.8945 206.13L78.9374 204.295L100.633 204.761C101.308 205.047 101.611 205.427 101.539 205.902L78.8945 206.13Z" fill="white"/>
</g>
</g>
</g>
</g>
</g>
</g>
</g>
</g>
</g>
</g>
</g>
</g>
<path d="M89.9923 199.396C89.9891 199.506 89.4369 199.561 88.8959 199.923C88.3469 200.271 88.0708 200.751 87.9693 200.709C87.8661 200.69 88.0248 200.026 88.6864 199.601C89.3449 199.17 90.0145 199.295 89.9923 199.396Z" fill="#263238"/>
<path d="M92.3766 200.355C92.4036 200.461 91.926 200.655 91.5547 201.126C91.1708 201.586 91.0803 202.092 90.9708 202.089C90.8677 202.108 90.7836 201.461 91.2564 200.883C91.7229 200.302 92.3734 200.249 92.3766 200.355Z" fill="#263238"/>
<path d="M93.7538 203.184C93.6538 203.208 93.4952 202.657 93.7728 202.048C94.0457 201.438 94.5646 201.194 94.6122 201.286C94.6756 201.375 94.344 201.703 94.1235 202.206C93.8902 202.705 93.8649 203.171 93.7538 203.184Z" fill="#263238"/>
<path d="M89.7648 196.729C89.7188 196.831 89.2111 196.683 88.5859 196.732C87.9607 196.767 87.4768 196.983 87.4181 196.888C87.3531 196.809 87.8227 196.395 88.5605 196.348C89.2951 196.295 89.8188 196.642 89.7648 196.729Z" fill="#263238"/>
<path d="M82.8265 141.112C86.9502 140.782 89.2414 142.854 89.6999 147.327C90.1585 151.8 90.6123 164.474 91.0629 185.348L76.6115 186.552L74.3759 154.554L51.3232 144.747C69.5731 141.75 80.0752 140.539 82.8265 141.112Z" fill="#263238"/>
<path d="M57.3387 132.058C59.8409 139.073 60.8532 142.971 60.3772 143.754C59.8996 144.536 56.4454 146.535 50.0115 149.751L25.8608 159.027C24.2075 156.396 23.3809 153.061 23.3809 149.02C23.3809 144.98 26.1813 139.327 31.7807 132.058L57.3387 132.058Z" fill="#263238"/>
<path d="M50.1817 144.211C50.1801 144.214 50.2182 144.234 50.2943 144.271C50.3832 144.312 50.4959 144.364 50.6371 144.43C50.956 144.572 51.4034 144.771 51.9746 145.025C53.1599 145.542 54.8624 146.283 56.9948 147.213C61.3026 149.066 67.3399 151.665 74.326 154.673L74.2466 154.562C74.4672 157.723 74.7036 161.137 74.948 164.669C75.535 172.925 76.0777 180.537 76.5061 186.56L76.514 186.668L76.6219 186.659C81.017 186.273 84.6234 185.957 87.1494 185.735C88.3918 185.619 89.3676 185.529 90.0483 185.464C90.3688 185.431 90.621 185.405 90.8067 185.386C90.9765 185.366 91.0653 185.353 91.0637 185.348C91.0637 185.343 90.9749 185.345 90.8035 185.353C90.6179 185.366 90.3656 185.381 90.0435 185.4C89.3596 185.451 88.3838 185.523 87.1399 185.615C84.6123 185.813 81.0027 186.099 76.6044 186.446L76.7203 186.544C76.3061 180.521 75.7841 172.907 75.2177 164.65C74.9686 161.118 74.7274 157.705 74.5053 154.545L74.5005 154.465L74.4275 154.435C67.4256 151.463 61.3756 148.894 57.0583 147.062C54.9147 146.162 53.2011 145.445 52.0095 144.945C51.4304 144.707 50.9782 144.522 50.6545 144.388C50.5101 144.331 50.3943 144.287 50.3039 144.25C50.2245 144.22 50.1817 144.207 50.1817 144.211Z" fill="#455A64"/>
<path d="M30.9747 145.263C30.9811 145.282 31.2223 145.213 31.6522 145.078C32.133 144.923 32.7423 144.726 33.4706 144.491C35.0049 144.004 37.1342 143.327 39.5554 142.954C41.9783 142.581 44.2202 142.695 45.7863 143.035C47.3587 143.359 48.2615 143.809 48.2821 143.757C48.2884 143.744 48.0695 143.62 47.6538 143.439C47.2381 143.259 46.6177 143.038 45.8275 142.848C44.2504 142.456 41.9688 142.308 39.5158 142.687C37.0644 143.065 34.9319 143.777 33.4103 144.311C32.6487 144.582 32.0378 144.813 31.6173 144.979C31.1969 145.145 30.9684 145.245 30.9747 145.263Z" fill="#455A64"/>
<path d="M34.3877 139.717C34.3957 139.76 35.1969 139.603 36.4996 139.704C37.1501 139.75 37.9244 139.85 38.786 139.949C39.6459 140.052 40.59 140.168 41.5674 140.353C43.5301 140.702 45.2183 141.386 46.3004 142.108C47.392 142.819 47.903 143.466 47.941 143.43C47.9521 143.422 47.8411 143.247 47.5904 142.976C47.3397 142.705 46.951 142.329 46.4067 141.95C45.331 141.171 43.6047 140.441 41.6182 140.088C40.6281 139.9 39.6761 139.792 38.8129 139.703C37.9498 139.616 37.1707 139.536 36.5091 139.514C35.8491 139.49 35.3128 139.528 34.9478 139.584C34.5813 139.639 34.3846 139.701 34.3877 139.717Z" fill="#455A64"/>
<path d="M45.0553 55.1573C42.277 54.6845 39.8336 55.7539 37.4901 57.3199C35.1466 58.8876 33.3822 61.2501 32.3635 63.8792C31.291 66.6464 31.0292 69.761 31.8542 72.6138C32.6793 75.4651 34.6325 78.018 37.279 79.3619C40.8935 81.1977 45.5154 80.5583 48.7506 78.1132C51.9843 75.6681 53.8327 71.6253 53.9882 67.5746C54.0945 64.7836 53.4281 61.9276 51.8684 59.6111C50.3087 57.293 47.8193 55.5619 45.0553 55.1573Z" fill="#263238"/>
<path d="M37.1541 64.6059C37.5603 63.5428 37.4016 62.356 37.5635 61.2295C37.9173 58.7479 39.9165 56.7582 42.2283 55.792C44.3782 54.8923 47.0057 55.0875 49.5967 55.9252C51.3722 56.4996 53.0446 57.5008 54.2282 58.9431C55.8006 60.8582 56.3543 63.5634 55.661 65.9419L42.9676 64.0934C41.7792 65.0755 40.5623 66.0767 39.12 66.6241C38.6979 66.7844 38.2426 66.9066 37.7951 66.8352C37.3477 66.7653 36.9145 66.4607 36.8082 66.0212C36.6924 65.5404 36.9764 65.0676 37.1541 64.6059Z" fill="#263238"/>
<path d="M49.8683 59.4302L38.7855 61.7784C37.7145 61.8498 36.8751 62.7289 36.8545 63.803L36.9878 87.7871C36.9957 89.4261 37.5463 91.0159 38.549 92.3107L39.6058 93.6736C42.0159 96.7819 46.8981 96.4677 48.7386 92.9929C48.8671 92.7502 48.956 92.5375 48.9941 92.3646C49.0306 92.1488 49.0877 92.0076 49.0972 91.8235L49.3082 89.4848C49.4161 87.3507 49.432 85.1802 49.432 85.2008C52.4562 84.8184 54.3554 82.6796 55.1297 78.7843C55.7073 75.8776 55.7469 71.0779 55.6517 67.1493C55.566 63.6126 53.3971 59.1954 49.8683 59.4302Z" fill="#FFBE9D"/>
<path d="M53.966 71.6508C53.9644 72.049 53.6248 72.3759 53.2091 72.3822C52.7934 72.3885 52.457 72.0712 52.457 71.673C52.4586 71.2747 52.7982 70.9463 53.2139 70.9399C53.6296 70.9336 53.9675 71.2509 53.966 71.6508Z" fill="#263238"/>
<path d="M54.5152 69.6023C54.4169 69.6975 53.8631 69.2533 53.0507 69.2231C52.2416 69.1819 51.6291 69.5769 51.545 69.4738C51.5038 69.4278 51.6053 69.2548 51.8719 69.0756C52.1352 68.8978 52.5779 68.7312 53.0825 68.7535C53.5886 68.7757 54.0059 68.9788 54.2423 69.1787C54.4851 69.3786 54.5628 69.5611 54.5152 69.6023Z" fill="#263238"/>
<path d="M46.6929 71.4682C46.6913 71.8665 46.3518 72.1949 45.936 72.2013C45.5203 72.206 45.184 71.8887 45.1856 71.4905C45.1871 71.0922 45.5251 70.7638 45.9408 70.7574C46.3581 70.7511 46.6945 71.07 46.6929 71.4682Z" fill="#263238"/>
<path d="M46.8103 69.4056C46.7119 69.4992 46.1566 69.0549 45.3458 69.0264C44.535 68.9851 43.9241 69.3786 43.84 69.2755C43.7988 69.231 43.8987 69.0565 44.1669 68.8772C44.4287 68.6995 44.8713 68.5345 45.3775 68.5551C45.8821 68.5773 46.2993 68.7804 46.5373 68.9804C46.7785 69.1819 46.8563 69.3627 46.8103 69.4056Z" fill="#263238"/>
<path d="M49.2446 75.5761C49.243 75.5301 49.7508 75.4634 50.5711 75.3905C50.7789 75.3762 50.9773 75.3429 51.0169 75.2032C51.0725 75.0557 50.9947 74.8288 50.9027 74.5828C50.7282 74.0751 50.5441 73.5404 50.3521 72.9819C49.5873 70.7019 49.0431 68.8312 49.1351 68.801C49.2272 68.7709 49.9221 70.5955 50.6853 72.874C50.8678 73.4357 51.0439 73.972 51.2105 74.4845C51.2803 74.7225 51.4041 74.9954 51.2867 75.3016C51.2248 75.4539 51.0677 75.5602 50.9344 75.592C50.7996 75.6269 50.6837 75.6237 50.5806 75.6269C49.7555 75.6396 49.2462 75.6221 49.2446 75.5761Z" fill="#263238"/>
<path d="M49.4318 85.2008C46.7884 85.2675 44.191 84.4662 41.6396 82.7939C42.8534 85.5594 45.4302 86.8335 49.3667 86.6193L49.4318 85.2008Z" fill="#EB996E"/>
<path d="M48.8258 77.5182C48.5482 77.1215 48.0452 76.8898 47.5359 76.9247C47.182 76.9485 46.8203 77.1056 46.595 77.3833C46.3697 77.661 46.3094 78.0672 46.4934 78.348C46.6997 78.6653 47.1551 78.7542 47.547 78.659C47.9373 78.5638 48.2816 78.321 48.6069 78.0799C48.6973 78.0132 48.7893 77.9434 48.848 77.8482C48.9067 77.7546 48.9226 77.6292 48.8591 77.5467" fill="#EB996E"/>
<path d="M46.8344 76.0458C46.9661 76.0426 46.9343 76.9232 47.6642 77.5785C48.3925 78.2338 49.335 78.1719 49.3366 78.2957C49.3477 78.3512 49.1208 78.4575 48.7241 78.4527C48.3354 78.4512 47.7721 78.3052 47.3262 77.9038C46.8804 77.5039 46.7027 76.9835 46.6868 76.6217C46.6678 76.2521 46.7741 76.0379 46.8344 76.0458Z" fill="#263238"/>
<path d="M46.764 66.997C46.6751 67.2144 45.8691 67.0779 44.9124 67.1557C43.954 67.2144 43.1765 67.4635 43.0575 67.2604C43.0052 67.1636 43.1464 66.9605 43.4653 66.759C43.7811 66.5591 44.2793 66.375 44.8536 66.3338C45.428 66.2925 45.9484 66.4036 46.2896 66.5591C46.6323 66.713 46.8021 66.8939 46.764 66.997Z" fill="#263238"/>
<path d="M54.417 66.045C54.2678 66.2243 53.7157 66.0117 53.0445 65.9752C52.3733 65.9181 51.7974 66.0514 51.6736 65.8531C51.6197 65.7579 51.7165 65.577 51.9719 65.412C52.2242 65.247 52.6399 65.1216 53.1016 65.1533C53.5633 65.1867 53.9568 65.3691 54.1821 65.5659C54.4122 65.7642 54.4836 65.9578 54.417 66.045Z" fill="#263238"/>
<path d="M35.1218 62.8939C36.2705 59.519 41.2876 54.9209 44.8385 55.2398L50.449 58.759C50.0666 60.6868 48.5386 62.3417 46.6473 62.8764C45.6366 63.162 44.426 63.2223 43.812 64.0744C43.1852 64.9439 43.5168 66.2338 42.9314 67.1319C42.119 68.3758 39.9706 68.2743 39.3534 69.6245C39.0837 70.2148 39.2043 70.9304 38.925 71.5158C38.5522 72.2949 36.5387 73.2532 35.72 72.9756C34.9012 72.6979 34.9266 71.2953 34.6712 70.5543C34.2364 69.2882 34.4395 68.6408 34.6045 67.9427C34.9964 66.2862 34.5744 64.5043 35.1218 62.8939Z" fill="#263238"/>
<path d="M38.1377 73.7197C38.1535 73.2818 37.687 72.2298 37.257 72.1441C36.1099 71.9204 34.025 71.9315 33.8917 74.8637C33.7092 78.8716 37.7711 78.2274 37.7838 78.1132C37.7933 78.0227 38.0821 75.2302 38.1377 73.7197Z" fill="#FFBE9D"/>
<path d="M36.6267 76.5392C36.6108 76.5249 36.5553 76.5852 36.4347 76.6328C36.3173 76.6804 36.1174 76.709 35.9127 76.6201C35.4954 76.4456 35.1701 75.757 35.1828 75.0335C35.1892 74.6685 35.2828 74.3258 35.424 74.0434C35.5604 73.7562 35.7588 73.5595 35.9746 73.5309C36.1888 73.4912 36.3331 73.6261 36.3776 73.7419C36.4252 73.8562 36.3966 73.9355 36.4172 73.9418C36.4283 73.9529 36.5061 73.88 36.4823 73.7118C36.4696 73.6324 36.4268 73.5357 36.3363 73.4547C36.2427 73.3722 36.1031 73.3246 35.9539 73.3341C35.6445 73.3421 35.3526 73.6134 35.1971 73.9228C35.0226 74.2322 34.9115 74.6193 34.9036 75.0287C34.8925 75.8379 35.2717 76.6122 35.8445 76.8058C36.1221 76.8914 36.3617 76.8185 36.487 76.7296C36.6156 76.636 36.641 76.5471 36.6267 76.5392Z" fill="#EB996E"/>
<path d="M34.2628 61.8546C34.277 60.6012 32.711 59.7809 31.4893 59.4969C30.2675 59.2128 28.976 59.5841 27.8764 60.187C27.2322 60.5393 26.5849 61.0407 26.4405 61.7594C26.2977 62.4798 26.9895 63.3366 27.6765 63.0795C26.3611 63.5286 25.6932 65.2866 26.3786 66.4972C27.064 67.7079 28.9141 68.0395 29.9772 67.143C29.6344 68.2918 28.8855 69.3136 27.8939 69.9879C29.955 70.2814 32.1445 69.4008 33.4282 67.7618C34.7118 66.1228 35.0418 63.7856 34.2628 61.8546Z" fill="#263238"/>
<path d="M31.4813 68.2299C31.4527 68.2331 31.3448 67.7793 31.3305 67.0256C31.3147 66.2767 31.4273 65.2279 31.7923 64.1347C32.1635 63.0415 32.7094 62.1387 33.1758 61.5516C33.6423 60.9613 34.0025 60.6631 34.0231 60.6837C34.0961 60.736 32.7522 62.0673 32.0445 64.2188C31.3067 66.3592 31.5717 68.2331 31.4813 68.2299Z" fill="#FF725E"/>
<path d="M49.2842 57.5469C49.6523 59.1795 52.1323 61.2708 53.2207 62.5417C55.2977 64.9661 55.7086 65.7706 55.688 71.189C56.6685 69.3183 57.419 67.4842 57.3444 65.3723C57.2683 63.2605 56.4908 61.1454 55.0232 59.6254C53.5555 58.107 51.3754 57.2438 49.2842 57.5469Z" fill="#263238"/>
<path d="M66.2814 102.14C63.4016 97.3389 61.561 94.4527 60.7629 93.4817C59.638 92.1156 58.191 91.3095 57.2247 90.8875C56.6868 90.6511 56.1204 90.4892 55.5428 90.3893L49.331 89.0136C49.3231 91.8411 47.838 93.3421 44.8757 93.5166C41.9149 93.6911 39.1859 91.7157 36.6932 87.5904C31.9078 88.3298 28.9423 88.9946 27.7984 89.5832C26.08 90.467 23.3811 91.5888 21.896 99.0255L20.8535 106.3L33.2295 107.444L34.4148 125.834L40.552 130.108C51.8951 133.058 57.9292 134.629 58.6543 134.824C59.3794 135.019 59.8617 125.893 60.1013 107.444C63.016 105.561 65.0755 103.792 66.2814 102.14Z" fill="#FFDFDE"/>
<path d="M58.1355 99.0477C58.1514 99.0413 58.2355 99.2317 58.3751 99.5792C58.5163 99.9251 58.6972 100.436 58.8971 101.074C59.3002 102.35 59.7428 104.155 59.9935 106.186C60.2395 108.217 60.2458 110.075 60.1633 111.411C60.1221 112.079 60.0697 112.618 60.0157 112.988C59.965 113.359 59.9301 113.562 59.9126 113.561C59.8952 113.559 59.8983 113.351 59.9205 112.98C59.9443 112.607 59.9697 112.068 59.9872 111.403C60.0253 110.073 59.9919 108.231 59.7476 106.216C59.4985 104.201 59.0875 102.405 58.729 101.123C58.5513 100.482 58.3973 99.9663 58.2831 99.6109C58.1736 99.2539 58.1197 99.054 58.1355 99.0477Z" fill="#455A64"/>
<path d="M57.6082 129.171L34.3064 124.1L33.2291 107.444L22.8682 106.486C23.1236 114.077 23.3838 119 23.6488 121.256C24.2232 126.126 27.0998 132.768 28.7833 134.096C29.9066 134.981 39.863 135.224 58.6538 134.824L57.6082 129.171Z" fill="#FFBE9D"/>
<path d="M70.8346 132.19C70.6696 132.515 70.3284 132.728 69.9667 132.696C69.8937 132.69 69.8191 132.675 69.7414 132.65C69.3971 132.539 69.2416 132.134 69.2733 131.435L66.8044 131.032C64.664 132.412 63.2122 133.561 62.4506 134.475C61.689 135.39 60.3372 135.478 58.3935 134.737L57.3828 129.472L61.9286 125.363C61.743 125.526 61.7541 125.351 61.9635 124.839C62.1714 124.326 62.7521 124.166 63.7041 124.36C63.8532 124.107 64.2372 123.935 64.8592 123.844L68.8465 124.303C69.6684 124.398 70.403 124.86 70.8441 125.559L72.5307 128.228C73.1241 129.508 73.3732 130.297 73.278 130.595C73.1337 131.044 72.8243 131.219 72.3483 131.119C72.2181 131.961 72.042 132.398 71.8215 132.426C71.5993 132.457 71.2709 132.377 70.8346 132.19Z" fill="#FFBE9D"/>
<path d="M62.3487 128.411C62.3518 128.452 62.8834 128.403 63.7338 128.439C64.5843 128.48 65.76 128.629 66.9881 129.048C67.6021 129.255 68.1686 129.504 68.6652 129.766C69.1475 130.037 69.6489 130.261 69.8044 130.611C69.8806 130.783 69.8472 130.957 69.76 131.086C69.6759 131.214 69.5616 131.298 69.4601 131.339C69.2507 131.427 69.1142 131.366 69.1094 131.392C69.0999 131.397 69.2332 131.501 69.4918 131.433C69.6172 131.4 69.76 131.317 69.8774 131.168C69.9948 131.027 70.063 130.775 69.971 130.545C69.8837 130.311 69.687 130.132 69.4744 129.983C69.257 129.842 69.0301 129.696 68.7762 129.559C68.2749 129.282 67.6973 129.02 67.069 128.807C65.8108 128.379 64.6017 128.255 63.7386 128.26C62.8707 128.269 62.3439 128.382 62.3487 128.411Z" fill="#EB996E"/>
<path d="M62.0703 130.952C62.0751 131.027 63.6967 130.96 65.6911 131.076C67.684 131.186 69.2881 131.436 69.3024 131.363C69.3071 131.33 68.9136 131.225 68.2631 131.111C67.6141 130.997 66.7097 130.881 65.7054 130.822C64.6994 130.767 63.7871 130.779 63.1302 130.819C62.4717 130.859 62.0687 130.919 62.0703 130.952Z" fill="#EB996E"/>
<path d="M70.8112 132.088C70.8239 132.087 70.843 131.939 70.862 131.665C70.8779 131.39 70.8953 130.992 70.8636 130.497C70.8477 130.249 70.8208 129.978 70.7525 129.688C70.6891 129.397 70.551 129.09 70.3606 128.82C70.0021 128.276 69.5023 127.712 68.8676 127.29C68.2345 126.871 67.6014 126.519 66.9604 126.326C66.3242 126.134 65.7292 126.086 65.2389 126.064C64.7454 126.046 64.3488 126.058 64.0743 126.067C63.7998 126.078 63.6475 126.092 63.6475 126.11C63.6459 126.151 64.2552 126.172 65.2262 126.243C65.7101 126.288 66.2877 126.353 66.8906 126.549C67.4888 126.741 68.1107 127.095 68.7232 127.498C69.3357 127.909 69.8021 128.425 70.1686 128.952C70.5542 129.455 70.6256 130.032 70.6843 130.513C70.7811 131.478 70.7557 132.09 70.8112 132.088Z" fill="#EB996E"/>
<path d="M65.0527 124.856C65.0512 124.895 65.6493 124.91 66.6013 125.02C67.5184 125.161 68.9861 125.228 69.8223 126.492C70.7282 127.643 71.4978 128.728 71.8342 129.62C72.1912 130.505 72.161 131.117 72.2118 131.113C72.2261 131.113 72.2499 130.962 72.2356 130.689C72.2245 130.418 72.1658 130.019 72.0039 129.558C71.6977 128.617 70.9313 127.49 70.0206 126.334C69.7889 126.043 69.5367 125.767 69.2463 125.55C68.9559 125.328 68.618 125.199 68.3086 125.109C67.6787 124.933 67.1011 124.88 66.6188 124.841C65.6509 124.777 65.0512 124.825 65.0527 124.856Z" fill="#EB996E"/>
<path d="M63.3229 133.626C63.3277 133.632 63.4086 133.569 63.5593 133.445C63.7291 133.307 63.9512 133.129 64.2257 132.909C64.816 132.453 65.6902 131.806 66.8469 131.105L66.7898 131.114C67.5276 131.24 68.3574 131.382 69.257 131.535L69.1729 131.43C69.1666 131.631 69.1777 131.83 69.219 132.034C69.2602 132.234 69.3237 132.452 69.4982 132.628C69.5886 132.714 69.7188 132.764 69.8251 132.779C69.9361 132.806 70.0551 132.817 70.1725 132.798C70.409 132.764 70.6295 132.641 70.7866 132.458C70.8278 132.414 70.8627 132.363 70.8945 132.312L70.9167 132.272L70.9278 132.253L70.9341 132.242C70.9659 132.23 70.6581 132.342 70.7898 132.295L70.7929 132.296L70.7977 132.298L70.8754 132.33C70.9802 132.371 71.0849 132.409 71.1944 132.442C71.3038 132.476 71.4149 132.506 71.5323 132.526C71.591 132.537 71.6513 132.545 71.7164 132.547C71.7751 132.549 71.8481 132.552 71.9449 132.503C72.0829 132.404 72.1337 132.287 72.186 132.176C72.2352 132.065 72.2765 131.95 72.3082 131.838C72.3764 131.608 72.4272 131.378 72.4669 131.138L72.3241 131.238C72.643 131.293 73.0206 131.217 73.2427 130.924C73.3427 130.787 73.4252 130.621 73.4125 130.427C73.4046 130.254 73.3665 130.103 73.3253 129.95C73.1523 129.343 72.908 128.763 72.6446 128.174L72.6414 128.168L72.6366 128.16C72.3495 127.706 72.0464 127.224 71.7386 126.737C71.5466 126.434 71.3562 126.132 71.1674 125.834C70.9786 125.545 70.8088 125.22 70.5422 124.96C70.2868 124.701 69.979 124.498 69.6474 124.366C69.3189 124.223 68.9524 124.188 68.6303 124.153C67.3102 124.006 66.0504 123.865 64.8731 123.731L64.8556 123.73L64.8429 123.731C64.6129 123.771 64.3955 123.825 64.1845 123.906C63.9766 123.988 63.7576 124.082 63.6117 124.306L63.7497 124.263C63.3277 124.09 62.839 124.088 62.4693 124.334C62.098 124.579 61.9266 124.974 61.8362 125.343L61.8663 125.291C60.5605 126.465 59.4959 127.424 58.7327 128.109C58.382 128.433 58.1012 128.691 57.8901 128.887C57.6982 129.066 57.6014 129.164 57.6077 129.171C57.6141 129.178 57.7235 129.094 57.925 128.926C58.1456 128.741 58.4375 128.495 58.8025 128.187C59.5784 127.517 60.6621 126.581 61.9901 125.434L62.0123 125.415L62.0202 125.382C62.1043 125.055 62.2725 124.695 62.5788 124.504C62.877 124.304 63.3054 124.311 63.6593 124.458L63.7465 124.495L63.7973 124.414C63.883 124.282 64.0718 124.182 64.2622 124.112C64.4542 124.041 64.6668 123.99 64.8762 123.955L64.8461 123.957C66.0234 124.095 67.2816 124.244 68.6017 124.399C68.9397 124.436 69.2539 124.468 69.5537 124.598C69.8536 124.718 70.1313 124.902 70.3629 125.137C70.5978 125.364 70.758 125.669 70.9532 125.969C71.142 126.267 71.3324 126.568 71.5228 126.871C71.8306 127.359 72.1353 127.841 72.4224 128.295L72.4145 128.28C72.6747 128.856 72.9191 129.439 73.0857 130.015C73.1238 130.157 73.1602 130.305 73.165 130.437C73.1793 130.549 73.1222 130.672 73.0476 130.775C72.9048 130.978 72.616 131.041 72.3733 131.002L72.2479 130.981L72.2289 131.101C72.1908 131.327 72.1432 131.555 72.0813 131.769C72.021 131.973 71.9322 132.22 71.8227 132.303C71.8163 132.306 71.7751 132.318 71.7227 132.314C71.6735 132.314 71.6228 132.307 71.5704 132.298C71.4689 132.28 71.3641 132.253 71.261 132.223C71.1595 132.192 71.0579 132.157 70.9579 132.119L70.885 132.088L70.8802 132.087L70.8786 132.087C71.0087 132.039 70.7009 132.15 70.7326 132.139L70.7311 132.141L70.7279 132.149L70.7184 132.165L70.7009 132.195C70.6755 132.236 70.6485 132.276 70.6168 132.311C70.4946 132.456 70.3217 132.553 70.1408 132.58C70.0504 132.596 69.9615 132.588 69.8695 132.566C69.7711 132.552 69.7061 132.523 69.6442 132.471C69.4094 132.226 69.376 131.789 69.3744 131.439L69.3744 131.349L69.2888 131.335C68.3875 131.195 67.5561 131.065 66.8167 130.949L66.785 130.944L66.7612 130.96C65.6045 131.689 64.7446 132.358 64.1686 132.837C63.883 133.08 63.6688 133.274 63.5276 133.41C63.388 133.547 63.3166 133.62 63.3229 133.626Z" fill="#EB996E"/>
<path d="M101.066 116.879L70.375 117.128C69.3785 117.128 68.4281 117.607 68.279 118.591L64.9248 140.961L49.1152 140.961C48.6075 140.961 48.1934 141.374 48.1934 141.883C48.1934 142.391 48.6075 142.803 49.1152 142.803L64.6487 142.803L67.5967 142.803L99.6061 142.803L103.057 119.195C103.243 117.977 102.299 116.879 101.066 116.879Z" fill="#E0E0E0"/>
<path d="M101.066 116.879C101.178 116.864 101.339 116.88 101.55 116.925C101.857 116.996 102.341 117.185 102.722 117.702C102.913 117.954 103.057 118.292 103.101 118.681C103.152 119.076 103.038 119.493 102.989 119.944C102.86 120.848 102.713 121.889 102.546 123.059C101.87 127.749 100.898 134.508 99.7012 142.817L99.6885 142.898L99.606 142.898C86.5414 142.906 69.372 142.916 50.6224 142.927C50.1829 142.927 49.7434 142.927 49.3039 142.927C49.1008 142.936 48.8184 142.925 48.6073 142.795C48.3884 142.675 48.2202 142.473 48.1345 142.242C47.9505 141.773 48.171 141.199 48.6105 140.966C48.8215 140.839 49.1024 140.828 49.3023 140.837L49.9528 140.837C51.6823 140.837 53.3927 140.837 55.0825 140.837C58.4621 140.839 61.7529 140.84 64.9246 140.84L64.8056 140.942C66.0131 132.931 67.1396 125.458 68.1503 118.754C68.1852 118.329 68.3772 117.87 68.7183 117.585C69.0515 117.29 69.4736 117.133 69.8909 117.067C70.3193 117.002 70.7255 117.037 71.1285 117.023C71.5347 117.021 71.9361 117.018 72.3344 117.015C73.9274 117.006 75.4696 116.994 76.9547 116.985C79.925 116.966 82.6731 116.948 85.1673 116.933C90.1494 116.907 94.1225 116.887 96.8579 116.872C98.2161 116.871 99.2664 116.868 99.9852 116.868C100.336 116.869 100.604 116.869 100.793 116.871C100.913 116.872 101.005 116.875 101.066 116.879C101.005 116.883 100.913 116.888 100.793 116.891C100.604 116.896 100.336 116.901 99.9852 116.909C99.2664 116.918 98.2161 116.934 96.8579 116.953C94.1225 116.985 90.151 117.028 85.1673 117.083C82.6731 117.109 79.9265 117.136 76.9563 117.166C75.4696 117.18 73.929 117.194 72.3344 117.209C71.9361 117.213 71.5347 117.217 71.1301 117.22C70.7255 117.234 70.3113 117.202 69.9226 117.264C69.5323 117.326 69.1467 117.474 68.8532 117.737C68.5502 117.999 68.3915 118.365 68.3534 118.784C67.3538 125.491 66.2384 132.966 65.042 140.979L65.0277 141.08L64.9246 141.08C61.7529 141.082 58.4621 141.082 55.0825 141.083C53.3927 141.083 51.6823 141.083 49.9528 141.085L49.3023 141.085C49.0738 141.078 48.9025 141.086 48.7311 141.183C48.3947 141.361 48.2265 141.799 48.3677 142.156C48.4312 142.334 48.5613 142.487 48.7279 142.579C48.9009 142.676 49.0722 142.686 49.3039 142.679C49.7434 142.679 50.1829 142.679 50.6224 142.679C69.372 142.691 86.5414 142.702 99.606 142.71L99.5124 142.791C100.745 134.486 101.746 127.731 102.441 123.043C102.617 121.875 102.773 120.834 102.908 119.931C102.963 119.479 103.079 119.065 103.033 118.689C102.995 118.311 102.859 117.983 102.678 117.734C102.314 117.226 101.845 117.031 101.543 116.952C101.234 116.877 101.066 116.891 101.066 116.879Z" fill="#263238"/>
<path d="M82.4971 129.558C82.4971 130.618 83.357 131.479 84.4185 131.479C85.48 131.479 86.34 130.618 86.34 129.558C86.34 128.496 85.48 127.635 84.4185 127.635C83.357 127.635 82.4971 128.496 82.4971 129.558Z" fill="white"/>
<path d="M66.1686 142.597C66.2114 142.605 67.1888 136.909 68.3502 129.877C69.5117 122.841 70.4177 117.136 70.3748 117.128C70.332 117.121 69.3546 122.816 68.1931 129.85C67.0317 136.882 66.1241 142.591 66.1686 142.597Z" fill="#263238"/>
</svg>
