<svg width="246" height="247" viewBox="0 0 246 247" fill="none" xmlns="http://www.w3.org/2000/svg">
<path d="M124.215 114.066C115.167 136.356 94.5285 145.345 62.307 141.017C17.2649 134.981 -5.15432 203.937 63.4088 245.799H177.829C239.985 202.94 257.424 159.243 230.138 114.723C195.072 57.5125 134.515 93.1877 124.215 114.066Z" fill="#E9EEFF"/>
<path d="M29.9355 72.1058H225.709" stroke="#C3C9ED" stroke-width="1.313"/>
<path d="M223.325 169.191H32.3201C31.0071 169.191 29.9355 168.119 29.9355 166.797V56.8931C29.9355 55.5636 31.0071 54.4986 32.3201 54.4986H223.325C224.638 54.4986 225.709 55.5636 225.709 56.8931V166.797C225.709 168.119 224.638 169.191 223.325 169.191Z" stroke="#C3C9ED" stroke-width="1.313"/>
<path opacity="0.722" d="M39.4056 152.43H14.6774C13.9228 152.43 13.3115 151.811 13.3115 151.055C13.3115 150.292 13.9228 149.68 14.6774 149.68H39.4056C40.1678 149.68 40.779 150.292 40.779 151.055C40.779 151.811 40.1678 152.43 39.4056 152.43Z" fill="#646EDD"/>
<path d="M151.999 22.6001H111.673C110.919 22.6001 110.308 21.9883 110.308 21.2329V21.2254C110.308 20.47 110.919 19.8582 111.673 19.8582H151.999C152.754 19.8582 153.373 20.47 153.373 21.2254V21.2329C153.373 21.9883 152.754 22.6001 151.999 22.6001Z" fill="#C3C9ED"/>
<path d="M242.122 146.327H238.923C238.085 146.327 237.398 145.639 237.398 144.793V141.779C237.398 140.933 238.085 140.246 238.923 140.246H242.122C242.967 140.246 243.654 140.933 243.654 141.779V144.793C243.654 145.639 242.967 146.327 242.122 146.327Z" fill="#646EDD"/>
<path d="M75.8605 37.405H72.661C71.8159 37.405 71.1367 36.7252 71.1367 35.8792V32.8578C71.1367 32.0118 71.8159 31.332 72.661 31.332H75.8605C76.6981 31.332 77.3848 32.0118 77.3848 32.8578V35.8792C77.3848 36.7252 76.6981 37.405 75.8605 37.405Z" fill="#646EDD"/>
<path d="M50.0905 89.7811H2.6412C1.42629 89.7811 0.445312 88.7991 0.445312 87.583V42.1486C0.445312 40.9325 1.42629 39.9505 2.6412 39.9505H50.0905C51.3054 39.9505 52.2864 40.9325 52.2864 42.1486V87.583C52.2864 88.7991 51.3054 89.7811 50.0905 89.7811Z" fill="white"/>
<path d="M50.0905 89.7811H2.6412C1.42629 89.7811 0.445312 88.7991 0.445312 87.583V42.1486C0.445312 40.9325 1.42629 39.9505 2.6412 39.9505H50.0905C51.3054 39.9505 52.2864 40.9325 52.2864 42.1486V87.583C52.2864 88.7991 51.3054 89.7811 50.0905 89.7811Z" stroke="#C3C9ED" stroke-width="1.313"/>
<path d="M64.4655 101.27H17.0162C15.8013 101.27 14.8203 100.288 14.8203 99.0794V53.6375C14.8203 52.4214 15.8013 51.4394 17.0162 51.4394H64.4655C65.6804 51.4394 66.6614 52.4214 66.6614 53.6375V99.0794C66.6614 100.288 65.6804 101.27 64.4655 101.27Z" fill="#EF6C82"/>
<path d="M49.6001 69.9758C47.5098 67.9288 44.1594 67.959 42.1144 70.0588L40.7637 71.4336L39.3752 70.0664C37.2925 68.0118 33.9346 68.0345 31.882 70.1268C29.8295 72.2116 29.8597 75.5654 31.9424 77.6199L37.0963 82.7034C37.1039 82.711 37.1114 82.7261 37.1265 82.7336C37.949 83.5419 38.9602 84.0253 40.0166 84.1915C41.6466 84.4407 43.3746 83.9271 44.6122 82.6581L49.6831 77.4764C51.728 75.3841 51.6903 72.0228 49.6001 69.9758Z" fill="white"/>
<path d="M226.328 38.7571H177.89C176.728 38.7571 175.777 37.8129 175.777 36.6421V2.50021C175.777 1.32941 176.728 0.385223 177.89 0.385223H226.328C227.498 0.385223 228.448 1.32941 228.448 2.50021V36.6421C228.448 37.8129 227.498 38.7571 226.328 38.7571Z" fill="#646EDD"/>
<path d="M195.781 27.4193C196.513 27.4193 197.102 28.016 197.102 28.7411C197.102 29.4738 196.513 30.0705 195.781 30.0705C195.05 30.0705 194.461 29.4738 194.461 28.7411C194.461 28.016 195.05 27.4193 195.781 27.4193Z" fill="white"/>
<path d="M209.01 27.4193C209.742 27.4193 210.331 28.016 210.331 28.7411C210.331 29.4738 209.742 30.0705 209.01 30.0705C208.278 30.0705 207.689 29.4738 207.689 28.7411C207.689 28.016 208.278 27.4193 209.01 27.4193Z" fill="white"/>
<path fill-rule="evenodd" clip-rule="evenodd" d="M214.035 14.7067C214.284 15.039 214.36 15.4696 214.247 15.8699L211.605 25.1381C211.439 25.7046 210.919 26.0974 210.33 26.0974H195.781C195.125 26.0974 194.567 25.614 194.476 24.9644L192.288 12.6974C192.144 11.9799 191.593 11.5342 190.967 11.5342H189.171C188.439 11.5342 187.851 10.945 187.851 10.2123C187.851 9.47965 188.439 8.89047 189.171 8.89047H190.967C192.854 8.89047 194.491 10.2274 194.861 12.0781L195.457 14.1855H212.979C213.386 14.1855 213.779 14.3743 214.035 14.7067ZM211.221 16.8292H195.985L196.928 23.4461H209.334L211.221 16.8292Z" fill="white"/>
<path d="M155.931 144.801C148.906 145.617 140.326 146.614 130.192 147.8C119.688 149.016 115.953 149.454 102.921 150.972L83.3238 154.296C73.8309 156.335 66.4735 164.297 65.9076 174.003C65.8321 175.287 65.8849 176.594 66.0962 177.878L79.6639 245.671L153.532 244.961L155.931 144.801Z" fill="#EF6C82"/>
<path d="M129.574 147.46L119.115 148.532L105.698 150.36L92.666 152.709C97.1257 159.999 106.694 162.514 121.371 160.255C131.498 158.699 134.229 154.432 129.574 147.46Z" fill="#E3AF9A"/>
<path d="M129.136 147.664L192.175 118.522L198.302 124.565C203.358 129.55 204.619 138.803 200.981 144.892C199.419 147.52 197.405 149.341 194.039 151.554L149.155 178.323L129.136 147.664Z" fill="#EF6C82"/>
<path d="M155.215 174.713V158.737" stroke="#1C2337" stroke-width="1.313" stroke-linecap="round" stroke-linejoin="round"/>
<path d="M186.704 89.2826C187.753 88.3988 190.794 57.1726 203.494 43.478C204.596 42.2921 206.437 42.2392 207.584 43.3723C208.429 44.2183 208.655 45.5099 208.135 46.5901L201.555 60.3601C209.312 57.5502 213.862 59.8238 215.19 67.1885C216.526 74.5532 213.628 79.9389 206.497 83.353L200.679 96.3073L186.704 89.2826Z" fill="#E3AF9A"/>
<path d="M170.707 138.403L183.211 81.5855L211.84 84.5314L202.959 139.053L170.707 138.403Z" fill="#EF6C82"/>
<path d="M89.9111 245.671H143.767V239.031H95.4046C94.1218 239.031 92.9446 239.749 92.356 240.889L89.9111 245.671Z" fill="#A3ADD8"/>
<path d="M245.117 188.037L223.694 245.671H131.686L154.671 186.768C155.78 184.615 157.998 183.256 160.421 183.256H242.174C244.619 183.256 246.211 185.839 245.117 188.037Z" fill="#C3C9ED"/>
<path d="M187.836 210.562C185.881 213.946 186.772 218.123 189.82 219.883C192.869 221.643 196.921 220.328 198.875 216.945C200.822 213.561 199.939 209.391 196.891 207.631C193.842 205.864 189.782 207.178 187.836 210.562Z" fill="#F1F4F9"/>
<path d="M61.3277 245.678L87.1125 245.761L87.4973 235.995L55.5098 230.488L61.3277 245.678Z" fill="#E3AF9A"/>
<path d="M34.5011 215.064L83.3163 226.719L80.2752 245.92L32.0713 245.512L34.5011 215.064Z" fill="#EF6C82"/>
<path d="M82.8633 236.062C102.483 226.945 113.236 230.148 115.107 245.678L87.1117 245.761L82.8633 236.062Z" fill="#E3AF9A"/>
<path d="M29.2565 244.764C20.1258 241.426 16.5868 230.375 22.0727 222.345L53.0189 174.902C61.2139 160.935 82.0333 151.395 91.3074 155.066L88.8625 164.84C94.7936 169.629 97.5328 173.399 93.2995 179.736L49.6232 239.122C45.7974 244.779 35.6706 247.106 29.2565 244.764Z" fill="#EF6C82"/>
<path d="M72.3291 208.243L82.8633 195.236" stroke="#1C2337" stroke-width="1.313" stroke-linecap="round" stroke-linejoin="round"/>
<path d="M95.0274 75.943C94.5595 76.8192 77.7169 78.6623 74.1476 88.5347C69.6426 101.021 81.1427 116.755 95.7669 124.678L95.0274 75.943Z" fill="#20120C"/>
<path d="M82.9539 79.9615C82.7275 70.5272 88.2965 65.3681 99.6759 64.4843C107.622 63.865 112.074 69.379 122.495 67.9892C132.584 66.6447 140.696 70.1193 140.417 78.6321C140.115 87.9758 131.641 90.3325 116.541 92.6514L82.9539 79.9615Z" fill="#20120C"/>
<path d="M122.065 107.154C122.321 111.46 125.906 114.768 130.071 114.549C134.244 114.322 138.228 110.531 137.979 106.225C137.73 101.912 134.146 98.6036 129.973 98.8302C125.8 99.0492 121.816 102.841 122.065 107.154Z" fill="#D89C87"/>
<path d="M120.616 127.858L122.932 146.38C123.762 152.891 120.321 156.841 114.119 157.559C108.821 158.163 101.313 158.201 100.83 152.437L99.917 121.241L120.616 127.858Z" fill="#E3AF9A"/>
<path d="M122.223 140.072C112.33 139.853 105.765 136.024 102.528 128.583C101.042 125.169 107.003 124.286 120.412 125.955L122.223 140.072Z" fill="#1D0300"/>
<path d="M115.733 133.947C126.305 132.647 133.949 122.941 133.142 113.983L131.353 95.2498C130.342 84.0178 120.895 75.5729 109.998 76.1545C98.8452 76.7588 85.3605 87.1223 86.0246 98.6489L90.6352 112.797C92.0312 125.925 102.973 134.634 115.733 133.947Z" fill="#E3AF9A"/>
<path d="M95.0723 112.948L96.6645 107.57C98.0153 102.335 94.8686 98.664 93.7291 96.8059C92.4237 94.6833 92.0162 90.0379 95.5628 86.7144C100.77 81.8272 111.077 78.6396 121.861 81.6233C124.902 82.4617 127.535 84.4483 129.09 87.1978C129.784 88.429 130.365 89.7584 130.546 91.0048L130.176 88.2175C128.773 77.6275 119.137 71.0257 108.572 72.4986C104.867 73.0123 100.588 73.118 95.9929 74.4928C84.3645 77.9598 76.5619 90.1059 81.4668 101.217L86.0775 108.499L95.0723 112.948Z" fill="#20120C"/>
<path d="M79.3091 113.862C79.5581 118.129 83.9121 121.294 88.0398 121.075C92.1675 120.849 95.3142 117.215 95.0727 112.948C94.8237 108.68 89.6622 105.628 85.5345 105.855C81.3993 106.074 79.0601 109.602 79.3091 113.862Z" fill="#E3AF9A"/>
<path d="M90.3636 115.826C89.3222 111.958 86.9603 110.553 83.293 111.618" stroke="black" stroke-width="1.09" stroke-linecap="round" stroke-linejoin="round"/>
<path d="M125.03 103.914C125.399 104.888 126.494 105.379 127.475 105.009C128.448 104.631 128.938 103.536 128.569 102.554C128.191 101.58 127.097 101.089 126.116 101.466C125.143 101.836 124.652 102.932 125.03 103.914Z" fill="#20120C"/>
<path d="M108.595 106.029C108.972 107.003 110.066 107.494 111.047 107.124C112.021 106.746 112.511 105.651 112.134 104.669C111.764 103.695 110.67 103.204 109.689 103.581C108.716 103.951 108.225 105.047 108.595 106.029Z" fill="#20120C"/>
<path d="M120.774 107.622L122.812 110.651C123.174 111.135 123.061 111.815 122.563 112.155L120.873 113.295" stroke="black" stroke-width="1.09" stroke-linecap="round" stroke-linejoin="round"/>
<path d="M107.403 93.3917C111.266 92.2284 113.394 92.7043 113.787 94.8042C114.028 96.2318 112.451 97.4101 109.07 98.3392C103.999 99.7291 101.924 99.7517 101.109 97.8256C100.302 95.8994 104.641 93.928 107.403 93.3917Z" fill="#20120C"/>
<path d="M128.298 91.1558C124.548 90.9065 122.653 91.8356 122.631 93.9506C122.638 95.3933 124.283 96.1713 127.558 96.2998C131.128 96.4282 132.237 95.5444 132.252 94.0941C132.267 92.3719 130.373 91.1105 128.298 91.1558Z" fill="#20120C"/>
<path d="M112.104 117.027C115.009 118.907 118.103 119.111 121.37 117.654" stroke="black" stroke-width="1.09" stroke-linecap="round" stroke-linejoin="round"/>
<path d="M95.5629 86.7143C99.1095 83.0887 103.162 82.3106 107.72 84.3728C114.549 87.4621 133.663 90.3174 133.18 79.9464C132.863 73.0274 123.974 71.4336 106.527 75.1575L92.9746 80.3014L95.5629 86.7143Z" fill="#20120C"/>
<path d="M13.5684 246.01H240.779" stroke="#1C2337" stroke-width="1.313" stroke-linecap="round" stroke-linejoin="round"/>
</svg>
