<svg width="249" height="249" viewBox="0 0 249 249" fill="none" xmlns="http://www.w3.org/2000/svg">
<path d="M112.066 97.3946C100.801 121.417 83.071 132.966 58.8903 132.041C9.58833 130.152 -26.2835 206.148 45.2862 247.743H199.895C244.194 212.551 252.683 169.612 225.373 118.935C196.544 65.4593 122.816 76.6446 112.066 97.3946Z" fill="#E9EEFF"/>
<path d="M27.4775 69.9809H217.706" stroke="#C3C9ED" stroke-width="1.313"/>
<path d="M215.208 176.007H29.9754C28.6 176.007 27.4775 174.885 27.4775 173.502V54.0607C27.4775 52.6773 28.6 51.5549 29.9754 51.5549H215.208C216.591 51.5549 217.706 52.6773 217.706 54.0607V173.502C217.706 174.885 216.591 176.007 215.208 176.007Z" stroke="#C3C9ED" stroke-width="1.313"/>
<path opacity="0.722" d="M229.586 142.934H203.682C202.891 142.934 202.251 142.286 202.251 141.495C202.251 140.705 202.891 140.057 203.682 140.057H229.586C230.384 140.057 231.024 140.705 231.024 141.495C231.024 142.286 230.384 142.934 229.586 142.934Z" fill="#646EDD"/>
<path d="M114.066 12.7425H71.8225C71.0241 12.7425 70.3838 12.0943 70.3838 11.3038C70.3838 10.5054 71.0241 9.86514 71.8225 9.86514H114.066C114.856 9.86514 115.496 10.5054 115.496 11.3038C115.496 12.0943 114.856 12.7425 114.066 12.7425Z" fill="#C3C9ED"/>
<path d="M238.542 192.457H235.191C234.305 192.457 233.586 191.746 233.586 190.86V187.706C233.586 186.821 234.305 186.102 235.191 186.102H238.542C239.42 186.102 240.139 186.821 240.139 187.706V190.86C240.139 191.746 239.42 192.457 238.542 192.457Z" fill="#646EDD"/>
<path d="M168.806 7.01943H165.454C164.577 7.01943 163.857 6.3001 163.857 5.42267V2.26076C163.857 1.37543 164.577 0.664001 165.454 0.664001H168.806C169.691 0.664001 170.403 1.37543 170.403 2.26076V5.42267C170.403 6.3001 169.691 7.01943 168.806 7.01943Z" fill="#646EDD"/>
<path d="M49.1125 42.3616C49.1125 54.1476 39.5635 63.7045 27.7696 63.7045C15.9836 63.7045 6.42676 54.1476 6.42676 42.3616C6.42676 30.5677 15.9836 21.0188 27.7696 21.0188C39.5635 21.0188 49.1125 30.5677 49.1125 42.3616Z" fill="#EF6C82"/>
<path d="M24.3706 49.3573C27.8645 49.4206 31.3979 49.468 34.6152 49.2467C35.627 49.1755 36.5044 47.555 35.2713 47.0491C35.793 46.7804 36.3147 46.5274 36.5439 45.9425C36.7574 45.3891 36.5044 44.6461 35.9274 44.5038C37.1368 44.8042 37.619 42.8754 36.6704 42.2589C37.1684 41.832 37.5874 41.2708 37.6901 40.6226C37.8008 39.9744 37.532 39.2392 36.955 38.931C36.5756 38.7175 36.125 38.7096 35.6981 38.7096C34.2437 38.7017 32.7892 38.6859 31.3426 38.678C31.73 36.4014 31.8485 33.9272 30.6944 31.9352C30.3466 31.3345 29.4139 30.6072 28.6708 31.0736C27.9752 31.5084 28.1728 32.5834 28.2044 33.2632C28.3467 36.0931 26.742 38.931 24.2441 40.2669C24.3548 44.2825 24.3943 47.31 24.3706 49.3573Z" fill="#FDFDFD"/>
<path d="M23.1055 49.3494H17.833V40.2668H23.1055V49.3494Z" fill="#FDFDFD"/>
<path d="M232.772 96.778H175.162C173.889 96.778 172.861 95.7504 172.861 94.4777V37.4369C172.861 36.1722 173.889 35.1367 175.162 35.1367H232.772C234.044 35.1367 235.072 36.1722 235.072 37.4369V94.4777C235.072 95.7504 234.044 96.778 232.772 96.778Z" fill="white"/>
<path d="M232.772 96.778H175.162C173.889 96.778 172.861 95.7504 172.861 94.4777V37.4369C172.861 36.1722 173.889 35.1367 175.162 35.1367H232.772C234.044 35.1367 235.072 36.1722 235.072 37.4369V94.4777C235.072 95.7504 234.044 96.778 232.772 96.778Z" stroke="#C3C9ED" stroke-width="1.313"/>
<path d="M245.356 82.3676H188.956C187.351 82.3676 186.047 81.0712 186.047 79.4587V23.6431C186.047 22.0385 187.351 20.7342 188.956 20.7342H245.356C246.961 20.7342 248.265 22.0385 248.265 23.6431V79.4587C248.265 81.0712 246.961 82.3676 245.356 82.3676Z" fill="#646EDD"/>
<path fill-rule="evenodd" clip-rule="evenodd" d="M230.124 43.7054L227.342 54.8195C227.002 56.1554 225.737 57.1593 224.385 57.1593H210.884C209.58 57.1593 208.252 56.1238 207.936 54.8591L203.809 38.3302H201.493C200.75 38.3302 200.149 37.7294 200.149 36.9864C200.149 36.2433 200.75 35.6347 201.493 35.6347H204.568C205.288 35.6347 206.054 36.2196 206.236 36.9469L207.256 41.0178H228.03C229.437 41.0178 230.472 42.3379 230.124 43.7054ZM227.35 43.7054H207.928L210.552 54.203C210.584 54.3452 210.734 54.4638 210.884 54.4638H224.385C224.496 54.4638 224.694 54.3136 224.733 54.1713L227.35 43.7054Z" fill="white"/>
<path d="M210.907 59.847C209.421 59.847 208.22 61.0485 208.22 62.5346C208.22 64.0207 209.421 65.2301 210.907 65.2301C212.393 65.2301 213.595 64.0207 213.595 62.5346C213.595 61.0485 212.393 59.847 210.907 59.847Z" fill="white"/>
<path d="M224.362 59.847C222.875 59.847 221.666 61.0485 221.666 62.5346C221.666 64.0207 222.875 65.2301 224.362 65.2301C225.848 65.2301 227.049 64.0207 227.049 62.5346C227.049 61.0485 225.848 59.847 224.362 59.847Z" fill="white"/>
<path d="M52.7486 142.665H2.79052C1.52576 142.665 0.490234 141.638 0.490234 140.365V102.667C0.490234 101.402 1.52576 100.367 2.79052 100.367H52.7486C54.0213 100.367 55.0489 101.402 55.0489 102.667V140.365C55.0489 141.638 54.0213 142.665 52.7486 142.665Z" fill="#646EDD"/>
<path d="M38.8279 120.982C38.8279 127.796 33.3104 133.314 26.4965 133.314C19.6905 133.314 14.165 127.796 14.165 120.982C14.165 114.176 19.6905 108.659 26.4965 108.659C33.3104 108.659 38.8279 114.176 38.8279 120.982Z" stroke="white" stroke-width="2.409" stroke-linecap="round" stroke-linejoin="round"/>
<path d="M21.4854 121.868L25.3587 124.595L31.0975 117.378" stroke="white" stroke-width="2.409" stroke-linecap="round" stroke-linejoin="round"/>
<path d="M124.113 141.171C104.019 141.171 86.5653 148.451 71.7676 162.996V224.171C142.578 225.246 177.984 225.246 177.984 224.171C177.984 223.088 178 201.816 178.015 160.34C163.526 147.558 145.566 141.171 124.113 141.171Z" fill="#646EDD"/>
<path d="M122.532 139.59C115.647 139.432 108.564 140.665 101.284 143.298C103.134 150.388 110.13 153.937 122.263 153.945C136.682 153.961 143.883 150.048 143.883 142.215C134.848 139.653 127.734 138.784 122.532 139.59Z" fill="#E3AF9A"/>
<path d="M77.6806 219.175H47.3975C39.4453 219.175 33.0029 225.618 33.0029 233.57C33.0029 241.522 39.4453 247.964 47.3975 247.964H83.0243L77.6806 219.175Z" fill="#E3AF9A"/>
<path d="M36.3311 224.361L55.1286 193.58L83.0245 197.35L78.8824 233.57L36.3311 224.361Z" fill="#E3AF9A"/>
<path d="M70.1869 219.175H47.3975" stroke="#1C2337" stroke-width="1.313" stroke-linecap="round" stroke-linejoin="round"/>
<path d="M74.6766 157.376C62.8352 166.198 51.152 180.316 39.6348 199.738C43.0417 210.97 55.468 217.452 76.9215 219.175L74.6766 157.376Z" fill="#646EDD"/>
<path d="M172.474 219.175H202.758C210.71 219.175 217.152 225.618 217.152 233.57C217.152 241.522 210.71 247.964 202.758 247.964H167.131L172.474 219.175Z" fill="#E3AF9A"/>
<path d="M213.508 223.989L189.833 187.525L167.131 197.35L171.273 233.57L213.508 223.989Z" fill="#E3AF9A"/>
<path d="M174.189 219.175H202.757" stroke="#1C2337" stroke-width="1.313" stroke-linecap="round" stroke-linejoin="round"/>
<path d="M176.434 158.759C187.359 166.656 198.584 180.316 210.093 199.738C207.611 210.97 195.643 217.452 174.189 219.175L176.434 158.759Z" fill="#646EDD"/>
<path d="M171.589 247.964H75.0084C72.3445 247.964 70.1865 245.806 70.1865 243.15V182.181C70.1865 179.517 72.3445 177.359 75.0084 177.359H171.589C174.245 177.359 176.403 179.517 176.403 182.181V243.15C176.403 245.806 174.245 247.964 171.589 247.964Z" fill="#C3C9ED"/>
<path d="M129.804 212.662C129.804 216.258 126.895 219.175 123.299 219.175C119.702 219.175 116.785 216.258 116.785 212.662C116.785 209.065 119.702 206.156 123.299 206.156C126.895 206.156 129.804 209.065 129.804 212.662Z" fill="white"/>
<path d="M105.632 97.7345C105.774 102.801 101.782 107.023 96.7154 107.173C91.6485 107.315 87.4194 103.323 87.2771 98.2483C87.1348 93.1813 91.1267 88.9602 96.1937 88.8179C101.261 88.6756 105.49 92.6675 105.632 97.7345Z" fill="#E3AF9A"/>
<path d="M91.2451 96.699C93.6719 95.5132 96.0512 97.0389 98.3752 101.268" stroke="black" stroke-width="0.945" stroke-linecap="round" stroke-linejoin="round"/>
<path d="M104.944 57.6415C98.0825 58.4873 94.2013 62.416 93.2843 69.4275C92.0196 79.1741 93.5768 87.5452 97.9719 94.5409L98.3276 71.0085L104.944 57.6415Z" fill="#1D0300"/>
<path d="M139.147 97.9953C139.147 103.062 143.258 107.173 148.333 107.173C153.4 107.173 157.51 103.062 157.51 97.9953C157.51 92.9205 153.4 88.81 148.333 88.81C143.258 88.81 139.147 92.9205 139.147 97.9953Z" fill="#E3AF9A"/>
<path d="M153.503 96.5567C151.036 95.4421 148.704 97.023 146.507 101.315" stroke="black" stroke-width="0.945" stroke-linecap="round" stroke-linejoin="round"/>
<path d="M134.168 117.654C130.721 120.089 127.417 121.607 124.279 122.208C119.56 123.109 114.975 120.374 114.919 120.334C114.88 120.318 113.038 119.259 109.41 117.172L108.532 144.539L107.766 145.037C115.757 151.637 127.29 151.716 135.377 145.226L135.171 144.278L134.168 117.654Z" fill="#E3AF9A"/>
<path d="M107.766 117.062C110.319 127.132 115.433 132.112 123.117 131.986C129.606 131.883 133.717 126.903 135.448 117.062H107.766Z" fill="#1D0300"/>
<path d="M147.179 82.0119C147.234 92.3908 145.795 101.347 144.349 107.71C142.934 113.939 138.879 118.311 133.132 121.844L132.089 122.484C126.01 126.215 118.137 126.342 111.931 122.808C105.671 119.235 101.276 114.516 99.8924 107.845C98.2245 99.7581 97.276 91.2288 97.0546 82.2648C94.699 63.5543 102.541 54.3215 120.563 54.5665C138.586 54.8116 147.463 63.9653 147.179 82.0119Z" fill="#E3AF9A"/>
<path d="M132.405 81.9803C128.698 81.261 126.753 81.8933 126.58 83.8932C126.493 85.2449 128.074 86.2014 131.315 86.7469C136.184 87.5689 138.121 87.395 138.698 85.5216C139.267 83.6561 135.038 82.2253 132.405 81.9803Z" fill="#1D0300"/>
<path d="M108.414 82.1068C104.636 82.2728 102.897 83.3478 103.197 85.3319C103.434 86.6757 105.189 87.229 108.47 86.9998C113.394 86.652 115.236 86.0354 115.363 84.0829C115.481 82.1305 111.031 81.7273 108.414 82.1068Z" fill="#1D0300"/>
<path d="M112.644 94.9125C112.644 96.1219 111.664 97.1021 110.454 97.1021C109.245 97.1021 108.265 96.1219 108.265 94.9125C108.265 93.703 109.245 92.7307 110.454 92.7307C111.664 92.7307 112.644 93.703 112.644 94.9125Z" fill="#1D0300"/>
<path d="M134.105 94.9125C134.105 96.1219 133.132 97.1021 131.923 97.1021C130.714 97.1021 129.733 96.1219 129.733 94.9125C129.733 93.703 130.714 92.7307 131.923 92.7307C133.132 92.7307 134.105 93.703 134.105 94.9125Z" fill="#1D0300"/>
<path d="M121.607 103.141H119.204V97.5764" stroke="black" stroke-width="0.945" stroke-linecap="round" stroke-linejoin="round"/>
<path d="M113.948 107.789C115.387 109.876 119.489 110.437 126.272 109.465" stroke="black" stroke-width="0.945" stroke-linecap="round" stroke-linejoin="round"/>
<path d="M98.0194 95.5844C101.972 74.202 102.636 62.0682 100.019 59.183C90.9683 67.3881 90.3043 79.5219 98.0194 95.5844Z" fill="#1D0300"/>
<path d="M146.159 94.3038C139.756 75.8304 138.673 65.0799 142.894 62.0445C151.669 66.4237 152.752 77.1742 146.159 94.3038Z" fill="#1D0300"/>
<path d="M136.05 57.4834C145.504 54.8669 150.729 58.511 151.725 68.4236C152.436 75.4588 150.539 84.1699 146.041 94.5409L145.678 71.0085L136.05 57.4834Z" fill="#1D0300"/>
<path d="M132.666 58.4004C132.46 70.8978 137.077 77.2216 146.507 77.3718C148.301 66.2024 143.693 59.8786 132.666 58.4004Z" fill="#1D0300"/>
<path d="M138.547 65.8625C131.876 65.2459 124.991 66.5423 117.884 69.7516C107.221 74.5656 89.8301 77.0556 87.2848 64.5108C84.6288 51.4363 98.9443 40.0692 125.378 48.7012C139.306 53.2465 144.199 58.0763 140.065 63.1828L138.547 65.8625Z" fill="#1D0300"/>
<path d="M136.05 58.8668C143.212 54.1002 148.065 56.1633 150.626 65.072L142.476 67.8861L136.05 58.8668Z" fill="#1D0300"/>
<path d="M140.665 60.0288C140.357 52.1556 134.618 45.8713 123.457 41.1838C122.05 40.5909 120.437 40.7649 119.172 41.6186C117.078 43.0493 116.564 45.9108 118.026 47.974L121.149 52.3928L140.665 60.0288Z" fill="#1D0300"/>
<path d="M11.083 247.964H238.037" stroke="#1C2337" stroke-width="1.313" stroke-linecap="round" stroke-linejoin="round"/>
</svg>
