<svg>
 
 <symbol id="bg-shape" viewBox="0 0 459 380" xmlns="http://www.w3.org/2000/svg">
 <path d="M251.823 5.95295C374.263 -16.641 453.383 31.5953 458.657 197.711C462.516 319.409 430.624 362.077 346.652 360.807C232.671 359.088 134.323 401.738 61.1743 362.452C8.87574 334.353 -43.9677 114.059 63.3421 58.7415C83.7382 48.2301 107.318 47.344 128.811 40.9964C166.913 29.7449 212.584 13.1872 251.823 5.95295Z" />
 </symbol>

<symbol id="bg-shape2" viewBox="0 0 415 310"  xmlns="http://www.w3.org/2000/svg">
<path d="M199.726 20.016C304.854 -20.4154 381.145 -2.72964 407.903 112.03C427.501 196.105 405.012 232.283 330.684 248.322C229.794 270.096 148.612 319.656 78.7848 307.007C28.8593 297.956 -47.117 155.009 40.2937 94.8107C56.908 83.3709 77.6145 78.0005 95.7517 69.2427C127.905 53.7182 166.036 32.9685 199.726 20.016Z" />
</symbol >

</svg>